<?xml version="1.0" encoding="UTF-8"?>
<svg xmlns="http://www.w3.org/2000/svg" xmlns:xlink="http://www.w3.org/1999/xlink" viewBox="0 0 5593.05 3787.47">
  <defs>
    <style>
      .cls-1 {
        fill: url(#linear-gradient);
      }

      .cls-1, .cls-2, .cls-3, .cls-4, .cls-5, .cls-6, .cls-7, .cls-8, .cls-9, .cls-10, .cls-11, .cls-12, .cls-13, .cls-14 {
        stroke-width: 0px;
      }

      .cls-2 {
        fill: #636363;
      }

      .cls-2, .cls-15 {
        mix-blend-mode: overlay;
      }

      .cls-3 {
        fill: url(#linear-gradient-6);
      }

      .cls-16 {
        isolation: isolate;
      }

      .cls-17, .cls-10 {
        fill: #1700aa;
      }

      .cls-4 {
        fill: url(#linear-gradient-5);
      }

      .cls-5 {
        fill: url(#linear-gradient-2);
      }

      .cls-6 {
        fill: url(#linear-gradient-7);
      }

      .cls-7 {
        fill: url(#radial-gradient);
      }

      .cls-7, .cls-9 {
        mix-blend-mode: color-burn;
      }

      .cls-8 {
        fill: url(#linear-gradient-3);
      }

      .cls-9 {
        fill: url(#radial-gradient-2);
      }

      .cls-18 {
        clip-path: url(#clippath);
      }

      .cls-11 {
        fill: url(#linear-gradient-9);
      }

      .cls-19 {
        mix-blend-mode: color-dodge;
      }

      .cls-12 {
        fill: url(#linear-gradient-8);
      }

      .cls-13 {
        fill: #fff;
      }

      .cls-14 {
        fill: url(#linear-gradient-4);
      }
    </style>
    <clipPath id="clippath">
      <rect class="cls-10" x="1179.95" y="1080.19" width="2806.24" height="1603.57" transform="translate(5166.15 3763.94) rotate(180)"/>
    </clipPath>
    <linearGradient id="linear-gradient" x1="2544.29" y1="1099.66" x2="3920.22" y2="1099.66" gradientTransform="translate(4411.25) rotate(-180) scale(1 -1)" gradientUnits="userSpaceOnUse">
      <stop offset="0" stop-color="#0024ff"/>
      <stop offset="1" stop-color="#5890ff"/>
    </linearGradient>
    <linearGradient id="linear-gradient-2" x1="-307.01" y1="2204.23" x2="1700.61" y2="3757.28" xlink:href="#linear-gradient"/>
    <radialGradient id="radial-gradient" cx="1425.23" cy="1743.96" fx="1425.23" fy="1743.96" r="202.02" gradientUnits="userSpaceOnUse">
      <stop offset=".2" stop-color="#ccc"/>
      <stop offset=".59" stop-color="#e7e7e7"/>
      <stop offset="1" stop-color="#fff"/>
    </radialGradient>
    <linearGradient id="linear-gradient-3" x1="1426.01" y1="1799.91" x2="1426.01" y2="1553.61" gradientTransform="translate(1609.63 -514.61) rotate(45)" gradientUnits="userSpaceOnUse">
      <stop offset="0" stop-color="#2765ff"/>
      <stop offset="1" stop-color="#6c9cff"/>
    </linearGradient>
    <radialGradient id="radial-gradient-2" cx="3618.84" cy="2363.58" fx="3618.84" fy="2363.58" r="127.84" xlink:href="#radial-gradient"/>
    <linearGradient id="linear-gradient-4" x1="3619.33" y1="2398.98" x2="3619.33" y2="2243.12" gradientTransform="translate(1021.62 -1103.31) rotate(20.13)" xlink:href="#linear-gradient"/>
    <linearGradient id="linear-gradient-5" x1="969.82" y1="1684.57" x2="1430.67" y2="1684.57" gradientTransform="translate(1542.58 -355.33) rotate(45)" gradientUnits="userSpaceOnUse">
      <stop offset="0" stop-color="#ccc"/>
      <stop offset=".03" stop-color="#c2c2c2"/>
      <stop offset=".22" stop-color="#888"/>
      <stop offset=".41" stop-color="#575757"/>
      <stop offset=".59" stop-color="#313131"/>
      <stop offset=".75" stop-color="#161616"/>
      <stop offset=".89" stop-color="#050505"/>
      <stop offset="1" stop-color="#000"/>
    </linearGradient>
    <linearGradient id="linear-gradient-6" x1="3229.66" y1="2144.19" x2="3939.1" y2="2144.19" gradientTransform="translate(2566.06 -1906.54) rotate(45)" xlink:href="#linear-gradient-5"/>
    <linearGradient id="linear-gradient-7" x1="2777.23" y1="2420" x2="3171.8" y2="2420" gradientTransform="translate(2582.12 -1394.47) rotate(45)" xlink:href="#linear-gradient-5"/>
    <linearGradient id="linear-gradient-8" x1="3441.39" y1="1576.65" x2="3982.74" y2="1576.65" gradientTransform="translate(2201.86 -2162.94) rotate(45)" gradientUnits="userSpaceOnUse">
      <stop offset="0" stop-color="#000"/>
      <stop offset=".11" stop-color="#050505"/>
      <stop offset=".25" stop-color="#161616"/>
      <stop offset=".41" stop-color="#313131"/>
      <stop offset=".59" stop-color="#575757"/>
      <stop offset=".78" stop-color="#888"/>
      <stop offset=".97" stop-color="#c2c2c2"/>
      <stop offset="1" stop-color="#ccc"/>
    </linearGradient>
    <linearGradient id="linear-gradient-9" x1="1776.84" y1="1462.36" x2="2022.26" y2="1462.36" gradientTransform="translate(1590.38 -914.87) rotate(45)" xlink:href="#linear-gradient-8"/>
  </defs>
  <g class="cls-16">
    <g id="Layer_1" data-name="Layer 1">
      <g>
        <g>
          <rect class="cls-17" x="1179.95" y="1080.19" width="2806.24" height="1603.57" transform="translate(5166.15 3763.94) rotate(180)"/>
          <g class="cls-18">
            <path class="cls-1" d="M491.18,915.17c3.46-71.2,8.96-135.73,56.03-211.06,91.84-146.97,219.7-136.74,317.69-135.28,196.46,2.93,186.19,22.22,383.4-116.08,306.95-215.27,566.7,32.91,454.6,211.48-36.74,58.52-113.39,105.63-140.72,160.34-28.09,56.24,11.08,110.37,63.32,132.81,57.77,24.82,133.4,46.56,156.53,53.96,54.15,17.32,97.3,59.74,81.71,117.06-16.25,59.73-80.79,132.24-51.85,179.6,22.04,36.09,51.73,75.21,19.8,134.92-24.99,46.74-80.18,69.75-132.02,78.46-202.34,34.03-149.44,52.38-314.12,241.34-27.32,31.35-70.93,65.04-116.72,67.25-123.43,5.96-90.15-212.28-256.93-189.85-51.13,6.88-88.02,23.77-187.73,68.13-197.43,87.84-298-3.23-254.64-159.66,38.61-139.32,81.95-230.89,4.34-366.29-51.41-89.68-85.35-168.04-82.68-267.14Z"/>
            <path class="cls-5" d="M3264.98,2569.68c349.58-63.09,275.87-79.21,493.86-212,225.59-137.42,288.19-8.19,466.84-3.07,220.85,6.33,158.29-351.88,316.67-286.84,58.91,24.19,70.88,47.72,149.34,53.46,34.05,2.49,120.13-24.74,217.76,35.89,97.29,60.41,140.37,199.25,60.1,304.61-53.79,70.6-110.29,104.78-101.78,177.36,12.57,107.21,68.42,263.98-65.41,299.37-149.05,39.41-291.85-99.13-395.85,47.53-102.13,144.01-120.68,325.68-305.61,433.52-151.76,88.49-261.03-6.81-385.93-125.46-75.38-71.6-149.9-74.09-250.98-69.1-137.36,6.78-280.03-48.87-366.66-118.43-111.53-89.56-118.26-267.52-50.28-395.29,44.03-82.76,125.67-124.89,217.91-141.54Z"/>
            <path class="cls-2" d="M5587.69,2417.73c29.07,153.53-63.62,301.82-191.76,378.76-144.93,87.02-269.83,122.28-300.04,292.39-9.77,55-25.86,132.63-51.13,182.86-92.9,184.66-308.58,129.78-470.52,125.9-152.03-3.64-251.07,82.63-404.24,206.93-.97.79-321.22,408.36-468.32,4.16-27.26-74.91-33.8-136.35-45.47-177.42-45.91-161.57-193.36-156.08-416.66-251.18-282.62-120.37-373.83-449.74-70.71-559.94,116.5-42.36,217.28-48.37,329.02-103.17,228.32-111.97,205.05-341.88,403.21-441.01,70.96-44.13,177.64-54.23,250.21-42.62,279.45,44.72,388.11,155.2,590.18,94.64,68.66-20.58,154.21-59.86,256.47-75.74,263.4-40.91,544.03,123.94,589.77,365.43Z"/>
            <path class="cls-2" d="M2607.28,388.79c29.07,153.53-63.62,301.82-191.76,378.76-144.93,87.02-269.83,122.28-300.04,292.39-9.77,55-25.86,132.63-51.13,182.86-92.9,184.66-308.58,129.78-470.52,125.9-152.03-3.64-251.07,82.63-404.24,206.93-.96.79-321.22,408.36-468.32,4.16-27.26-74.91-33.8-136.35-45.47-177.42-45.91-161.57-193.36-156.08-416.66-251.18-282.62-120.37-373.83-449.74-70.71-559.94,116.5-42.36,217.28-48.37,329.02-103.17,228.32-111.97,205.05-341.88,403.21-441.01C991.61,2.93,1098.29-7.17,1170.87,4.45c279.45,44.72,388.11,155.2,590.18,94.64,68.66-20.58,154.21-59.86,256.47-75.74,263.4-40.91,544.03,123.94,589.77,365.43Z"/>
            <g class="cls-15">
              <path class="cls-13" d="M720.83,2047.67c-115.89,0-232.95-51.77-305.54-141.99l2.17-1.75c96.73,120.22,273.06,171.68,419.25,122.35,127.86-43.14,221.41-149.13,311.88-251.63,92.52-104.82,188.19-213.21,320.56-254.23,61.5-19.06,127.08-21.91,190.49-24.68,31.14-1.36,63.34-2.76,94.68-6.06,172.99-18.23,342.05-99.92,463.83-224.13,121.78-124.21,200.1-294.86,214.9-468.17l2.77.24c-14.85,173.95-93.46,345.22-215.68,469.89-122.22,124.67-291.9,206.66-465.52,224.95-31.43,3.31-63.67,4.72-94.85,6.08-63.24,2.76-128.63,5.61-189.79,24.55-131.63,40.78-227.03,148.88-319.3,253.41-90.71,102.77-184.51,209.05-313.07,252.42-37.56,12.67-77.11,18.74-116.77,18.74Z"/>
            </g>
            <g class="cls-15">
              <path class="cls-13" d="M2861.82,2904.09c-9.71-78.88,11.72-161.3,60.35-232.06,48.63-70.77,117.89-120.32,195.01-139.53,83.59-20.82,171.37-9.08,256.27,2.27,16.98,2.27,34.54,4.62,51.73,6.66,92.28,10.94,209.48,15.37,297.44-47.92,28.97-20.85,53.13-48.24,76.48-74.73,21.54-24.43,43.82-49.7,69.93-69.94,85.26-66.12,202.98-72.01,284.08-70.7,22.47.37,45.4,1.27,67.57,2.15,75.79,3,154.16,6.11,228.58-11.87,98.21-23.72,187.22-85.18,244.21-168.6,56.99-83.43,81.87-188.69,68.26-288.81l2.76-.38c13.71,100.79-11.34,206.76-68.71,290.75-57.37,83.99-146.98,145.86-245.86,169.74-74.8,18.07-153.35,14.96-229.34,11.94-22.16-.88-45.07-1.79-67.51-2.15-80.68-1.31-197.76,4.53-282.33,70.11-25.9,20.09-48.09,45.25-69.55,69.59-23.46,26.61-47.72,54.12-76.95,75.15-88.73,63.85-206.62,59.42-299.39,48.43-17.2-2.04-34.78-4.39-51.77-6.66-84.63-11.32-172.15-23.02-255.23-2.33-157.07,39.12-273.05,207.9-253.27,368.55l-2.76.34Z"/>
            </g>
          </g>
        </g>
        <g>
          <circle class="cls-7" cx="1425.23" cy="1743.96" r="202.02"/>
          <circle class="cls-8" cx="1426.01" cy="1685.69" r="147.63" transform="translate(-774.29 1502.07) rotate(-45)"/>
        </g>
        <g>
          <circle class="cls-9" cx="3618.84" cy="2363.58" r="127.84"/>
          <circle class="cls-14" cx="3619.33" cy="2326.7" r="93.42" transform="translate(-579.59 1387.47) rotate(-20.13)"/>
        </g>
        <g class="cls-19">
          <rect class="cls-4" x="877.15" y="1681.78" width="646.19" height="5.57" transform="translate(-839.6 1341.97) rotate(-45)"/>
        </g>
        <g class="cls-19">
          <rect class="cls-3" x="3085.51" y="2141.41" width="997.74" height="5.57" transform="translate(-466.32 3162.61) rotate(-45)"/>
        </g>
        <g class="cls-19">
          <rect class="cls-6" x="2698.29" y="2417.22" width="552.44" height="5.57" transform="translate(-840.01 2811.81) rotate(-45)"/>
        </g>
        <g class="cls-19">
          <rect class="cls-12" x="3332.06" y="1573.87" width="760.02" height="5.57" transform="translate(-27.72 3086.38) rotate(-45)"/>
        </g>
        <g class="cls-19">
          <rect class="cls-11" x="1728.8" y="1459.57" width="341.51" height="5.57" transform="translate(-477.68 1771.47) rotate(-45)"/>
        </g>
        <g class="cls-15">
          <circle class="cls-13" cx="1215.18" cy="2445.1" r="4.91"/>
          <circle class="cls-13" cx="1248.58" cy="2445.1" r="4.91"/>
          <path class="cls-13" d="M1281.99,2450.01c2.71,0,4.91-2.2,4.91-4.91s-2.2-4.91-4.91-4.91-4.91,2.2-4.91,4.91,2.2,4.91,4.91,4.91Z"/>
          <circle class="cls-13" cx="1315.4" cy="2445.1" r="4.91"/>
          <path class="cls-13" d="M1348.81,2450.01c2.71,0,4.91-2.2,4.91-4.91s-2.2-4.91-4.91-4.91-4.91,2.2-4.91,4.91,2.2,4.91,4.91,4.91Z"/>
          <circle class="cls-13" cx="1382.21" cy="2445.1" r="4.91"/>
          <circle class="cls-13" cx="1415.62" cy="2445.1" r="4.91"/>
          <circle class="cls-13" cx="1449.03" cy="2445.1" r="4.91"/>
          <circle class="cls-13" cx="1482.44" cy="2445.1" r="4.91" transform="translate(-814.58 742.2) rotate(-22.22)"/>
          <circle class="cls-13" cx="1515.85" cy="2445.1" r="4.91"/>
          <circle class="cls-13" cx="1549.25" cy="2445.1" r="4.91"/>
          <path class="cls-13" d="M1582.66,2450.01c2.71,0,4.91-2.2,4.91-4.91s-2.2-4.91-4.91-4.91-4.91,2.2-4.91,4.91,2.2,4.91,4.91,4.91Z"/>
          <circle class="cls-13" cx="1616.07" cy="2445.1" r="4.91"/>
          <path class="cls-13" d="M1649.48,2450.01c2.71,0,4.91-2.2,4.91-4.91s-2.2-4.91-4.91-4.91-4.91,2.2-4.91,4.91,2.2,4.91,4.91,4.91Z"/>
          <circle class="cls-13" cx="1682.88" cy="2445.1" r="4.91"/>
          <circle class="cls-13" cx="1716.29" cy="2445.1" r="4.91"/>
          <circle class="cls-13" cx="1749.7" cy="2445.1" r="4.91" transform="translate(-371.81 314.57) rotate(-9.29)"/>
          <circle class="cls-13" cx="1783.11" cy="2445.1" r="4.91"/>
          <circle class="cls-13" cx="1215.18" cy="2478.51" r="4.91"/>
          <circle class="cls-13" cx="1248.58" cy="2478.51" r="4.91"/>
          <path class="cls-13" d="M1281.99,2483.42c2.71,0,4.91-2.2,4.91-4.91s-2.2-4.91-4.91-4.91-4.91,2.2-4.91,4.91,2.2,4.91,4.91,4.91Z"/>
          <circle class="cls-13" cx="1315.4" cy="2478.51" r="4.91"/>
          <path class="cls-13" d="M1348.81,2483.42c2.71,0,4.91-2.2,4.91-4.91s-2.2-4.91-4.91-4.91-4.91,2.2-4.91,4.91,2.2,4.91,4.91,4.91Z"/>
          <circle class="cls-13" cx="1382.21" cy="2478.51" r="4.91"/>
          <circle class="cls-13" cx="1415.62" cy="2478.51" r="4.91"/>
          <circle class="cls-13" cx="1449.03" cy="2478.51" r="4.91"/>
          <circle class="cls-13" cx="1482.44" cy="2478.51" r="4.91" transform="translate(-827.21 744.69) rotate(-22.22)"/>
          <circle class="cls-13" cx="1515.85" cy="2478.51" r="4.91"/>
          <circle class="cls-13" cx="1549.25" cy="2478.51" r="4.91"/>
          <path class="cls-13" d="M1582.66,2483.42c2.71,0,4.91-2.2,4.91-4.91s-2.2-4.91-4.91-4.91-4.91,2.2-4.91,4.91,2.2,4.91,4.91,4.91Z"/>
          <circle class="cls-13" cx="1616.07" cy="2478.51" r="4.91"/>
          <path class="cls-13" d="M1649.48,2483.42c2.71,0,4.91-2.2,4.91-4.91s-2.2-4.91-4.91-4.91-4.91,2.2-4.91,4.91,2.2,4.91,4.91,4.91Z"/>
          <circle class="cls-13" cx="1682.88" cy="2478.51" r="4.91"/>
          <circle class="cls-13" cx="1716.29" cy="2478.51" r="4.91"/>
          <circle class="cls-13" cx="1749.7" cy="2478.51" r="4.91" transform="translate(-377.2 315) rotate(-9.29)"/>
          <circle class="cls-13" cx="1783.11" cy="2478.51" r="4.91"/>
          <path class="cls-13" d="M1215.18,2516.83c2.71,0,4.91-2.2,4.91-4.91s-2.2-4.91-4.91-4.91-4.91,2.2-4.91,4.91,2.2,4.91,4.91,4.91Z"/>
          <path class="cls-13" d="M1248.58,2516.83c2.71,0,4.91-2.2,4.91-4.91s-2.2-4.91-4.91-4.91-4.91,2.2-4.91,4.91,2.2,4.91,4.91,4.91Z"/>
          <path class="cls-13" d="M1281.99,2516.83c2.71,0,4.91-2.2,4.91-4.91s-2.2-4.91-4.91-4.91-4.91,2.2-4.91,4.91,2.2,4.91,4.91,4.91Z"/>
          <path class="cls-13" d="M1315.4,2516.83c2.71,0,4.91-2.2,4.91-4.91s-2.2-4.91-4.91-4.91-4.91,2.2-4.91,4.91,2.2,4.91,4.91,4.91Z"/>
          <path class="cls-13" d="M1348.81,2516.83c2.71,0,4.91-2.2,4.91-4.91s-2.2-4.91-4.91-4.91-4.91,2.2-4.91,4.91,2.2,4.91,4.91,4.91Z"/>
          <path class="cls-13" d="M1382.21,2516.83c2.71,0,4.91-2.2,4.91-4.91s-2.2-4.91-4.91-4.91-4.91,2.2-4.91,4.91,2.2,4.91,4.91,4.91Z"/>
          <path class="cls-13" d="M1415.62,2516.83c2.71,0,4.91-2.2,4.91-4.91s-2.2-4.91-4.91-4.91-4.91,2.2-4.91,4.91,2.2,4.91,4.91,4.91Z"/>
          <path class="cls-13" d="M1449.03,2516.83c2.71,0,4.91-2.2,4.91-4.91s-2.2-4.91-4.91-4.91-4.91,2.2-4.91,4.91,2.2,4.91,4.91,4.91Z"/>
          <path class="cls-13" d="M1482.44,2516.83c2.71,0,4.91-2.2,4.91-4.91s-2.2-4.91-4.91-4.91-4.91,2.2-4.91,4.91,2.2,4.91,4.91,4.91Z"/>
          <path class="cls-13" d="M1515.85,2516.83c2.71,0,4.91-2.2,4.91-4.91s-2.2-4.91-4.91-4.91-4.91,2.2-4.91,4.91,2.2,4.91,4.91,4.91Z"/>
          <path class="cls-13" d="M1549.25,2516.83c2.71,0,4.91-2.2,4.91-4.91s-2.2-4.91-4.91-4.91-4.91,2.2-4.91,4.91,2.2,4.91,4.91,4.91Z"/>
          <path class="cls-13" d="M1582.66,2516.83c2.71,0,4.91-2.2,4.91-4.91s-2.2-4.91-4.91-4.91-4.91,2.2-4.91,4.91,2.2,4.91,4.91,4.91Z"/>
          <path class="cls-13" d="M1616.07,2516.83c2.71,0,4.91-2.2,4.91-4.91s-2.2-4.91-4.91-4.91-4.91,2.2-4.91,4.91,2.2,4.91,4.91,4.91Z"/>
          <path class="cls-13" d="M1649.48,2516.83c2.71,0,4.91-2.2,4.91-4.91s-2.2-4.91-4.91-4.91-4.91,2.2-4.91,4.91,2.2,4.91,4.91,4.91Z"/>
          <path class="cls-13" d="M1682.88,2516.83c2.71,0,4.91-2.2,4.91-4.91s-2.2-4.91-4.91-4.91-4.91,2.2-4.91,4.91,2.2,4.91,4.91,4.91Z"/>
          <path class="cls-13" d="M1716.29,2516.83c2.71,0,4.91-2.2,4.91-4.91s-2.2-4.91-4.91-4.91-4.91,2.2-4.91,4.91,2.2,4.91,4.91,4.91Z"/>
          <path class="cls-13" d="M1749.7,2516.83c2.71,0,4.91-2.2,4.91-4.91s-2.2-4.91-4.91-4.91-4.91,2.2-4.91,4.91,2.2,4.91,4.91,4.91Z"/>
          <path class="cls-13" d="M1783.11,2516.83c2.71,0,4.91-2.2,4.91-4.91s-2.2-4.91-4.91-4.91-4.91,2.2-4.91,4.91,2.2,4.91,4.91,4.91Z"/>
          <circle class="cls-13" cx="1215.18" cy="2545.33" r="4.91"/>
          <circle class="cls-13" cx="1248.58" cy="2545.33" r="4.91"/>
          <path class="cls-13" d="M1281.99,2550.24c2.71,0,4.91-2.2,4.91-4.91s-2.2-4.91-4.91-4.91-4.91,2.2-4.91,4.91,2.2,4.91,4.91,4.91Z"/>
          <circle class="cls-13" cx="1315.4" cy="2545.33" r="4.91"/>
          <path class="cls-13" d="M1348.81,2550.24c2.71,0,4.91-2.2,4.91-4.91s-2.2-4.91-4.91-4.91-4.91,2.2-4.91,4.91,2.2,4.91,4.91,4.91Z"/>
          <circle class="cls-13" cx="1382.21" cy="2545.33" r="4.91"/>
          <circle class="cls-13" cx="1415.62" cy="2545.33" r="4.91"/>
          <circle class="cls-13" cx="1449.03" cy="2545.33" r="4.91"/>
          <circle class="cls-13" cx="1482.44" cy="2545.33" r="4.91" transform="translate(-852.48 749.65) rotate(-22.22)"/>
          <circle class="cls-13" cx="1515.85" cy="2545.33" r="4.91"/>
          <circle class="cls-13" cx="1549.25" cy="2545.33" r="4.91"/>
          <path class="cls-13" d="M1582.66,2550.24c2.71,0,4.91-2.2,4.91-4.91s-2.2-4.91-4.91-4.91-4.91,2.2-4.91,4.91,2.2,4.91,4.91,4.91Z"/>
          <circle class="cls-13" cx="1616.07" cy="2545.33" r="4.91"/>
          <path class="cls-13" d="M1649.48,2550.24c2.71,0,4.91-2.2,4.91-4.91s-2.2-4.91-4.91-4.91-4.91,2.2-4.91,4.91,2.2,4.91,4.91,4.91Z"/>
          <circle class="cls-13" cx="1682.88" cy="2545.33" r="4.91"/>
          <circle class="cls-13" cx="1716.29" cy="2545.33" r="4.91"/>
          <circle class="cls-13" cx="1749.7" cy="2545.33" r="4.91" transform="translate(-387.99 315.88) rotate(-9.29)"/>
          <circle class="cls-13" cx="1783.11" cy="2545.33" r="4.91"/>
          <path class="cls-13" d="M1215.18,2583.64c2.71,0,4.91-2.2,4.91-4.91s-2.2-4.91-4.91-4.91-4.91,2.2-4.91,4.91,2.2,4.91,4.91,4.91Z"/>
          <path class="cls-13" d="M1248.58,2583.64c2.71,0,4.91-2.2,4.91-4.91s-2.2-4.91-4.91-4.91-4.91,2.2-4.91,4.91,2.2,4.91,4.91,4.91Z"/>
          <path class="cls-13" d="M1281.99,2583.64c2.71,0,4.91-2.2,4.91-4.91s-2.2-4.91-4.91-4.91-4.91,2.2-4.91,4.91,2.2,4.91,4.91,4.91Z"/>
          <path class="cls-13" d="M1315.4,2583.64c2.71,0,4.91-2.2,4.91-4.91s-2.2-4.91-4.91-4.91-4.91,2.2-4.91,4.91,2.2,4.91,4.91,4.91Z"/>
          <path class="cls-13" d="M1348.81,2583.64c2.71,0,4.91-2.2,4.91-4.91s-2.2-4.91-4.91-4.91-4.91,2.2-4.91,4.91,2.2,4.91,4.91,4.91Z"/>
          <path class="cls-13" d="M1382.21,2583.64c2.71,0,4.91-2.2,4.91-4.91s-2.2-4.91-4.91-4.91-4.91,2.2-4.91,4.91,2.2,4.91,4.91,4.91Z"/>
          <path class="cls-13" d="M1415.62,2583.64c2.71,0,4.91-2.2,4.91-4.91s-2.2-4.91-4.91-4.91-4.91,2.2-4.91,4.91,2.2,4.91,4.91,4.91Z"/>
          <path class="cls-13" d="M1449.03,2583.64c2.71,0,4.91-2.2,4.91-4.91s-2.2-4.91-4.91-4.91-4.91,2.2-4.91,4.91,2.2,4.91,4.91,4.91Z"/>
          <path class="cls-13" d="M1482.44,2583.64c2.71,0,4.91-2.2,4.91-4.91s-2.2-4.91-4.91-4.91-4.91,2.2-4.91,4.91,2.2,4.91,4.91,4.91Z"/>
          <path class="cls-13" d="M1515.85,2583.64c2.71,0,4.91-2.2,4.91-4.91s-2.2-4.91-4.91-4.91-4.91,2.2-4.91,4.91,2.2,4.91,4.91,4.91Z"/>
          <path class="cls-13" d="M1549.25,2583.64c2.71,0,4.91-2.2,4.91-4.91s-2.2-4.91-4.91-4.91-4.91,2.2-4.91,4.91,2.2,4.91,4.91,4.91Z"/>
          <path class="cls-13" d="M1582.66,2583.64c2.71,0,4.91-2.2,4.91-4.91s-2.2-4.91-4.91-4.91-4.91,2.2-4.91,4.91,2.2,4.91,4.91,4.91Z"/>
          <path class="cls-13" d="M1616.07,2583.64c2.71,0,4.91-2.2,4.91-4.91s-2.2-4.91-4.91-4.91-4.91,2.2-4.91,4.91,2.2,4.91,4.91,4.91Z"/>
          <path class="cls-13" d="M1649.48,2583.64c2.71,0,4.91-2.2,4.91-4.91s-2.2-4.91-4.91-4.91-4.91,2.2-4.91,4.91,2.2,4.91,4.91,4.91Z"/>
          <path class="cls-13" d="M1682.88,2583.64c2.71,0,4.91-2.2,4.91-4.91s-2.2-4.91-4.91-4.91-4.91,2.2-4.91,4.91,2.2,4.91,4.91,4.91Z"/>
          <path class="cls-13" d="M1716.29,2583.64c2.71,0,4.91-2.2,4.91-4.91s-2.2-4.91-4.91-4.91-4.91,2.2-4.91,4.91,2.2,4.91,4.91,4.91Z"/>
          <path class="cls-13" d="M1749.7,2583.64c2.71,0,4.91-2.2,4.91-4.91s-2.2-4.91-4.91-4.91-4.91,2.2-4.91,4.91,2.2,4.91,4.91,4.91Z"/>
          <path class="cls-13" d="M1783.11,2583.64c2.71,0,4.91-2.2,4.91-4.91s-2.2-4.91-4.91-4.91-4.91,2.2-4.91,4.91,2.2,4.91,4.91,4.91Z"/>
          <circle class="cls-13" cx="1215.18" cy="2612.14" r="4.91"/>
          <circle class="cls-13" cx="1248.58" cy="2612.14" r="4.91"/>
          <path class="cls-13" d="M1281.99,2617.05c2.71,0,4.91-2.2,4.91-4.91s-2.2-4.91-4.91-4.91-4.91,2.2-4.91,4.91,2.2,4.91,4.91,4.91Z"/>
          <circle class="cls-13" cx="1315.4" cy="2612.14" r="4.91"/>
          <path class="cls-13" d="M1348.81,2617.05c2.71,0,4.91-2.2,4.91-4.91s-2.2-4.91-4.91-4.91-4.91,2.2-4.91,4.91,2.2,4.91,4.91,4.91Z"/>
          <circle class="cls-13" cx="1382.21" cy="2612.14" r="4.91"/>
          <circle class="cls-13" cx="1415.62" cy="2612.14" r="4.91"/>
          <circle class="cls-13" cx="1449.03" cy="2612.14" r="4.91"/>
          <circle class="cls-13" cx="1482.44" cy="2612.14" r="4.91" transform="translate(-877.75 754.61) rotate(-22.22)"/>
          <circle class="cls-13" cx="1515.85" cy="2612.14" r="4.91"/>
          <circle class="cls-13" cx="1549.25" cy="2612.14" r="4.91"/>
          <path class="cls-13" d="M1582.66,2617.05c2.71,0,4.91-2.2,4.91-4.91s-2.2-4.91-4.91-4.91-4.91,2.2-4.91,4.91,2.2,4.91,4.91,4.91Z"/>
          <circle class="cls-13" cx="1616.07" cy="2612.14" r="4.91"/>
          <path class="cls-13" d="M1649.48,2617.05c2.71,0,4.91-2.2,4.91-4.91s-2.2-4.91-4.91-4.91-4.91,2.2-4.91,4.91,2.2,4.91,4.91,4.91Z"/>
          <circle class="cls-13" cx="1682.88" cy="2612.14" r="4.91"/>
          <circle class="cls-13" cx="1716.29" cy="2612.14" r="4.91"/>
          <circle class="cls-13" cx="1749.7" cy="2612.14" r="4.91" transform="translate(-398.77 316.76) rotate(-9.29)"/>
          <circle class="cls-13" cx="1783.11" cy="2612.14" r="4.91"/>
          <path class="cls-13" d="M1215.18,2650.46c2.71,0,4.91-2.2,4.91-4.91s-2.2-4.91-4.91-4.91-4.91,2.2-4.91,4.91,2.2,4.91,4.91,4.91Z"/>
          <path class="cls-13" d="M1248.58,2650.46c2.71,0,4.91-2.2,4.91-4.91s-2.2-4.91-4.91-4.91-4.91,2.2-4.91,4.91,2.2,4.91,4.91,4.91Z"/>
          <path class="cls-13" d="M1281.99,2650.46c2.71,0,4.91-2.2,4.91-4.91s-2.2-4.91-4.91-4.91-4.91,2.2-4.91,4.91,2.2,4.91,4.91,4.91Z"/>
          <path class="cls-13" d="M1315.4,2650.46c2.71,0,4.91-2.2,4.91-4.91s-2.2-4.91-4.91-4.91-4.91,2.2-4.91,4.91,2.2,4.91,4.91,4.91Z"/>
          <path class="cls-13" d="M1348.81,2650.46c2.71,0,4.91-2.2,4.91-4.91s-2.2-4.91-4.91-4.91-4.91,2.2-4.91,4.91,2.2,4.91,4.91,4.91Z"/>
          <path class="cls-13" d="M1382.21,2650.46c2.71,0,4.91-2.2,4.91-4.91s-2.2-4.91-4.91-4.91-4.91,2.2-4.91,4.91,2.2,4.91,4.91,4.91Z"/>
          <path class="cls-13" d="M1415.62,2650.46c2.71,0,4.91-2.2,4.91-4.91s-2.2-4.91-4.91-4.91-4.91,2.2-4.91,4.91,2.2,4.91,4.91,4.91Z"/>
          <path class="cls-13" d="M1449.03,2650.46c2.71,0,4.91-2.2,4.91-4.91s-2.2-4.91-4.91-4.91-4.91,2.2-4.91,4.91,2.2,4.91,4.91,4.91Z"/>
          <path class="cls-13" d="M1482.44,2650.46c2.71,0,4.91-2.2,4.91-4.91s-2.2-4.91-4.91-4.91-4.91,2.2-4.91,4.91,2.2,4.91,4.91,4.91Z"/>
          <path class="cls-13" d="M1515.85,2650.46c2.71,0,4.91-2.2,4.91-4.91s-2.2-4.91-4.91-4.91-4.91,2.2-4.91,4.91,2.2,4.91,4.91,4.91Z"/>
          <path class="cls-13" d="M1549.25,2650.46c2.71,0,4.91-2.2,4.91-4.91s-2.2-4.91-4.91-4.91-4.91,2.2-4.91,4.91,2.2,4.91,4.91,4.91Z"/>
          <path class="cls-13" d="M1582.66,2650.46c2.71,0,4.91-2.2,4.91-4.91s-2.2-4.91-4.91-4.91-4.91,2.2-4.91,4.91,2.2,4.91,4.91,4.91Z"/>
          <path class="cls-13" d="M1616.07,2650.46c2.71,0,4.91-2.2,4.91-4.91s-2.2-4.91-4.91-4.91-4.91,2.2-4.91,4.91,2.2,4.91,4.91,4.91Z"/>
          <path class="cls-13" d="M1649.48,2650.46c2.71,0,4.91-2.2,4.91-4.91s-2.2-4.91-4.91-4.91-4.91,2.2-4.91,4.91,2.2,4.91,4.91,4.91Z"/>
          <path class="cls-13" d="M1682.88,2650.46c2.71,0,4.91-2.2,4.91-4.91s-2.2-4.91-4.91-4.91-4.91,2.2-4.91,4.91,2.2,4.91,4.91,4.91Z"/>
          <path class="cls-13" d="M1716.29,2650.46c2.71,0,4.91-2.2,4.91-4.91s-2.2-4.91-4.91-4.91-4.91,2.2-4.91,4.91,2.2,4.91,4.91,4.91Z"/>
          <path class="cls-13" d="M1749.7,2650.46c2.71,0,4.91-2.2,4.91-4.91s-2.2-4.91-4.91-4.91-4.91,2.2-4.91,4.91,2.2,4.91,4.91,4.91Z"/>
          <path class="cls-13" d="M1783.11,2650.46c2.71,0,4.91-2.2,4.91-4.91s-2.2-4.91-4.91-4.91-4.91,2.2-4.91,4.91,2.2,4.91,4.91,4.91Z"/>
        </g>
        <g class="cls-15">
          <path class="cls-13" d="M3751.37,1460.5c2.71,0,4.91-2.2,4.91-4.91s-2.2-4.91-4.91-4.91-4.91,2.2-4.91,4.91,2.2,4.91,4.91,4.91Z"/>
          <path class="cls-13" d="M3784.77,1460.5c2.71,0,4.91-2.2,4.91-4.91s-2.2-4.91-4.91-4.91-4.91,2.2-4.91,4.91,2.2,4.91,4.91,4.91Z"/>
          <path class="cls-13" d="M3818.18,1460.5c2.71,0,4.91-2.2,4.91-4.91s-2.2-4.91-4.91-4.91-4.91,2.2-4.91,4.91,2.2,4.91,4.91,4.91Z"/>
          <path class="cls-13" d="M3851.59,1460.5c2.71,0,4.91-2.2,4.91-4.91s-2.2-4.91-4.91-4.91-4.91,2.2-4.91,4.91,2.2,4.91,4.91,4.91Z"/>
          <path class="cls-13" d="M3885,1460.5c2.71,0,4.91-2.2,4.91-4.91s-2.2-4.91-4.91-4.91-4.91,2.2-4.91,4.91,2.2,4.91,4.91,4.91Z"/>
          <path class="cls-13" d="M3918.4,1460.5c2.71,0,4.91-2.2,4.91-4.91s-2.2-4.91-4.91-4.91-4.91,2.2-4.91,4.91,2.2,4.91,4.91,4.91Z"/>
          <path class="cls-13" d="M3951.81,1460.5c2.71,0,4.91-2.2,4.91-4.91s-2.2-4.91-4.91-4.91-4.91,2.2-4.91,4.91,2.2,4.91,4.91,4.91Z"/>
          <path class="cls-13" d="M3751.37,1493.91c2.71,0,4.91-2.2,4.91-4.91s-2.2-4.91-4.91-4.91-4.91,2.2-4.91,4.91,2.2,4.91,4.91,4.91Z"/>
          <path class="cls-13" d="M3784.77,1493.91c2.71,0,4.91-2.2,4.91-4.91s-2.2-4.91-4.91-4.91-4.91,2.2-4.91,4.91,2.2,4.91,4.91,4.91Z"/>
          <path class="cls-13" d="M3818.18,1493.91c2.71,0,4.91-2.2,4.91-4.91s-2.2-4.91-4.91-4.91-4.91,2.2-4.91,4.91,2.2,4.91,4.91,4.91Z"/>
          <path class="cls-13" d="M3851.59,1493.91c2.71,0,4.91-2.2,4.91-4.91s-2.2-4.91-4.91-4.91-4.91,2.2-4.91,4.91,2.2,4.91,4.91,4.91Z"/>
          <path class="cls-13" d="M3885,1493.91c2.71,0,4.91-2.2,4.91-4.91s-2.2-4.91-4.91-4.91-4.91,2.2-4.91,4.91,2.2,4.91,4.91,4.91Z"/>
          <path class="cls-13" d="M3918.4,1493.91c2.71,0,4.91-2.2,4.91-4.91s-2.2-4.91-4.91-4.91-4.91,2.2-4.91,4.91,2.2,4.91,4.91,4.91Z"/>
          <path class="cls-13" d="M3951.81,1493.91c2.71,0,4.91-2.2,4.91-4.91s-2.2-4.91-4.91-4.91-4.91,2.2-4.91,4.91,2.2,4.91,4.91,4.91Z"/>
          <path class="cls-13" d="M3751.37,1527.31c2.71,0,4.91-2.2,4.91-4.91s-2.2-4.91-4.91-4.91-4.91,2.2-4.91,4.91,2.2,4.91,4.91,4.91Z"/>
          <path class="cls-13" d="M3784.77,1527.31c2.71,0,4.91-2.2,4.91-4.91s-2.2-4.91-4.91-4.91-4.91,2.2-4.91,4.91,2.2,4.91,4.91,4.91Z"/>
          <path class="cls-13" d="M3818.18,1527.31c2.71,0,4.91-2.2,4.91-4.91s-2.2-4.91-4.91-4.91-4.91,2.2-4.91,4.91,2.2,4.91,4.91,4.91Z"/>
          <path class="cls-13" d="M3851.59,1527.31c2.71,0,4.91-2.2,4.91-4.91s-2.2-4.91-4.91-4.91-4.91,2.2-4.91,4.91,2.2,4.91,4.91,4.91Z"/>
          <path class="cls-13" d="M3885,1527.31c2.71,0,4.91-2.2,4.91-4.91s-2.2-4.91-4.91-4.91-4.91,2.2-4.91,4.91,2.2,4.91,4.91,4.91Z"/>
          <path class="cls-13" d="M3918.4,1527.31c2.71,0,4.91-2.2,4.91-4.91s-2.2-4.91-4.91-4.91-4.91,2.2-4.91,4.91,2.2,4.91,4.91,4.91Z"/>
          <path class="cls-13" d="M3951.81,1527.31c2.71,0,4.91-2.2,4.91-4.91s-2.2-4.91-4.91-4.91-4.91,2.2-4.91,4.91,2.2,4.91,4.91,4.91Z"/>
          <path class="cls-13" d="M3751.37,1560.72c2.71,0,4.91-2.2,4.91-4.91s-2.2-4.91-4.91-4.91-4.91,2.2-4.91,4.91,2.2,4.91,4.91,4.91Z"/>
          <path class="cls-13" d="M3784.77,1560.72c2.71,0,4.91-2.2,4.91-4.91s-2.2-4.91-4.91-4.91-4.91,2.2-4.91,4.91,2.2,4.91,4.91,4.91Z"/>
          <path class="cls-13" d="M3818.18,1560.72c2.71,0,4.91-2.2,4.91-4.91s-2.2-4.91-4.91-4.91-4.91,2.2-4.91,4.91,2.2,4.91,4.91,4.91Z"/>
          <path class="cls-13" d="M3851.59,1560.72c2.71,0,4.91-2.2,4.91-4.91s-2.2-4.91-4.91-4.91-4.91,2.2-4.91,4.91,2.2,4.91,4.91,4.91Z"/>
          <path class="cls-13" d="M3885,1560.72c2.71,0,4.91-2.2,4.91-4.91s-2.2-4.91-4.91-4.91-4.91,2.2-4.91,4.91,2.2,4.91,4.91,4.91Z"/>
          <path class="cls-13" d="M3918.4,1560.72c2.71,0,4.91-2.2,4.91-4.91s-2.2-4.91-4.91-4.91-4.91,2.2-4.91,4.91,2.2,4.91,4.91,4.91Z"/>
          <path class="cls-13" d="M3951.81,1560.72c2.71,0,4.91-2.2,4.91-4.91s-2.2-4.91-4.91-4.91-4.91,2.2-4.91,4.91,2.2,4.91,4.91,4.91Z"/>
          <path class="cls-13" d="M3751.37,1594.13c2.71,0,4.91-2.2,4.91-4.91s-2.2-4.91-4.91-4.91-4.91,2.2-4.91,4.91,2.2,4.91,4.91,4.91Z"/>
          <path class="cls-13" d="M3784.77,1594.13c2.71,0,4.91-2.2,4.91-4.91s-2.2-4.91-4.91-4.91-4.91,2.2-4.91,4.91,2.2,4.91,4.91,4.91Z"/>
          <path class="cls-13" d="M3818.18,1594.13c2.71,0,4.91-2.2,4.91-4.91s-2.2-4.91-4.91-4.91-4.91,2.2-4.91,4.91,2.2,4.91,4.91,4.91Z"/>
          <path class="cls-13" d="M3851.59,1594.13c2.71,0,4.91-2.2,4.91-4.91s-2.2-4.91-4.91-4.91-4.91,2.2-4.91,4.91,2.2,4.91,4.91,4.91Z"/>
          <path class="cls-13" d="M3885,1594.13c2.71,0,4.91-2.2,4.91-4.91s-2.2-4.91-4.91-4.91-4.91,2.2-4.91,4.91,2.2,4.91,4.91,4.91Z"/>
          <path class="cls-13" d="M3918.4,1594.13c2.71,0,4.91-2.2,4.91-4.91s-2.2-4.91-4.91-4.91-4.91,2.2-4.91,4.91,2.2,4.91,4.91,4.91Z"/>
          <path class="cls-13" d="M3951.81,1594.13c2.71,0,4.91-2.2,4.91-4.91s-2.2-4.91-4.91-4.91-4.91,2.2-4.91,4.91,2.2,4.91,4.91,4.91Z"/>
          <path class="cls-13" d="M3751.37,1627.54c2.71,0,4.91-2.2,4.91-4.91s-2.2-4.91-4.91-4.91-4.91,2.2-4.91,4.91,2.2,4.91,4.91,4.91Z"/>
          <path class="cls-13" d="M3784.77,1627.54c2.71,0,4.91-2.2,4.91-4.91s-2.2-4.91-4.91-4.91-4.91,2.2-4.91,4.91,2.2,4.91,4.91,4.91Z"/>
          <path class="cls-13" d="M3818.18,1627.54c2.71,0,4.91-2.2,4.91-4.91s-2.2-4.91-4.91-4.91-4.91,2.2-4.91,4.91,2.2,4.91,4.91,4.91Z"/>
          <path class="cls-13" d="M3851.59,1627.54c2.71,0,4.91-2.2,4.91-4.91s-2.2-4.91-4.91-4.91-4.91,2.2-4.91,4.91,2.2,4.91,4.91,4.91Z"/>
          <path class="cls-13" d="M3885,1627.54c2.71,0,4.91-2.2,4.91-4.91s-2.2-4.91-4.91-4.91-4.91,2.2-4.91,4.91,2.2,4.91,4.91,4.91Z"/>
          <path class="cls-13" d="M3918.4,1627.54c2.71,0,4.91-2.2,4.91-4.91s-2.2-4.91-4.91-4.91-4.91,2.2-4.91,4.91,2.2,4.91,4.91,4.91Z"/>
          <path class="cls-13" d="M3951.81,1627.54c2.71,0,4.91-2.2,4.91-4.91s-2.2-4.91-4.91-4.91-4.91,2.2-4.91,4.91,2.2,4.91,4.91,4.91Z"/>
          <path class="cls-13" d="M3751.37,1660.94c2.71,0,4.91-2.2,4.91-4.91s-2.2-4.91-4.91-4.91-4.91,2.2-4.91,4.91,2.2,4.91,4.91,4.91Z"/>
          <path class="cls-13" d="M3784.77,1660.94c2.71,0,4.91-2.2,4.91-4.91s-2.2-4.91-4.91-4.91-4.91,2.2-4.91,4.91,2.2,4.91,4.91,4.91Z"/>
          <path class="cls-13" d="M3818.18,1660.94c2.71,0,4.91-2.2,4.91-4.91s-2.2-4.91-4.91-4.91-4.91,2.2-4.91,4.91,2.2,4.91,4.91,4.91Z"/>
          <path class="cls-13" d="M3851.59,1660.94c2.71,0,4.91-2.2,4.91-4.91s-2.2-4.91-4.91-4.91-4.91,2.2-4.91,4.91,2.2,4.91,4.91,4.91Z"/>
          <path class="cls-13" d="M3885,1660.94c2.71,0,4.91-2.2,4.91-4.91s-2.2-4.91-4.91-4.91-4.91,2.2-4.91,4.91,2.2,4.91,4.91,4.91Z"/>
          <path class="cls-13" d="M3918.4,1660.94c2.71,0,4.91-2.2,4.91-4.91s-2.2-4.91-4.91-4.91-4.91,2.2-4.91,4.91,2.2,4.91,4.91,4.91Z"/>
          <path class="cls-13" d="M3951.81,1660.94c2.71,0,4.91-2.2,4.91-4.91s-2.2-4.91-4.91-4.91-4.91,2.2-4.91,4.91,2.2,4.91,4.91,4.91Z"/>
          <path class="cls-13" d="M3751.37,1694.35c2.71,0,4.91-2.2,4.91-4.91s-2.2-4.91-4.91-4.91-4.91,2.2-4.91,4.91,2.2,4.91,4.91,4.91Z"/>
          <path class="cls-13" d="M3784.77,1694.35c2.71,0,4.91-2.2,4.91-4.91s-2.2-4.91-4.91-4.91-4.91,2.2-4.91,4.91,2.2,4.91,4.91,4.91Z"/>
          <path class="cls-13" d="M3818.18,1694.35c2.71,0,4.91-2.2,4.91-4.91s-2.2-4.91-4.91-4.91-4.91,2.2-4.91,4.91,2.2,4.91,4.91,4.91Z"/>
          <path class="cls-13" d="M3851.59,1694.35c2.71,0,4.91-2.2,4.91-4.91s-2.2-4.91-4.91-4.91-4.91,2.2-4.91,4.91,2.2,4.91,4.91,4.91Z"/>
          <path class="cls-13" d="M3885,1694.35c2.71,0,4.91-2.2,4.91-4.91s-2.2-4.91-4.91-4.91-4.91,2.2-4.91,4.91,2.2,4.91,4.91,4.91Z"/>
          <path class="cls-13" d="M3918.4,1694.35c2.71,0,4.91-2.2,4.91-4.91s-2.2-4.91-4.91-4.91-4.91,2.2-4.91,4.91,2.2,4.91,4.91,4.91Z"/>
          <path class="cls-13" d="M3951.81,1694.35c2.71,0,4.91-2.2,4.91-4.91s-2.2-4.91-4.91-4.91-4.91,2.2-4.91,4.91,2.2,4.91,4.91,4.91Z"/>
          <path class="cls-13" d="M3751.37,1727.76c2.71,0,4.91-2.2,4.91-4.91s-2.2-4.91-4.91-4.91-4.91,2.2-4.91,4.91,2.2,4.91,4.91,4.91Z"/>
          <path class="cls-13" d="M3784.77,1727.76c2.71,0,4.91-2.2,4.91-4.91s-2.2-4.91-4.91-4.91-4.91,2.2-4.91,4.91,2.2,4.91,4.91,4.91Z"/>
          <path class="cls-13" d="M3818.18,1727.76c2.71,0,4.91-2.2,4.91-4.91s-2.2-4.91-4.91-4.91-4.91,2.2-4.91,4.91,2.2,4.91,4.91,4.91Z"/>
          <path class="cls-13" d="M3851.59,1727.76c2.71,0,4.91-2.2,4.91-4.91s-2.2-4.91-4.91-4.91-4.91,2.2-4.91,4.91,2.2,4.91,4.91,4.91Z"/>
          <path class="cls-13" d="M3885,1727.76c2.71,0,4.91-2.2,4.91-4.91s-2.2-4.91-4.91-4.91-4.91,2.2-4.91,4.91,2.2,4.91,4.91,4.91Z"/>
          <path class="cls-13" d="M3918.4,1727.76c2.71,0,4.91-2.2,4.91-4.91s-2.2-4.91-4.91-4.91-4.91,2.2-4.91,4.91,2.2,4.91,4.91,4.91Z"/>
          <path class="cls-13" d="M3951.81,1727.76c2.71,0,4.91-2.2,4.91-4.91s-2.2-4.91-4.91-4.91-4.91,2.2-4.91,4.91,2.2,4.91,4.91,4.91Z"/>
          <path class="cls-13" d="M3751.37,1761.17c2.71,0,4.91-2.2,4.91-4.91s-2.2-4.91-4.91-4.91-4.91,2.2-4.91,4.91,2.2,4.91,4.91,4.91Z"/>
          <path class="cls-13" d="M3784.77,1761.17c2.71,0,4.91-2.2,4.91-4.91s-2.2-4.91-4.91-4.91-4.91,2.2-4.91,4.91,2.2,4.91,4.91,4.91Z"/>
          <path class="cls-13" d="M3818.18,1761.17c2.71,0,4.91-2.2,4.91-4.91s-2.2-4.91-4.91-4.91-4.91,2.2-4.91,4.91,2.2,4.91,4.91,4.91Z"/>
          <path class="cls-13" d="M3851.59,1761.17c2.71,0,4.91-2.2,4.91-4.91s-2.2-4.91-4.91-4.91-4.91,2.2-4.91,4.91,2.2,4.91,4.91,4.91Z"/>
          <path class="cls-13" d="M3885,1761.17c2.71,0,4.91-2.2,4.91-4.91s-2.2-4.91-4.91-4.91-4.91,2.2-4.91,4.91,2.2,4.91,4.91,4.91Z"/>
          <path class="cls-13" d="M3918.4,1761.17c2.71,0,4.91-2.2,4.91-4.91s-2.2-4.91-4.91-4.91-4.91,2.2-4.91,4.91,2.2,4.91,4.91,4.91Z"/>
          <path class="cls-13" d="M3951.81,1761.17c2.71,0,4.91-2.2,4.91-4.91s-2.2-4.91-4.91-4.91-4.91,2.2-4.91,4.91,2.2,4.91,4.91,4.91Z"/>
          <path class="cls-13" d="M3751.37,1794.57c2.71,0,4.91-2.2,4.91-4.91s-2.2-4.91-4.91-4.91-4.91,2.2-4.91,4.91,2.2,4.91,4.91,4.91Z"/>
          <path class="cls-13" d="M3784.77,1794.57c2.71,0,4.91-2.2,4.91-4.91s-2.2-4.91-4.91-4.91-4.91,2.2-4.91,4.91,2.2,4.91,4.91,4.91Z"/>
          <path class="cls-13" d="M3818.18,1794.57c2.71,0,4.91-2.2,4.91-4.91s-2.2-4.91-4.91-4.91-4.91,2.2-4.91,4.91,2.2,4.91,4.91,4.91Z"/>
          <path class="cls-13" d="M3851.59,1794.57c2.71,0,4.91-2.2,4.91-4.91s-2.2-4.91-4.91-4.91-4.91,2.2-4.91,4.91,2.2,4.91,4.91,4.91Z"/>
          <path class="cls-13" d="M3885,1794.57c2.71,0,4.91-2.2,4.91-4.91s-2.2-4.91-4.91-4.91-4.91,2.2-4.91,4.91,2.2,4.91,4.91,4.91Z"/>
          <path class="cls-13" d="M3918.4,1794.57c2.71,0,4.91-2.2,4.91-4.91s-2.2-4.91-4.91-4.91-4.91,2.2-4.91,4.91,2.2,4.91,4.91,4.91Z"/>
          <path class="cls-13" d="M3951.81,1794.57c2.71,0,4.91-2.2,4.91-4.91s-2.2-4.91-4.91-4.91-4.91,2.2-4.91,4.91,2.2,4.91,4.91,4.91Z"/>
          <path class="cls-13" d="M3751.37,1827.98c2.71,0,4.91-2.2,4.91-4.91s-2.2-4.91-4.91-4.91-4.91,2.2-4.91,4.91,2.2,4.91,4.91,4.91Z"/>
          <path class="cls-13" d="M3784.77,1827.98c2.71,0,4.91-2.2,4.91-4.91s-2.2-4.91-4.91-4.91-4.91,2.2-4.91,4.91,2.2,4.91,4.91,4.91Z"/>
          <path class="cls-13" d="M3818.18,1827.98c2.71,0,4.91-2.2,4.91-4.91s-2.2-4.91-4.91-4.91-4.91,2.2-4.91,4.91,2.2,4.91,4.91,4.91Z"/>
          <path class="cls-13" d="M3851.59,1827.98c2.71,0,4.91-2.2,4.91-4.91s-2.2-4.91-4.91-4.91-4.91,2.2-4.91,4.91,2.2,4.91,4.91,4.91Z"/>
          <path class="cls-13" d="M3885,1827.98c2.71,0,4.91-2.2,4.91-4.91s-2.2-4.91-4.91-4.91-4.91,2.2-4.91,4.91,2.2,4.91,4.91,4.91Z"/>
          <path class="cls-13" d="M3918.4,1827.98c2.71,0,4.91-2.2,4.91-4.91s-2.2-4.91-4.91-4.91-4.91,2.2-4.91,4.91,2.2,4.91,4.91,4.91Z"/>
          <path class="cls-13" d="M3951.81,1827.98c2.71,0,4.91-2.2,4.91-4.91s-2.2-4.91-4.91-4.91-4.91,2.2-4.91,4.91,2.2,4.91,4.91,4.91Z"/>
          <path class="cls-13" d="M3751.37,1861.39c2.71,0,4.91-2.2,4.91-4.91s-2.2-4.91-4.91-4.91-4.91,2.2-4.91,4.91,2.2,4.91,4.91,4.91Z"/>
          <path class="cls-13" d="M3784.77,1861.39c2.71,0,4.91-2.2,4.91-4.91s-2.2-4.91-4.91-4.91-4.91,2.2-4.91,4.91,2.2,4.91,4.91,4.91Z"/>
          <path class="cls-13" d="M3818.18,1861.39c2.71,0,4.91-2.2,4.91-4.91s-2.2-4.91-4.91-4.91-4.91,2.2-4.91,4.91,2.2,4.91,4.91,4.91Z"/>
          <path class="cls-13" d="M3851.59,1861.39c2.71,0,4.91-2.2,4.91-4.91s-2.2-4.91-4.91-4.91-4.91,2.2-4.91,4.91,2.2,4.91,4.91,4.91Z"/>
          <path class="cls-13" d="M3885,1861.39c2.71,0,4.91-2.2,4.91-4.91s-2.2-4.91-4.91-4.91-4.91,2.2-4.91,4.91,2.2,4.91,4.91,4.91Z"/>
          <path class="cls-13" d="M3918.4,1861.39c2.71,0,4.91-2.2,4.91-4.91s-2.2-4.91-4.91-4.91-4.91,2.2-4.91,4.91,2.2,4.91,4.91,4.91Z"/>
          <path class="cls-13" d="M3951.81,1861.39c2.71,0,4.91-2.2,4.91-4.91s-2.2-4.91-4.91-4.91-4.91,2.2-4.91,4.91,2.2,4.91,4.91,4.91Z"/>
          <path class="cls-13" d="M3751.37,1894.8c2.71,0,4.91-2.2,4.91-4.91s-2.2-4.91-4.91-4.91-4.91,2.2-4.91,4.91,2.2,4.91,4.91,4.91Z"/>
          <path class="cls-13" d="M3784.77,1894.8c2.71,0,4.91-2.2,4.91-4.91s-2.2-4.91-4.91-4.91-4.91,2.2-4.91,4.91,2.2,4.91,4.91,4.91Z"/>
          <path class="cls-13" d="M3818.18,1894.8c2.71,0,4.91-2.2,4.91-4.91s-2.2-4.91-4.91-4.91-4.91,2.2-4.91,4.91,2.2,4.91,4.91,4.91Z"/>
          <path class="cls-13" d="M3851.59,1894.8c2.71,0,4.91-2.2,4.91-4.91s-2.2-4.91-4.91-4.91-4.91,2.2-4.91,4.91,2.2,4.91,4.91,4.91Z"/>
          <path class="cls-13" d="M3885,1894.8c2.71,0,4.91-2.2,4.91-4.91s-2.2-4.91-4.91-4.91-4.91,2.2-4.91,4.91,2.2,4.91,4.91,4.91Z"/>
          <path class="cls-13" d="M3918.4,1894.8c2.71,0,4.91-2.2,4.91-4.91s-2.2-4.91-4.91-4.91-4.91,2.2-4.91,4.91,2.2,4.91,4.91,4.91Z"/>
          <path class="cls-13" d="M3951.81,1894.8c2.71,0,4.91-2.2,4.91-4.91s-2.2-4.91-4.91-4.91-4.91,2.2-4.91,4.91,2.2,4.91,4.91,4.91Z"/>
          <path class="cls-13" d="M3751.37,1928.21c2.71,0,4.91-2.2,4.91-4.91s-2.2-4.91-4.91-4.91-4.91,2.2-4.91,4.91,2.2,4.91,4.91,4.91Z"/>
          <path class="cls-13" d="M3784.77,1928.21c2.71,0,4.91-2.2,4.91-4.91s-2.2-4.91-4.91-4.91-4.91,2.2-4.91,4.91,2.2,4.91,4.91,4.91Z"/>
          <path class="cls-13" d="M3818.18,1928.21c2.71,0,4.91-2.2,4.91-4.91s-2.2-4.91-4.91-4.91-4.91,2.2-4.91,4.91,2.2,4.91,4.91,4.91Z"/>
          <path class="cls-13" d="M3851.59,1928.21c2.71,0,4.91-2.2,4.91-4.91s-2.2-4.91-4.91-4.91-4.91,2.2-4.91,4.91,2.2,4.91,4.91,4.91Z"/>
          <path class="cls-13" d="M3885,1928.21c2.71,0,4.91-2.2,4.91-4.91s-2.2-4.91-4.91-4.91-4.91,2.2-4.91,4.91,2.2,4.91,4.91,4.91Z"/>
          <path class="cls-13" d="M3918.4,1928.21c2.71,0,4.91-2.2,4.91-4.91s-2.2-4.91-4.91-4.91-4.91,2.2-4.91,4.91,2.2,4.91,4.91,4.91Z"/>
          <path class="cls-13" d="M3951.81,1928.21c2.71,0,4.91-2.2,4.91-4.91s-2.2-4.91-4.91-4.91-4.91,2.2-4.91,4.91,2.2,4.91,4.91,4.91Z"/>
          <path class="cls-13" d="M3751.37,1961.61c2.71,0,4.91-2.2,4.91-4.91s-2.2-4.91-4.91-4.91-4.91,2.2-4.91,4.91,2.2,4.91,4.91,4.91Z"/>
          <path class="cls-13" d="M3784.77,1961.61c2.71,0,4.91-2.2,4.91-4.91s-2.2-4.91-4.91-4.91-4.91,2.2-4.91,4.91,2.2,4.91,4.91,4.91Z"/>
          <path class="cls-13" d="M3818.18,1961.61c2.71,0,4.91-2.2,4.91-4.91s-2.2-4.91-4.91-4.91-4.91,2.2-4.91,4.91,2.2,4.91,4.91,4.91Z"/>
          <path class="cls-13" d="M3851.59,1961.61c2.71,0,4.91-2.2,4.91-4.91s-2.2-4.91-4.91-4.91-4.91,2.2-4.91,4.91,2.2,4.91,4.91,4.91Z"/>
          <path class="cls-13" d="M3885,1961.61c2.71,0,4.91-2.2,4.91-4.91s-2.2-4.91-4.91-4.91-4.91,2.2-4.91,4.91,2.2,4.91,4.91,4.91Z"/>
          <path class="cls-13" d="M3918.4,1961.61c2.71,0,4.91-2.2,4.91-4.91s-2.2-4.91-4.91-4.91-4.91,2.2-4.91,4.91,2.2,4.91,4.91,4.91Z"/>
          <path class="cls-13" d="M3951.81,1961.61c2.71,0,4.91-2.2,4.91-4.91s-2.2-4.91-4.91-4.91-4.91,2.2-4.91,4.91,2.2,4.91,4.91,4.91Z"/>
          <path class="cls-13" d="M3751.37,1995.02c2.71,0,4.91-2.2,4.91-4.91s-2.2-4.91-4.91-4.91-4.91,2.2-4.91,4.91,2.2,4.91,4.91,4.91Z"/>
          <path class="cls-13" d="M3784.77,1995.02c2.71,0,4.91-2.2,4.91-4.91s-2.2-4.91-4.91-4.91-4.91,2.2-4.91,4.91,2.2,4.91,4.91,4.91Z"/>
          <path class="cls-13" d="M3818.18,1995.02c2.71,0,4.91-2.2,4.91-4.91s-2.2-4.91-4.91-4.91-4.91,2.2-4.91,4.91,2.2,4.91,4.91,4.91Z"/>
          <path class="cls-13" d="M3851.59,1995.02c2.71,0,4.91-2.2,4.91-4.91s-2.2-4.91-4.91-4.91-4.91,2.2-4.91,4.91,2.2,4.91,4.91,4.91Z"/>
          <path class="cls-13" d="M3885,1995.02c2.71,0,4.91-2.2,4.91-4.91s-2.2-4.91-4.91-4.91-4.91,2.2-4.91,4.91,2.2,4.91,4.91,4.91Z"/>
          <path class="cls-13" d="M3918.4,1995.02c2.71,0,4.91-2.2,4.91-4.91s-2.2-4.91-4.91-4.91-4.91,2.2-4.91,4.91,2.2,4.91,4.91,4.91Z"/>
          <path class="cls-13" d="M3951.81,1995.02c2.71,0,4.91-2.2,4.91-4.91s-2.2-4.91-4.91-4.91-4.91,2.2-4.91,4.91,2.2,4.91,4.91,4.91Z"/>
          <path class="cls-13" d="M3751.37,2028.43c2.71,0,4.91-2.2,4.91-4.91s-2.2-4.91-4.91-4.91-4.91,2.2-4.91,4.91,2.2,4.91,4.91,4.91Z"/>
          <path class="cls-13" d="M3784.77,2028.43c2.71,0,4.91-2.2,4.91-4.91s-2.2-4.91-4.91-4.91-4.91,2.2-4.91,4.91,2.2,4.91,4.91,4.91Z"/>
          <path class="cls-13" d="M3818.18,2028.43c2.71,0,4.91-2.2,4.91-4.91s-2.2-4.91-4.91-4.91-4.91,2.2-4.91,4.91,2.2,4.91,4.91,4.91Z"/>
          <path class="cls-13" d="M3851.59,2028.43c2.71,0,4.91-2.2,4.91-4.91s-2.2-4.91-4.91-4.91-4.91,2.2-4.91,4.91,2.2,4.91,4.91,4.91Z"/>
          <path class="cls-13" d="M3885,2028.43c2.71,0,4.91-2.2,4.91-4.91s-2.2-4.91-4.91-4.91-4.91,2.2-4.91,4.91,2.2,4.91,4.91,4.91Z"/>
          <path class="cls-13" d="M3918.4,2028.43c2.71,0,4.91-2.2,4.91-4.91s-2.2-4.91-4.91-4.91-4.91,2.2-4.91,4.91,2.2,4.91,4.91,4.91Z"/>
          <path class="cls-13" d="M3951.81,2028.43c2.71,0,4.91-2.2,4.91-4.91s-2.2-4.91-4.91-4.91-4.91,2.2-4.91,4.91,2.2,4.91,4.91,4.91Z"/>
          <path class="cls-13" d="M3751.37,2061.84c2.71,0,4.91-2.2,4.91-4.91s-2.2-4.91-4.91-4.91-4.91,2.2-4.91,4.91,2.2,4.91,4.91,4.91Z"/>
          <path class="cls-13" d="M3784.77,2061.84c2.71,0,4.91-2.2,4.91-4.91s-2.2-4.91-4.91-4.91-4.91,2.2-4.91,4.91,2.2,4.91,4.91,4.91Z"/>
          <path class="cls-13" d="M3818.18,2061.84c2.71,0,4.91-2.2,4.91-4.91s-2.2-4.91-4.91-4.91-4.91,2.2-4.91,4.91,2.2,4.91,4.91,4.91Z"/>
          <path class="cls-13" d="M3851.59,2061.84c2.71,0,4.91-2.2,4.91-4.91s-2.2-4.91-4.91-4.91-4.91,2.2-4.91,4.91,2.2,4.91,4.91,4.91Z"/>
          <path class="cls-13" d="M3885,2061.84c2.71,0,4.91-2.2,4.91-4.91s-2.2-4.91-4.91-4.91-4.91,2.2-4.91,4.91,2.2,4.91,4.91,4.91Z"/>
          <path class="cls-13" d="M3918.4,2061.84c2.71,0,4.91-2.2,4.91-4.91s-2.2-4.91-4.91-4.91-4.91,2.2-4.91,4.91,2.2,4.91,4.91,4.91Z"/>
          <path class="cls-13" d="M3951.81,2061.84c2.71,0,4.91-2.2,4.91-4.91s-2.2-4.91-4.91-4.91-4.91,2.2-4.91,4.91,2.2,4.91,4.91,4.91Z"/>
          <path class="cls-13" d="M3751.37,2095.24c2.71,0,4.91-2.2,4.91-4.91s-2.2-4.91-4.91-4.91-4.91,2.2-4.91,4.91,2.2,4.91,4.91,4.91Z"/>
          <path class="cls-13" d="M3784.77,2095.24c2.71,0,4.91-2.2,4.91-4.91s-2.2-4.91-4.91-4.91-4.91,2.2-4.91,4.91,2.2,4.91,4.91,4.91Z"/>
          <path class="cls-13" d="M3818.18,2095.24c2.71,0,4.91-2.2,4.91-4.91s-2.2-4.91-4.91-4.91-4.91,2.2-4.91,4.91,2.2,4.91,4.91,4.91Z"/>
          <path class="cls-13" d="M3851.59,2095.24c2.71,0,4.91-2.2,4.91-4.91s-2.2-4.91-4.91-4.91-4.91,2.2-4.91,4.91,2.2,4.91,4.91,4.91Z"/>
          <path class="cls-13" d="M3885,2095.24c2.71,0,4.91-2.2,4.91-4.91s-2.2-4.91-4.91-4.91-4.91,2.2-4.91,4.91,2.2,4.91,4.91,4.91Z"/>
          <path class="cls-13" d="M3918.4,2095.24c2.71,0,4.91-2.2,4.91-4.91s-2.2-4.91-4.91-4.91-4.91,2.2-4.91,4.91,2.2,4.91,4.91,4.91Z"/>
          <path class="cls-13" d="M3951.81,2095.24c2.71,0,4.91-2.2,4.91-4.91s-2.2-4.91-4.91-4.91-4.91,2.2-4.91,4.91,2.2,4.91,4.91,4.91Z"/>
        </g>
      </g>
    </g>
  </g>
</svg>