<?xml version="1.0" encoding="UTF-8"?>
<svg id="Layer_1" data-name="Layer 1" xmlns="http://www.w3.org/2000/svg" version="1.1" xmlns:xlink="http://www.w3.org/1999/xlink" viewBox="0 0 5599.4 3197.3">
  <defs>
    <style>
      .cls-1 {
        fill: url(#linear-gradient);
      }

      .cls-1, .cls-2, .cls-3, .cls-4, .cls-5, .cls-6, .cls-7, .cls-8, .cls-9, .cls-10, .cls-11, .cls-12, .cls-13, .cls-14, .cls-15 {
        stroke-width: 0px;
      }

      .cls-2 {
        fill: url(#linear-gradient-6);
      }

      .cls-3 {
        fill: #3f6aff;
      }

      .cls-3, .cls-16, .cls-10, .cls-15 {
        isolation: isolate;
      }

      .cls-3, .cls-17 {
        mix-blend-mode: overlay;
      }

      .cls-4 {
        fill: url(#linear-gradient-5);
      }

      .cls-5 {
        fill: none;
      }

      .cls-6 {
        fill: url(#linear-gradient-2);
      }

      .cls-7 {
        fill: url(#linear-gradient-7);
      }

      .cls-8 {
        fill: url(#linear-gradient-3);
      }

      .cls-18 {
        clip-path: url(#clippath);
      }

      .cls-9 {
        fill: url(#linear-gradient-9);
      }

      .cls-19 {
        mix-blend-mode: color-dodge;
      }

      .cls-10 {
        fill: url(#radial-gradient-2);
      }

      .cls-10, .cls-15 {
        mix-blend-mode: color-burn;
      }

      .cls-11 {
        fill: url(#linear-gradient-8);
      }

      .cls-12 {
        fill: #fff;
      }

      .cls-13 {
        fill: url(#linear-gradient-10);
      }

      .cls-14 {
        fill: url(#linear-gradient-4);
      }

      .cls-15 {
        fill: url(#radial-gradient);
      }
    </style>
    <linearGradient id="linear-gradient" x1="-15.5" y1="3383.5" x2="5617.5" y2="3383.5" gradientTransform="translate(0 4986) scale(1 -1)" gradientUnits="userSpaceOnUse">
      <stop offset="0" stop-color="#2765ff"/>
      <stop offset="1" stop-color="#6c9cff"/>
    </linearGradient>
    <clipPath id="clippath">
      <rect class="cls-5" x="-15.5" y="-6.9" width="5633" height="3218.8"/>
    </clipPath>
    <linearGradient id="linear-gradient-2" x1="13835.6" y1="4953.8" x2="16597.5" y2="4953.8" gradientTransform="translate(15199.2 4986) rotate(-180)" gradientUnits="userSpaceOnUse">
      <stop offset="0" stop-color="#0024ff"/>
      <stop offset="1" stop-color="#5890ff"/>
    </linearGradient>
    <linearGradient id="linear-gradient-3" x1="8112.3" y1="2736.6" x2="12142.2" y2="-380.8" gradientTransform="translate(15199.2 4986) rotate(-180)" gradientUnits="userSpaceOnUse">
      <stop offset="0" stop-color="#0024ff"/>
      <stop offset="1" stop-color="#5890ff"/>
    </linearGradient>
    <radialGradient id="radial-gradient" cx="476.9" cy="3660.5" fx="476.9" fy="3660.5" r="405.5" gradientTransform="translate(0 4986) scale(1 -1)" gradientUnits="userSpaceOnUse">
      <stop offset=".2" stop-color="#ccc"/>
      <stop offset=".6" stop-color="#e7e7e7"/>
      <stop offset="1" stop-color="#fff"/>
    </radialGradient>
    <linearGradient id="linear-gradient-4" x1="478.4" y1="3548.2" x2="478.4" y2="4042.6" gradientTransform="translate(0 4986) scale(1 -1)" gradientUnits="userSpaceOnUse">
      <stop offset="0" stop-color="#2765ff"/>
      <stop offset="1" stop-color="#6c9cff"/>
    </linearGradient>
    <radialGradient id="radial-gradient-2" cx="4880.1" cy="2416.7" fx="4880.1" fy="2416.7" r="256.6" gradientTransform="translate(0 4986) scale(1 -1)" gradientUnits="userSpaceOnUse">
      <stop offset=".2" stop-color="#ccc"/>
      <stop offset=".6" stop-color="#e7e7e7"/>
      <stop offset="1" stop-color="#fff"/>
    </radialGradient>
    <linearGradient id="linear-gradient-5" x1="4881.2" y1="2345.7" x2="4881.2" y2="2658.6" gradientTransform="translate(0 4986) scale(1 -1)" gradientUnits="userSpaceOnUse">
      <stop offset="0" stop-color="#0024ff"/>
      <stop offset="1" stop-color="#5890ff"/>
    </linearGradient>
    <linearGradient id="linear-gradient-6" x1="-437.2" y1="3780" x2="487.9" y2="3780" gradientTransform="translate(-2665.6 3860.9) rotate(45) scale(1 -1)" gradientUnits="userSpaceOnUse">
      <stop offset="0" stop-color="#ccc"/>
      <stop offset="0" stop-color="#c2c2c2"/>
      <stop offset=".2" stop-color="#888"/>
      <stop offset=".4" stop-color="#575757"/>
      <stop offset=".6" stop-color="#313131"/>
      <stop offset=".8" stop-color="#161616"/>
      <stop offset=".9" stop-color="#050505"/>
      <stop offset="1" stop-color="#000"/>
    </linearGradient>
    <linearGradient id="linear-gradient-7" x1="4098.9" y1="2857.1" x2="5523" y2="2857.1" gradientTransform="translate(-611.1 747.5) rotate(45) scale(1 -1)" gradientUnits="userSpaceOnUse">
      <stop offset="0" stop-color="#ccc"/>
      <stop offset="0" stop-color="#c2c2c2"/>
      <stop offset=".2" stop-color="#888"/>
      <stop offset=".4" stop-color="#575757"/>
      <stop offset=".6" stop-color="#313131"/>
      <stop offset=".8" stop-color="#161616"/>
      <stop offset=".9" stop-color="#050505"/>
      <stop offset="1" stop-color="#000"/>
    </linearGradient>
    <linearGradient id="linear-gradient-8" x1="3190.8" y1="2303.9" x2="3982.8" y2="2303.9" gradientTransform="translate(-578.7 1774.8) rotate(45) scale(1 -1)" gradientUnits="userSpaceOnUse">
      <stop offset="0" stop-color="#ccc"/>
      <stop offset="0" stop-color="#c2c2c2"/>
      <stop offset=".2" stop-color="#888"/>
      <stop offset=".4" stop-color="#575757"/>
      <stop offset=".6" stop-color="#313131"/>
      <stop offset=".8" stop-color="#161616"/>
      <stop offset=".9" stop-color="#050505"/>
      <stop offset="1" stop-color="#000"/>
    </linearGradient>
    <linearGradient id="linear-gradient-9" x1="4523.9" y1="3996.7" x2="5610.6" y2="3996.7" gradientTransform="translate(-1342.1 232.2) rotate(45) scale(1 -1)" gradientUnits="userSpaceOnUse">
      <stop offset="0" stop-color="#000"/>
      <stop offset="0" stop-color="#050505"/>
      <stop offset=".2" stop-color="#161616"/>
      <stop offset=".4" stop-color="#313131"/>
      <stop offset=".6" stop-color="#575757"/>
      <stop offset=".8" stop-color="#888"/>
      <stop offset="1" stop-color="#c2c2c2"/>
      <stop offset="1" stop-color="#ccc"/>
    </linearGradient>
    <linearGradient id="linear-gradient-10" x1="1182.7" y1="4225.8" x2="1675.3" y2="4225.8" gradientTransform="translate(-2569.6 2737.8) rotate(45) scale(1 -1)" gradientUnits="userSpaceOnUse">
      <stop offset="0" stop-color="#000"/>
      <stop offset="0" stop-color="#050505"/>
      <stop offset=".2" stop-color="#161616"/>
      <stop offset=".4" stop-color="#313131"/>
      <stop offset=".6" stop-color="#575757"/>
      <stop offset=".8" stop-color="#888"/>
      <stop offset="1" stop-color="#c2c2c2"/>
      <stop offset="1" stop-color="#ccc"/>
    </linearGradient>
  </defs>
  <g class="cls-16">
    <g id="Layer_1-2" data-name="Layer 1-2">
      <g>
        <g>
          <rect class="cls-1" x="-15.5" y="-6.9" width="5633" height="3218.8"/>
          <g class="cls-18">
            <g>
              <path class="cls-6" d="M-1398-338.1c6.9-142.9,18-272.5,112.5-423.7,184.4-295,441-274.5,637.7-271.5,394.4,5.9,373.7,44.6,769.6-233,616.1-432.1,1137.5,66.1,912.5,424.5-73.7,117.5-227.6,212-282.5,321.9-56.4,112.9,22.2,221.5,127.1,266.6,116,49.8,267.8,93.5,314.2,108.3,108.7,34.8,195.3,119.9,164,235-32.6,119.9-162.2,265.4-104.1,360.5,44.2,72.4,103.8,151,39.7,270.8-50.2,93.8-160.9,140-265,157.5-406.2,68.3-300,105.1-630.5,484.4-54.8,62.9-142.4,130.6-234.3,135-247.8,12-181-426.1-515.7-381.1-102.6,13.8-176.7,47.7-376.8,136.8-396.3,176.3-598.2-6.5-511.1-320.5,77.5-279.7,164.5-463.5,8.7-735.3-103.2-180-171.3-337.3-166-536.2h0Z"/>
              <path class="cls-8" d="M4169.8,2983c701.7-126.6,553.8-159,991.3-425.5,452.8-275.8,578.5-16.4,937.1-6.2,443.3,12.7,317.7-706.3,635.7-575.8,118.3,48.6,142.3,95.8,299.8,107.3,68.3,5,241.1-49.7,437.1,72,195.3,121.3,281.8,400,120.6,611.4-108,141.7-221.4,210.3-204.3,356,25.2,215.2,137.3,529.9-131.3,600.9-299.2,79.1-585.8-199-794.6,95.4-205,289.1-242.2,653.7-613.4,870.2-304.6,177.6-524-13.7-774.7-251.8-151.3-143.7-300.9-148.7-503.8-138.7-275.7,13.6-562.1-98.1-736-237.7-223.9-179.8-237.4-537-100.9-793.5,88.4-166.1,252.3-250.7,437.4-284.1h0Z"/>
              <path class="cls-3" d="M8832.2,2678c58.4,308.2-127.7,605.8-384.9,760.3-290.9,174.7-541.6,245.5-602.3,586.9-19.6,110.4-51.9,266.2-102.6,367.1-186.5,370.7-619.4,260.5-944.5,252.7-305.2-7.3-504,165.9-811.4,415.4-1.9,1.6-644.8,819.7-940.1,8.4-54.7-150.4-67.8-273.7-91.3-356.1-92.2-324.3-388.1-313.3-836.4-504.2-567.3-241.6-750.4-902.8-141.9-1124,233.9-85,436.1-97.1,660.4-207.1,458.3-224.8,411.6-686.3,809.4-885.2,142.4-88.6,356.6-108.9,502.2-85.6,560.9,89.8,779.1,311.5,1184.7,190,137.8-41.3,309.5-120.2,514.8-152,528.7-82.1,1092,248.8,1183.8,733.5h.1Z"/>
              <path class="cls-3" d="M2849.6-1394.7c58.4,308.2-127.7,605.8-384.9,760.3-290.9,174.7-541.6,245.5-602.3,586.9-19.6,110.4-51.9,266.2-102.6,367.1-186.5,370.7-619.4,260.5-944.5,252.7-305.2-7.3-504,165.9-811.4,415.4-1.9,1.6-644.8,819.7-940.1,8.4-54.7-150.4-67.8-273.7-91.3-356.1-92.2-324.3-388.1-313.3-836.4-504.2-567.3-241.6-750.4-902.8-141.9-1124,233.9-85,436.1-97.1,660.4-207.1,458.3-224.8,411.6-686.3,809.4-885.2,142.4-88.6,356.6-108.9,502.2-85.6,560.9,89.8,779.1,311.5,1184.7,190,137.8-41.3,309.5-120.2,514.8-152,528.7-82.1,1092,248.8,1183.8,733.5h0Z"/>
              <g class="cls-17">
                <path class="cls-12" d="M-937.1,1935.1c-232.6,0-467.6-103.9-613.3-285l4.4-3.5c194.2,241.3,548.1,344.6,841.6,245.6,256.7-86.6,444.4-299.3,626-505.1,185.7-210.4,377.8-428,643.5-510.3,123.4-38.3,255.1-44,382.4-49.5,62.5-2.7,127.1-5.5,190.1-12.2,347.2-36.6,686.6-200.6,931-449.9,244.4-249.3,401.7-591.9,431.4-939.8l5.6.5c-29.8,349.2-187.6,693-432.9,943.2-245.3,250.2-585.9,414.8-934.4,451.5-63.1,6.6-127.8,9.5-190.4,12.2-126.9,5.5-258.2,11.3-381,49.3-264.2,81.9-455.7,298.8-640.9,508.7-182.1,206.3-370.4,419.6-628.4,506.7-75.4,25.4-154.8,37.6-234.4,37.6h-.3Z"/>
              </g>
              <g class="cls-17">
                <path class="cls-12" d="M3360.5,3654.2c-19.5-158.3,23.5-323.8,121.1-465.8,97.6-142.1,236.6-241.5,391.4-280.1,167.8-41.8,344-18.2,514.4,4.6,34.1,4.6,69.3,9.3,103.8,13.4,185.2,22,420.5,30.9,597.1-96.2,58.2-41.9,106.6-96.8,153.5-150,43.2-49,88-99.8,140.4-140.4,171.1-132.7,407.4-144.5,570.2-141.9,45.1.7,91.1,2.5,135.6,4.3,152.1,6,309.4,12.3,458.8-23.8,197.1-47.6,375.8-171,490.2-338.4,114.4-167.5,164.3-378.8,137-579.7l5.5-.8c27.5,202.3-22.8,415-137.9,583.6-115.2,168.6-295,292.8-493.5,340.7-150.1,36.3-307.8,30-460.4,24-44.5-1.8-90.5-3.6-135.5-4.3-161.9-2.6-397,9.1-566.7,140.7-52,40.3-96.5,90.8-139.6,139.7-47.1,53.4-95.8,108.6-154.5,150.8-178.1,128.2-414.7,119.3-601,97.2-34.5-4.1-69.8-8.8-103.9-13.4-169.9-22.7-345.6-46.2-512.3-4.7-315.3,78.5-548.1,417.3-508.4,739.8l-5.5.7h.2Z"/>
              </g>
            </g>
          </g>
        </g>
        <g>
          <circle class="cls-15" cx="476.9" cy="1325.5" r="405.5"/>
          <circle class="cls-14" cx="478.4" cy="1208.5" r="296.3"/>
        </g>
        <g>
          <circle class="cls-10" cx="4880.1" cy="2569.3" r="256.6"/>
          <circle class="cls-4" cx="4881.2" cy="2494.7" r="187.5"/>
        </g>
        <g class="cls-19">
          <rect class="cls-2" x="-623.3" y="1200.4" width="1297.1" height="11.2" transform="translate(-845.4 371.1) rotate(-45)"/>
        </g>
        <g class="cls-19">
          <rect class="cls-7" x="3809.6" y="2123.4" width="2002.8" height="11.2" transform="translate(-96.3 4025.5) rotate(-45)"/>
        </g>
        <g class="cls-19">
          <rect class="cls-11" x="3032.3" y="2676.4" width="1108.9" height="11.2" transform="translate(-845.9 3321.7) rotate(-45)"/>
        </g>
        <g class="cls-19">
          <rect class="cls-9" x="4304.4" y="983.6" width="1525.6" height="11.2" transform="translate(784.7 3872.7) rotate(-45)"/>
        </g>
        <g class="cls-19">
          <rect class="cls-13" x="1086.2" y="754.6" width="685.5" height="11.2" transform="translate(-119 1233.1) rotate(-45)"/>
        </g>
        <g class="cls-17">
          <circle class="cls-12" cx="55.2" cy="2732.9" r="9.9"/>
          <circle class="cls-12" cx="123" cy="2732.9" r="9.9" transform="translate(-56.5 3.1) rotate(-1.2)"/>
          <path class="cls-12" d="M189.3,2742.8c5.4,0,9.9-4.4,9.9-9.9s-4.4-9.9-9.9-9.9-9.9,4.4-9.9,9.9,4.4,9.9,9.9,9.9Z"/>
          <circle class="cls-12" cx="256.4" cy="2732.9" r="9.9"/>
          <path class="cls-12" d="M323.5,2742.8c5.4,0,9.9-4.4,9.9-9.9s-4.4-9.9-9.9-9.9-9.9,4.4-9.9,9.9,4.4,9.9,9.9,9.9Z"/>
          <circle class="cls-12" cx="390.5" cy="2732.9" r="9.9"/>
          <circle class="cls-12" cx="457.6" cy="2732.9" r="9.9"/>
          <circle class="cls-12" cx="524.6" cy="2732.9" r="9.9"/>
          <circle class="cls-12" cx="590.8" cy="2733.4" r="9.9" transform="translate(-989 425.9) rotate(-22.2)"/>
          <circle class="cls-12" cx="658.8" cy="2732.9" r="9.9"/>
          <circle class="cls-12" cx="725.8" cy="2732.9" r="9.9"/>
          <path class="cls-12" d="M792.9,2742.8c5.4,0,9.9-4.4,9.9-9.9s-4.4-9.9-9.9-9.9-9.9,4.4-9.9,9.9,4.4,9.9,9.9,9.9Z"/>
          <circle class="cls-12" cx="859.9" cy="2732.9" r="9.9"/>
          <path class="cls-12" d="M927,2742.8c5.4,0,9.9-4.4,9.9-9.9s-4.4-9.9-9.9-9.9-9.9,4.4-9.9,9.9,4.4,9.9,9.9,9.9Z"/>
          <circle class="cls-12" cx="994.1" cy="2732.9" r="9.9"/>
          <circle class="cls-12" cx="1061.1" cy="2732.9" r="9.9"/>
          <circle class="cls-12" cx="1128.6" cy="2732.7" r="9.9" transform="translate(-426.8 218.3) rotate(-9.3)"/>
          <circle class="cls-12" cx="1195.2" cy="2732.9" r="9.9"/>
          <circle class="cls-12" cx="55.2" cy="2800" r="9.9"/>
          <circle class="cls-12" cx="123" cy="2800" r="9.9" transform="translate(-57.9 3.1) rotate(-1.2)"/>
          <path class="cls-12" d="M189.3,2809.8c5.4,0,9.9-4.4,9.9-9.9s-4.4-9.9-9.9-9.9-9.9,4.4-9.9,9.9,4.4,9.9,9.9,9.9Z"/>
          <circle class="cls-12" cx="256.4" cy="2800" r="9.9"/>
          <path class="cls-12" d="M323.5,2809.8c5.4,0,9.9-4.4,9.9-9.9s-4.4-9.9-9.9-9.9-9.9,4.4-9.9,9.9,4.4,9.9,9.9,9.9Z"/>
          <circle class="cls-12" cx="390.5" cy="2800" r="9.9"/>
          <circle class="cls-12" cx="457.6" cy="2800" r="9.9"/>
          <circle class="cls-12" cx="524.6" cy="2800" r="9.9"/>
          <circle class="cls-12" cx="590.8" cy="2800.5" r="9.9" transform="translate(-1014.4 430.8) rotate(-22.2)"/>
          <circle class="cls-12" cx="658.8" cy="2800" r="9.9"/>
          <circle class="cls-12" cx="725.8" cy="2800" r="9.9"/>
          <path class="cls-12" d="M792.9,2809.8c5.4,0,9.9-4.4,9.9-9.9s-4.4-9.9-9.9-9.9-9.9,4.4-9.9,9.9,4.4,9.9,9.9,9.9Z"/>
          <circle class="cls-12" cx="859.9" cy="2800" r="9.9"/>
          <path class="cls-12" d="M927,2809.8c5.4,0,9.9-4.4,9.9-9.9s-4.4-9.9-9.9-9.9-9.9,4.4-9.9,9.9,4.4,9.9,9.9,9.9Z"/>
          <circle class="cls-12" cx="994.1" cy="2800" r="9.9"/>
          <circle class="cls-12" cx="1061.1" cy="2800" r="9.9"/>
          <circle class="cls-12" cx="1128.6" cy="2799.7" r="9.9" transform="translate(-437.6 219.2) rotate(-9.3)"/>
          <circle class="cls-12" cx="1195.2" cy="2800" r="9.9"/>
          <path class="cls-12" d="M55.2,2876.9c5.4,0,9.9-4.4,9.9-9.9s-4.4-9.9-9.9-9.9-9.9,4.4-9.9,9.9,4.4,9.9,9.9,9.9Z"/>
          <path class="cls-12" d="M122.3,2876.9c5.4,0,9.9-4.4,9.9-9.9s-4.4-9.9-9.9-9.9-9.9,4.4-9.9,9.9,4.4,9.9,9.9,9.9Z"/>
          <path class="cls-12" d="M189.3,2876.9c5.4,0,9.9-4.4,9.9-9.9s-4.4-9.9-9.9-9.9-9.9,4.4-9.9,9.9,4.4,9.9,9.9,9.9Z"/>
          <path class="cls-12" d="M256.4,2876.9c5.4,0,9.9-4.4,9.9-9.9s-4.4-9.9-9.9-9.9-9.9,4.4-9.9,9.9,4.4,9.9,9.9,9.9Z"/>
          <path class="cls-12" d="M323.5,2876.9c5.4,0,9.9-4.4,9.9-9.9s-4.4-9.9-9.9-9.9-9.9,4.4-9.9,9.9,4.4,9.9,9.9,9.9Z"/>
          <path class="cls-12" d="M390.5,2876.9c5.4,0,9.9-4.4,9.9-9.9s-4.4-9.9-9.9-9.9-9.9,4.4-9.9,9.9,4.4,9.9,9.9,9.9Z"/>
          <path class="cls-12" d="M457.6,2876.9c5.4,0,9.9-4.4,9.9-9.9s-4.4-9.9-9.9-9.9-9.9,4.4-9.9,9.9,4.4,9.9,9.9,9.9Z"/>
          <path class="cls-12" d="M524.6,2876.9c5.4,0,9.9-4.4,9.9-9.9s-4.4-9.9-9.9-9.9-9.9,4.4-9.9,9.9,4.4,9.9,9.9,9.9Z"/>
          <path class="cls-12" d="M591.7,2876.9c5.4,0,9.9-4.4,9.9-9.9s-4.4-9.9-9.9-9.9-9.9,4.4-9.9,9.9,4.4,9.9,9.9,9.9Z"/>
          <path class="cls-12" d="M658.8,2876.9c5.4,0,9.9-4.4,9.9-9.9s-4.4-9.9-9.9-9.9-9.9,4.4-9.9,9.9,4.4,9.9,9.9,9.9Z"/>
          <path class="cls-12" d="M725.8,2876.9c5.4,0,9.9-4.4,9.9-9.9s-4.4-9.9-9.9-9.9-9.9,4.4-9.9,9.9,4.4,9.9,9.9,9.9Z"/>
          <path class="cls-12" d="M792.9,2876.9c5.4,0,9.9-4.4,9.9-9.9s-4.4-9.9-9.9-9.9-9.9,4.4-9.9,9.9,4.4,9.9,9.9,9.9Z"/>
          <path class="cls-12" d="M859.9,2876.9c5.4,0,9.9-4.4,9.9-9.9s-4.4-9.9-9.9-9.9-9.9,4.4-9.9,9.9,4.4,9.9,9.9,9.9Z"/>
          <path class="cls-12" d="M927,2876.9c5.4,0,9.9-4.4,9.9-9.9s-4.4-9.9-9.9-9.9-9.9,4.4-9.9,9.9,4.4,9.9,9.9,9.9Z"/>
          <path class="cls-12" d="M994.1,2876.9c5.4,0,9.9-4.4,9.9-9.9s-4.4-9.9-9.9-9.9-9.9,4.4-9.9,9.9,4.4,9.9,9.9,9.9Z"/>
          <path class="cls-12" d="M1061.1,2876.9c5.4,0,9.9-4.4,9.9-9.9s-4.4-9.9-9.9-9.9-9.9,4.4-9.9,9.9,4.4,9.9,9.9,9.9Z"/>
          <path class="cls-12" d="M1128.2,2876.9c5.4,0,9.9-4.4,9.9-9.9s-4.4-9.9-9.9-9.9-9.9,4.4-9.9,9.9,4.4,9.9,9.9,9.9Z"/>
          <path class="cls-12" d="M1195.2,2876.9c5.4,0,9.9-4.4,9.9-9.9s-4.4-9.9-9.9-9.9-9.9,4.4-9.9,9.9,4.4,9.9,9.9,9.9Z"/>
          <circle class="cls-12" cx="55.2" cy="2934.1" r="9.9"/>
          <circle class="cls-12" cx="123.1" cy="2934.1" r="9.9" transform="translate(-60.6 3.2) rotate(-1.2)"/>
          <path class="cls-12" d="M189.3,2943.9c5.4,0,9.9-4.4,9.9-9.9s-4.4-9.9-9.9-9.9-9.9,4.4-9.9,9.9,4.4,9.9,9.9,9.9Z"/>
          <circle class="cls-12" cx="256.4" cy="2934.1" r="9.9"/>
          <path class="cls-12" d="M323.5,2943.9c5.4,0,9.9-4.4,9.9-9.9s-4.4-9.9-9.9-9.9-9.9,4.4-9.9,9.9,4.4,9.9,9.9,9.9Z"/>
          <circle class="cls-12" cx="390.5" cy="2934.1" r="9.9"/>
          <circle class="cls-12" cx="457.6" cy="2934.1" r="9.9"/>
          <circle class="cls-12" cx="524.6" cy="2934.1" r="9.9"/>
          <circle class="cls-12" cx="590.8" cy="2934.7" r="9.9" transform="translate(-1065.1 440.8) rotate(-22.2)"/>
          <circle class="cls-12" cx="658.8" cy="2934.1" r="9.9"/>
          <circle class="cls-12" cx="725.8" cy="2934.1" r="9.9"/>
          <path class="cls-12" d="M792.9,2943.9c5.4,0,9.9-4.4,9.9-9.9s-4.4-9.9-9.9-9.9-9.9,4.4-9.9,9.9,4.4,9.9,9.9,9.9Z"/>
          <circle class="cls-12" cx="859.9" cy="2934.1" r="9.9"/>
          <path class="cls-12" d="M927,2943.9c5.4,0,9.9-4.4,9.9-9.9s-4.4-9.9-9.9-9.9-9.9,4.4-9.9,9.9,4.4,9.9,9.9,9.9Z"/>
          <circle class="cls-12" cx="994.1" cy="2934.1" r="9.9"/>
          <circle class="cls-12" cx="1061.1" cy="2934.1" r="9.9"/>
          <circle class="cls-12" cx="1128.6" cy="2933.8" r="9.9" transform="translate(-459.3 220.9) rotate(-9.3)"/>
          <circle class="cls-12" cx="1195.2" cy="2934.1" r="9.9"/>
          <path class="cls-12" d="M55.2,3011c5.4,0,9.9-4.4,9.9-9.9s-4.4-9.9-9.9-9.9-9.9,4.4-9.9,9.9,4.4,9.9,9.9,9.9Z"/>
          <path class="cls-12" d="M122.3,3011c5.4,0,9.9-4.4,9.9-9.9s-4.4-9.9-9.9-9.9-9.9,4.4-9.9,9.9,4.4,9.9,9.9,9.9Z"/>
          <path class="cls-12" d="M189.3,3011c5.4,0,9.9-4.4,9.9-9.9s-4.4-9.9-9.9-9.9-9.9,4.4-9.9,9.9,4.4,9.9,9.9,9.9Z"/>
          <path class="cls-12" d="M256.4,3011c5.4,0,9.9-4.4,9.9-9.9s-4.4-9.9-9.9-9.9-9.9,4.4-9.9,9.9,4.4,9.9,9.9,9.9Z"/>
          <path class="cls-12" d="M323.5,3011c5.4,0,9.9-4.4,9.9-9.9s-4.4-9.9-9.9-9.9-9.9,4.4-9.9,9.9,4.4,9.9,9.9,9.9Z"/>
          <path class="cls-12" d="M390.5,3011c5.4,0,9.9-4.4,9.9-9.9s-4.4-9.9-9.9-9.9-9.9,4.4-9.9,9.9,4.4,9.9,9.9,9.9Z"/>
          <path class="cls-12" d="M457.6,3011c5.4,0,9.9-4.4,9.9-9.9s-4.4-9.9-9.9-9.9-9.9,4.4-9.9,9.9,4.4,9.9,9.9,9.9Z"/>
          <path class="cls-12" d="M524.6,3011c5.4,0,9.9-4.4,9.9-9.9s-4.4-9.9-9.9-9.9-9.9,4.4-9.9,9.9,4.4,9.9,9.9,9.9Z"/>
          <path class="cls-12" d="M591.7,3011c5.4,0,9.9-4.4,9.9-9.9s-4.4-9.9-9.9-9.9-9.9,4.4-9.9,9.9,4.4,9.9,9.9,9.9Z"/>
          <path class="cls-12" d="M658.8,3011c5.4,0,9.9-4.4,9.9-9.9s-4.4-9.9-9.9-9.9-9.9,4.4-9.9,9.9,4.4,9.9,9.9,9.9Z"/>
          <path class="cls-12" d="M725.8,3011c5.4,0,9.9-4.4,9.9-9.9s-4.4-9.9-9.9-9.9-9.9,4.4-9.9,9.9,4.4,9.9,9.9,9.9Z"/>
          <path class="cls-12" d="M792.9,3011c5.4,0,9.9-4.4,9.9-9.9s-4.4-9.9-9.9-9.9-9.9,4.4-9.9,9.9,4.4,9.9,9.9,9.9Z"/>
          <path class="cls-12" d="M859.9,3011c5.4,0,9.9-4.4,9.9-9.9s-4.4-9.9-9.9-9.9-9.9,4.4-9.9,9.9,4.4,9.9,9.9,9.9Z"/>
          <path class="cls-12" d="M927,3011c5.4,0,9.9-4.4,9.9-9.9s-4.4-9.9-9.9-9.9-9.9,4.4-9.9,9.9,4.4,9.9,9.9,9.9Z"/>
          <path class="cls-12" d="M994.1,3011c5.4,0,9.9-4.4,9.9-9.9s-4.4-9.9-9.9-9.9-9.9,4.4-9.9,9.9,4.4,9.9,9.9,9.9Z"/>
          <path class="cls-12" d="M1061.1,3011c5.4,0,9.9-4.4,9.9-9.9s-4.4-9.9-9.9-9.9-9.9,4.4-9.9,9.9,4.4,9.9,9.9,9.9Z"/>
          <path class="cls-12" d="M1128.2,3011c5.4,0,9.9-4.4,9.9-9.9s-4.4-9.9-9.9-9.9-9.9,4.4-9.9,9.9,4.4,9.9,9.9,9.9Z"/>
          <path class="cls-12" d="M1195.2,3011c5.4,0,9.9-4.4,9.9-9.9s-4.4-9.9-9.9-9.9-9.9,4.4-9.9,9.9,4.4,9.9,9.9,9.9Z"/>
          <circle class="cls-12" cx="55.2" cy="3068.2" r="9.9"/>
          <circle class="cls-12" cx="123.1" cy="3068.2" r="9.9" transform="translate(-63.4 3.2) rotate(-1.2)"/>
          <path class="cls-12" d="M189.3,3078.1c5.4,0,9.9-4.4,9.9-9.9s-4.4-9.9-9.9-9.9-9.9,4.4-9.9,9.9,4.4,9.9,9.9,9.9Z"/>
          <circle class="cls-12" cx="256.4" cy="3068.2" r="9.9"/>
          <path class="cls-12" d="M323.5,3078.1c5.4,0,9.9-4.4,9.9-9.9s-4.4-9.9-9.9-9.9-9.9,4.4-9.9,9.9,4.4,9.9,9.9,9.9Z"/>
          <circle class="cls-12" cx="390.5" cy="3068.2" r="9.9"/>
          <circle class="cls-12" cx="457.6" cy="3068.2" r="9.9"/>
          <circle class="cls-12" cx="524.6" cy="3068.2" r="9.9"/>
          <circle class="cls-12" cx="590.7" cy="3068.8" r="9.9" transform="translate(-1115.7 450.7) rotate(-22.2)"/>
          <circle class="cls-12" cx="658.8" cy="3068.2" r="9.9"/>
          <circle class="cls-12" cx="725.8" cy="3068.2" r="9.9"/>
          <path class="cls-12" d="M792.9,3078.1c5.4,0,9.9-4.4,9.9-9.9s-4.4-9.9-9.9-9.9-9.9,4.4-9.9,9.9,4.4,9.9,9.9,9.9Z"/>
          <circle class="cls-12" cx="859.9" cy="3068.2" r="9.9"/>
          <path class="cls-12" d="M927,3078.1c5.4,0,9.9-4.4,9.9-9.9s-4.4-9.9-9.9-9.9-9.9,4.4-9.9,9.9,4.4,9.9,9.9,9.9Z"/>
          <circle class="cls-12" cx="994.1" cy="3068.2" r="9.9"/>
          <circle class="cls-12" cx="1061.1" cy="3068.2" r="9.9"/>
          <circle class="cls-12" cx="1128.6" cy="3068" r="9.9" transform="translate(-481 222.7) rotate(-9.3)"/>
          <circle class="cls-12" cx="1195.2" cy="3068.2" r="9.9"/>
          <path class="cls-12" d="M55.2,3145.1c5.4,0,9.9-4.4,9.9-9.9s-4.4-9.9-9.9-9.9-9.9,4.4-9.9,9.9,4.4,9.9,9.9,9.9Z"/>
          <path class="cls-12" d="M122.3,3145.1c5.4,0,9.9-4.4,9.9-9.9s-4.4-9.9-9.9-9.9-9.9,4.4-9.9,9.9,4.4,9.9,9.9,9.9Z"/>
          <path class="cls-12" d="M189.3,3145.1c5.4,0,9.9-4.4,9.9-9.9s-4.4-9.9-9.9-9.9-9.9,4.4-9.9,9.9,4.4,9.9,9.9,9.9Z"/>
          <path class="cls-12" d="M256.4,3145.1c5.4,0,9.9-4.4,9.9-9.9s-4.4-9.9-9.9-9.9-9.9,4.4-9.9,9.9,4.4,9.9,9.9,9.9Z"/>
          <path class="cls-12" d="M323.5,3145.1c5.4,0,9.9-4.4,9.9-9.9s-4.4-9.9-9.9-9.9-9.9,4.4-9.9,9.9,4.4,9.9,9.9,9.9Z"/>
          <path class="cls-12" d="M390.5,3145.1c5.4,0,9.9-4.4,9.9-9.9s-4.4-9.9-9.9-9.9-9.9,4.4-9.9,9.9,4.4,9.9,9.9,9.9Z"/>
          <path class="cls-12" d="M457.6,3145.1c5.4,0,9.9-4.4,9.9-9.9s-4.4-9.9-9.9-9.9-9.9,4.4-9.9,9.9,4.4,9.9,9.9,9.9Z"/>
          <path class="cls-12" d="M524.6,3145.1c5.4,0,9.9-4.4,9.9-9.9s-4.4-9.9-9.9-9.9-9.9,4.4-9.9,9.9,4.4,9.9,9.9,9.9Z"/>
          <path class="cls-12" d="M591.7,3145.1c5.4,0,9.9-4.4,9.9-9.9s-4.4-9.9-9.9-9.9-9.9,4.4-9.9,9.9,4.4,9.9,9.9,9.9Z"/>
          <path class="cls-12" d="M658.8,3145.1c5.4,0,9.9-4.4,9.9-9.9s-4.4-9.9-9.9-9.9-9.9,4.4-9.9,9.9,4.4,9.9,9.9,9.9Z"/>
          <path class="cls-12" d="M725.8,3145.1c5.4,0,9.9-4.4,9.9-9.9s-4.4-9.9-9.9-9.9-9.9,4.4-9.9,9.9,4.4,9.9,9.9,9.9Z"/>
          <path class="cls-12" d="M792.9,3145.1c5.4,0,9.9-4.4,9.9-9.9s-4.4-9.9-9.9-9.9-9.9,4.4-9.9,9.9,4.4,9.9,9.9,9.9Z"/>
          <path class="cls-12" d="M859.9,3145.1c5.4,0,9.9-4.4,9.9-9.9s-4.4-9.9-9.9-9.9-9.9,4.4-9.9,9.9,4.4,9.9,9.9,9.9Z"/>
          <path class="cls-12" d="M927,3145.1c5.4,0,9.9-4.4,9.9-9.9s-4.4-9.9-9.9-9.9-9.9,4.4-9.9,9.9,4.4,9.9,9.9,9.9Z"/>
          <path class="cls-12" d="M994.1,3145.1c5.4,0,9.9-4.4,9.9-9.9s-4.4-9.9-9.9-9.9-9.9,4.4-9.9,9.9,4.4,9.9,9.9,9.9Z"/>
          <path class="cls-12" d="M1061.1,3145.1c5.4,0,9.9-4.4,9.9-9.9s-4.4-9.9-9.9-9.9-9.9,4.4-9.9,9.9,4.4,9.9,9.9,9.9Z"/>
          <path class="cls-12" d="M1128.2,3145.1c5.4,0,9.9-4.4,9.9-9.9s-4.4-9.9-9.9-9.9-9.9,4.4-9.9,9.9,4.4,9.9,9.9,9.9Z"/>
          <path class="cls-12" d="M1195.2,3145.1c5.4,0,9.9-4.4,9.9-9.9s-4.4-9.9-9.9-9.9-9.9,4.4-9.9,9.9,4.4,9.9,9.9,9.9Z"/>
        </g>
        <g class="cls-17">
          <path class="cls-12" d="M5146.1,756.5c5.4,0,9.9-4.4,9.9-9.9s-4.4-9.9-9.9-9.9-9.9,4.4-9.9,9.9,4.4,9.9,9.9,9.9Z"/>
          <path class="cls-12" d="M5213.2,756.5c5.4,0,9.9-4.4,9.9-9.9s-4.4-9.9-9.9-9.9-9.9,4.4-9.9,9.9,4.4,9.9,9.9,9.9Z"/>
          <path class="cls-12" d="M5280.2,756.5c5.4,0,9.9-4.4,9.9-9.9s-4.4-9.9-9.9-9.9-9.9,4.4-9.9,9.9,4.4,9.9,9.9,9.9Z"/>
          <path class="cls-12" d="M5347.3,756.5c5.4,0,9.9-4.4,9.9-9.9s-4.4-9.9-9.9-9.9-9.9,4.4-9.9,9.9,4.4,9.9,9.9,9.9Z"/>
          <path class="cls-12" d="M5414.4,756.5c5.4,0,9.9-4.4,9.9-9.9s-4.4-9.9-9.9-9.9-9.9,4.4-9.9,9.9,4.4,9.9,9.9,9.9Z"/>
          <path class="cls-12" d="M5481.4,756.5c5.4,0,9.9-4.4,9.9-9.9s-4.4-9.9-9.9-9.9-9.9,4.4-9.9,9.9,4.4,9.9,9.9,9.9Z"/>
          <path class="cls-12" d="M5548.5,756.5c5.4,0,9.9-4.4,9.9-9.9s-4.4-9.9-9.9-9.9-9.9,4.4-9.9,9.9,4.4,9.9,9.9,9.9Z"/>
          <path class="cls-12" d="M5146.1,823.6c5.4,0,9.9-4.4,9.9-9.9s-4.4-9.9-9.9-9.9-9.9,4.4-9.9,9.9,4.4,9.9,9.9,9.9Z"/>
          <path class="cls-12" d="M5213.2,823.6c5.4,0,9.9-4.4,9.9-9.9s-4.4-9.9-9.9-9.9-9.9,4.4-9.9,9.9,4.4,9.9,9.9,9.9Z"/>
          <path class="cls-12" d="M5280.2,823.6c5.4,0,9.9-4.4,9.9-9.9s-4.4-9.9-9.9-9.9-9.9,4.4-9.9,9.9,4.4,9.9,9.9,9.9Z"/>
          <path class="cls-12" d="M5347.3,823.6c5.4,0,9.9-4.4,9.9-9.9s-4.4-9.9-9.9-9.9-9.9,4.4-9.9,9.9,4.4,9.9,9.9,9.9Z"/>
          <path class="cls-12" d="M5414.4,823.6c5.4,0,9.9-4.4,9.9-9.9s-4.4-9.9-9.9-9.9-9.9,4.4-9.9,9.9,4.4,9.9,9.9,9.9Z"/>
          <path class="cls-12" d="M5481.4,823.6c5.4,0,9.9-4.4,9.9-9.9s-4.4-9.9-9.9-9.9-9.9,4.4-9.9,9.9,4.4,9.9,9.9,9.9Z"/>
          <path class="cls-12" d="M5548.5,823.6c5.4,0,9.9-4.4,9.9-9.9s-4.4-9.9-9.9-9.9-9.9,4.4-9.9,9.9,4.4,9.9,9.9,9.9Z"/>
          <path class="cls-12" d="M5146.1,890.6c5.4,0,9.9-4.4,9.9-9.9s-4.4-9.9-9.9-9.9-9.9,4.4-9.9,9.9,4.4,9.9,9.9,9.9Z"/>
          <path class="cls-12" d="M5213.2,890.6c5.4,0,9.9-4.4,9.9-9.9s-4.4-9.9-9.9-9.9-9.9,4.4-9.9,9.9,4.4,9.9,9.9,9.9Z"/>
          <path class="cls-12" d="M5280.2,890.6c5.4,0,9.9-4.4,9.9-9.9s-4.4-9.9-9.9-9.9-9.9,4.4-9.9,9.9,4.4,9.9,9.9,9.9Z"/>
          <path class="cls-12" d="M5347.3,890.6c5.4,0,9.9-4.4,9.9-9.9s-4.4-9.9-9.9-9.9-9.9,4.4-9.9,9.9,4.4,9.9,9.9,9.9Z"/>
          <path class="cls-12" d="M5414.4,890.6c5.4,0,9.9-4.4,9.9-9.9s-4.4-9.9-9.9-9.9-9.9,4.4-9.9,9.9,4.4,9.9,9.9,9.9Z"/>
          <path class="cls-12" d="M5481.4,890.6c5.4,0,9.9-4.4,9.9-9.9s-4.4-9.9-9.9-9.9-9.9,4.4-9.9,9.9,4.4,9.9,9.9,9.9Z"/>
          <path class="cls-12" d="M5548.5,890.6c5.4,0,9.9-4.4,9.9-9.9s-4.4-9.9-9.9-9.9-9.9,4.4-9.9,9.9,4.4,9.9,9.9,9.9Z"/>
          <path class="cls-12" d="M5146.1,957.7c5.4,0,9.9-4.4,9.9-9.9s-4.4-9.9-9.9-9.9-9.9,4.4-9.9,9.9,4.4,9.9,9.9,9.9Z"/>
          <path class="cls-12" d="M5213.2,957.7c5.4,0,9.9-4.4,9.9-9.9s-4.4-9.9-9.9-9.9-9.9,4.4-9.9,9.9,4.4,9.9,9.9,9.9Z"/>
          <path class="cls-12" d="M5280.2,957.7c5.4,0,9.9-4.4,9.9-9.9s-4.4-9.9-9.9-9.9-9.9,4.4-9.9,9.9,4.4,9.9,9.9,9.9Z"/>
          <path class="cls-12" d="M5347.3,957.7c5.4,0,9.9-4.4,9.9-9.9s-4.4-9.9-9.9-9.9-9.9,4.4-9.9,9.9,4.4,9.9,9.9,9.9Z"/>
          <path class="cls-12" d="M5414.4,957.7c5.4,0,9.9-4.4,9.9-9.9s-4.4-9.9-9.9-9.9-9.9,4.4-9.9,9.9,4.4,9.9,9.9,9.9Z"/>
          <path class="cls-12" d="M5481.4,957.7c5.4,0,9.9-4.4,9.9-9.9s-4.4-9.9-9.9-9.9-9.9,4.4-9.9,9.9,4.4,9.9,9.9,9.9Z"/>
          <path class="cls-12" d="M5548.5,957.7c5.4,0,9.9-4.4,9.9-9.9s-4.4-9.9-9.9-9.9-9.9,4.4-9.9,9.9,4.4,9.9,9.9,9.9Z"/>
          <path class="cls-12" d="M5146.1,1024.7c5.4,0,9.9-4.4,9.9-9.9s-4.4-9.9-9.9-9.9-9.9,4.4-9.9,9.9,4.4,9.9,9.9,9.9Z"/>
          <path class="cls-12" d="M5213.2,1024.7c5.4,0,9.9-4.4,9.9-9.9s-4.4-9.9-9.9-9.9-9.9,4.4-9.9,9.9,4.4,9.9,9.9,9.9Z"/>
          <path class="cls-12" d="M5280.2,1024.7c5.4,0,9.9-4.4,9.9-9.9s-4.4-9.9-9.9-9.9-9.9,4.4-9.9,9.9,4.4,9.9,9.9,9.9Z"/>
          <path class="cls-12" d="M5347.3,1024.7c5.4,0,9.9-4.4,9.9-9.9s-4.4-9.9-9.9-9.9-9.9,4.4-9.9,9.9,4.4,9.9,9.9,9.9Z"/>
          <path class="cls-12" d="M5414.4,1024.7c5.4,0,9.9-4.4,9.9-9.9s-4.4-9.9-9.9-9.9-9.9,4.4-9.9,9.9,4.4,9.9,9.9,9.9Z"/>
          <path class="cls-12" d="M5481.4,1024.7c5.4,0,9.9-4.4,9.9-9.9s-4.4-9.9-9.9-9.9-9.9,4.4-9.9,9.9,4.4,9.9,9.9,9.9Z"/>
          <path class="cls-12" d="M5548.5,1024.7c5.4,0,9.9-4.4,9.9-9.9s-4.4-9.9-9.9-9.9-9.9,4.4-9.9,9.9,4.4,9.9,9.9,9.9Z"/>
          <path class="cls-12" d="M5146.1,1091.8c5.4,0,9.9-4.4,9.9-9.9s-4.4-9.9-9.9-9.9-9.9,4.4-9.9,9.9,4.4,9.9,9.9,9.9Z"/>
          <path class="cls-12" d="M5213.2,1091.8c5.4,0,9.9-4.4,9.9-9.9s-4.4-9.9-9.9-9.9-9.9,4.4-9.9,9.9,4.4,9.9,9.9,9.9Z"/>
          <path class="cls-12" d="M5280.2,1091.8c5.4,0,9.9-4.4,9.9-9.9s-4.4-9.9-9.9-9.9-9.9,4.4-9.9,9.9,4.4,9.9,9.9,9.9Z"/>
          <path class="cls-12" d="M5347.3,1091.8c5.4,0,9.9-4.4,9.9-9.9s-4.4-9.9-9.9-9.9-9.9,4.4-9.9,9.9,4.4,9.9,9.9,9.9Z"/>
          <path class="cls-12" d="M5414.4,1091.8c5.4,0,9.9-4.4,9.9-9.9s-4.4-9.9-9.9-9.9-9.9,4.4-9.9,9.9,4.4,9.9,9.9,9.9Z"/>
          <path class="cls-12" d="M5481.4,1091.8c5.4,0,9.9-4.4,9.9-9.9s-4.4-9.9-9.9-9.9-9.9,4.4-9.9,9.9,4.4,9.9,9.9,9.9Z"/>
          <path class="cls-12" d="M5548.5,1091.8c5.4,0,9.9-4.4,9.9-9.9s-4.4-9.9-9.9-9.9-9.9,4.4-9.9,9.9,4.4,9.9,9.9,9.9Z"/>
          <path class="cls-12" d="M5146.1,1158.9c5.4,0,9.9-4.4,9.9-9.9s-4.4-9.9-9.9-9.9-9.9,4.4-9.9,9.9,4.4,9.9,9.9,9.9Z"/>
          <path class="cls-12" d="M5213.2,1158.9c5.4,0,9.9-4.4,9.9-9.9s-4.4-9.9-9.9-9.9-9.9,4.4-9.9,9.9,4.4,9.9,9.9,9.9Z"/>
          <path class="cls-12" d="M5280.2,1158.9c5.4,0,9.9-4.4,9.9-9.9s-4.4-9.9-9.9-9.9-9.9,4.4-9.9,9.9,4.4,9.9,9.9,9.9Z"/>
          <path class="cls-12" d="M5347.3,1158.9c5.4,0,9.9-4.4,9.9-9.9s-4.4-9.9-9.9-9.9-9.9,4.4-9.9,9.9,4.4,9.9,9.9,9.9Z"/>
          <path class="cls-12" d="M5414.4,1158.9c5.4,0,9.9-4.4,9.9-9.9s-4.4-9.9-9.9-9.9-9.9,4.4-9.9,9.9,4.4,9.9,9.9,9.9Z"/>
          <path class="cls-12" d="M5481.4,1158.9c5.4,0,9.9-4.4,9.9-9.9s-4.4-9.9-9.9-9.9-9.9,4.4-9.9,9.9,4.4,9.9,9.9,9.9Z"/>
          <path class="cls-12" d="M5548.5,1158.9c5.4,0,9.9-4.4,9.9-9.9s-4.4-9.9-9.9-9.9-9.9,4.4-9.9,9.9,4.4,9.9,9.9,9.9Z"/>
          <path class="cls-12" d="M5146.1,1225.9c5.4,0,9.9-4.4,9.9-9.9s-4.4-9.9-9.9-9.9-9.9,4.4-9.9,9.9,4.4,9.9,9.9,9.9Z"/>
          <path class="cls-12" d="M5213.2,1225.9c5.4,0,9.9-4.4,9.9-9.9s-4.4-9.9-9.9-9.9-9.9,4.4-9.9,9.9,4.4,9.9,9.9,9.9Z"/>
          <path class="cls-12" d="M5280.2,1225.9c5.4,0,9.9-4.4,9.9-9.9s-4.4-9.9-9.9-9.9-9.9,4.4-9.9,9.9,4.4,9.9,9.9,9.9Z"/>
          <path class="cls-12" d="M5347.3,1225.9c5.4,0,9.9-4.4,9.9-9.9s-4.4-9.9-9.9-9.9-9.9,4.4-9.9,9.9,4.4,9.9,9.9,9.9Z"/>
          <path class="cls-12" d="M5414.4,1225.9c5.4,0,9.9-4.4,9.9-9.9s-4.4-9.9-9.9-9.9-9.9,4.4-9.9,9.9,4.4,9.9,9.9,9.9Z"/>
          <path class="cls-12" d="M5481.4,1225.9c5.4,0,9.9-4.4,9.9-9.9s-4.4-9.9-9.9-9.9-9.9,4.4-9.9,9.9,4.4,9.9,9.9,9.9Z"/>
          <path class="cls-12" d="M5548.5,1225.9c5.4,0,9.9-4.4,9.9-9.9s-4.4-9.9-9.9-9.9-9.9,4.4-9.9,9.9,4.4,9.9,9.9,9.9Z"/>
          <path class="cls-12" d="M5146.1,1293c5.4,0,9.9-4.4,9.9-9.9s-4.4-9.9-9.9-9.9-9.9,4.4-9.9,9.9,4.4,9.9,9.9,9.9Z"/>
          <path class="cls-12" d="M5213.2,1293c5.4,0,9.9-4.4,9.9-9.9s-4.4-9.9-9.9-9.9-9.9,4.4-9.9,9.9,4.4,9.9,9.9,9.9Z"/>
          <path class="cls-12" d="M5280.2,1293c5.4,0,9.9-4.4,9.9-9.9s-4.4-9.9-9.9-9.9-9.9,4.4-9.9,9.9,4.4,9.9,9.9,9.9Z"/>
          <path class="cls-12" d="M5347.3,1293c5.4,0,9.9-4.4,9.9-9.9s-4.4-9.9-9.9-9.9-9.9,4.4-9.9,9.9,4.4,9.9,9.9,9.9Z"/>
          <path class="cls-12" d="M5414.4,1293c5.4,0,9.9-4.4,9.9-9.9s-4.4-9.9-9.9-9.9-9.9,4.4-9.9,9.9,4.4,9.9,9.9,9.9Z"/>
          <path class="cls-12" d="M5481.4,1293c5.4,0,9.9-4.4,9.9-9.9s-4.4-9.9-9.9-9.9-9.9,4.4-9.9,9.9,4.4,9.9,9.9,9.9Z"/>
          <path class="cls-12" d="M5548.5,1293c5.4,0,9.9-4.4,9.9-9.9s-4.4-9.9-9.9-9.9-9.9,4.4-9.9,9.9,4.4,9.9,9.9,9.9Z"/>
          <path class="cls-12" d="M5146.1,1360c5.4,0,9.9-4.4,9.9-9.9s-4.4-9.9-9.9-9.9-9.9,4.4-9.9,9.9,4.4,9.9,9.9,9.9Z"/>
          <path class="cls-12" d="M5213.2,1360c5.4,0,9.9-4.4,9.9-9.9s-4.4-9.9-9.9-9.9-9.9,4.4-9.9,9.9,4.4,9.9,9.9,9.9Z"/>
          <path class="cls-12" d="M5280.2,1360c5.4,0,9.9-4.4,9.9-9.9s-4.4-9.9-9.9-9.9-9.9,4.4-9.9,9.9,4.4,9.9,9.9,9.9Z"/>
          <path class="cls-12" d="M5347.3,1360c5.4,0,9.9-4.4,9.9-9.9s-4.4-9.9-9.9-9.9-9.9,4.4-9.9,9.9,4.4,9.9,9.9,9.9Z"/>
          <path class="cls-12" d="M5414.4,1360c5.4,0,9.9-4.4,9.9-9.9s-4.4-9.9-9.9-9.9-9.9,4.4-9.9,9.9,4.4,9.9,9.9,9.9Z"/>
          <path class="cls-12" d="M5481.4,1360c5.4,0,9.9-4.4,9.9-9.9s-4.4-9.9-9.9-9.9-9.9,4.4-9.9,9.9,4.4,9.9,9.9,9.9Z"/>
          <path class="cls-12" d="M5548.5,1360c5.4,0,9.9-4.4,9.9-9.9s-4.4-9.9-9.9-9.9-9.9,4.4-9.9,9.9,4.4,9.9,9.9,9.9Z"/>
          <path class="cls-12" d="M5146.1,1427.1c5.4,0,9.9-4.4,9.9-9.9s-4.4-9.9-9.9-9.9-9.9,4.4-9.9,9.9,4.4,9.9,9.9,9.9Z"/>
          <path class="cls-12" d="M5213.2,1427.1c5.4,0,9.9-4.4,9.9-9.9s-4.4-9.9-9.9-9.9-9.9,4.4-9.9,9.9,4.4,9.9,9.9,9.9Z"/>
          <path class="cls-12" d="M5280.2,1427.1c5.4,0,9.9-4.4,9.9-9.9s-4.4-9.9-9.9-9.9-9.9,4.4-9.9,9.9,4.4,9.9,9.9,9.9Z"/>
          <path class="cls-12" d="M5347.3,1427.1c5.4,0,9.9-4.4,9.9-9.9s-4.4-9.9-9.9-9.9-9.9,4.4-9.9,9.9,4.4,9.9,9.9,9.9Z"/>
          <path class="cls-12" d="M5414.4,1427.1c5.4,0,9.9-4.4,9.9-9.9s-4.4-9.9-9.9-9.9-9.9,4.4-9.9,9.9,4.4,9.9,9.9,9.9Z"/>
          <path class="cls-12" d="M5481.4,1427.1c5.4,0,9.9-4.4,9.9-9.9s-4.4-9.9-9.9-9.9-9.9,4.4-9.9,9.9,4.4,9.9,9.9,9.9Z"/>
          <path class="cls-12" d="M5548.5,1427.1c5.4,0,9.9-4.4,9.9-9.9s-4.4-9.9-9.9-9.9-9.9,4.4-9.9,9.9,4.4,9.9,9.9,9.9Z"/>
          <path class="cls-12" d="M5146.1,1494.2c5.4,0,9.9-4.4,9.9-9.9s-4.4-9.9-9.9-9.9-9.9,4.4-9.9,9.9,4.4,9.9,9.9,9.9Z"/>
          <path class="cls-12" d="M5213.2,1494.2c5.4,0,9.9-4.4,9.9-9.9s-4.4-9.9-9.9-9.9-9.9,4.4-9.9,9.9,4.4,9.9,9.9,9.9Z"/>
          <path class="cls-12" d="M5280.2,1494.2c5.4,0,9.9-4.4,9.9-9.9s-4.4-9.9-9.9-9.9-9.9,4.4-9.9,9.9,4.4,9.9,9.9,9.9Z"/>
          <path class="cls-12" d="M5347.3,1494.2c5.4,0,9.9-4.4,9.9-9.9s-4.4-9.9-9.9-9.9-9.9,4.4-9.9,9.9,4.4,9.9,9.9,9.9Z"/>
          <path class="cls-12" d="M5414.4,1494.2c5.4,0,9.9-4.4,9.9-9.9s-4.4-9.9-9.9-9.9-9.9,4.4-9.9,9.9,4.4,9.9,9.9,9.9Z"/>
          <path class="cls-12" d="M5481.4,1494.2c5.4,0,9.9-4.4,9.9-9.9s-4.4-9.9-9.9-9.9-9.9,4.4-9.9,9.9,4.4,9.9,9.9,9.9Z"/>
          <path class="cls-12" d="M5548.5,1494.2c5.4,0,9.9-4.4,9.9-9.9s-4.4-9.9-9.9-9.9-9.9,4.4-9.9,9.9,4.4,9.9,9.9,9.9Z"/>
          <path class="cls-12" d="M5146.1,1561.2c5.4,0,9.9-4.4,9.9-9.9s-4.4-9.9-9.9-9.9-9.9,4.4-9.9,9.9,4.4,9.9,9.9,9.9Z"/>
          <path class="cls-12" d="M5213.2,1561.2c5.4,0,9.9-4.4,9.9-9.9s-4.4-9.9-9.9-9.9-9.9,4.4-9.9,9.9,4.4,9.9,9.9,9.9Z"/>
          <path class="cls-12" d="M5280.2,1561.2c5.4,0,9.9-4.4,9.9-9.9s-4.4-9.9-9.9-9.9-9.9,4.4-9.9,9.9,4.4,9.9,9.9,9.9Z"/>
          <path class="cls-12" d="M5347.3,1561.2c5.4,0,9.9-4.4,9.9-9.9s-4.4-9.9-9.9-9.9-9.9,4.4-9.9,9.9,4.4,9.9,9.9,9.9Z"/>
          <path class="cls-12" d="M5414.4,1561.2c5.4,0,9.9-4.4,9.9-9.9s-4.4-9.9-9.9-9.9-9.9,4.4-9.9,9.9,4.4,9.9,9.9,9.9Z"/>
          <path class="cls-12" d="M5481.4,1561.2c5.4,0,9.9-4.4,9.9-9.9s-4.4-9.9-9.9-9.9-9.9,4.4-9.9,9.9,4.4,9.9,9.9,9.9Z"/>
          <path class="cls-12" d="M5548.5,1561.2c5.4,0,9.9-4.4,9.9-9.9s-4.4-9.9-9.9-9.9-9.9,4.4-9.9,9.9,4.4,9.9,9.9,9.9Z"/>
          <path class="cls-12" d="M5146.1,1628.3c5.4,0,9.9-4.4,9.9-9.9s-4.4-9.9-9.9-9.9-9.9,4.4-9.9,9.9,4.4,9.9,9.9,9.9Z"/>
          <path class="cls-12" d="M5213.2,1628.3c5.4,0,9.9-4.4,9.9-9.9s-4.4-9.9-9.9-9.9-9.9,4.4-9.9,9.9,4.4,9.9,9.9,9.9Z"/>
          <path class="cls-12" d="M5280.2,1628.3c5.4,0,9.9-4.4,9.9-9.9s-4.4-9.9-9.9-9.9-9.9,4.4-9.9,9.9,4.4,9.9,9.9,9.9Z"/>
          <path class="cls-12" d="M5347.3,1628.3c5.4,0,9.9-4.4,9.9-9.9s-4.4-9.9-9.9-9.9-9.9,4.4-9.9,9.9,4.4,9.9,9.9,9.9Z"/>
          <path class="cls-12" d="M5414.4,1628.3c5.4,0,9.9-4.4,9.9-9.9s-4.4-9.9-9.9-9.9-9.9,4.4-9.9,9.9,4.4,9.9,9.9,9.9Z"/>
          <path class="cls-12" d="M5481.4,1628.3c5.4,0,9.9-4.4,9.9-9.9s-4.4-9.9-9.9-9.9-9.9,4.4-9.9,9.9,4.4,9.9,9.9,9.9Z"/>
          <path class="cls-12" d="M5548.5,1628.3c5.4,0,9.9-4.4,9.9-9.9s-4.4-9.9-9.9-9.9-9.9,4.4-9.9,9.9,4.4,9.9,9.9,9.9Z"/>
          <path class="cls-12" d="M5146.1,1695.3c5.4,0,9.9-4.4,9.9-9.9s-4.4-9.9-9.9-9.9-9.9,4.4-9.9,9.9,4.4,9.9,9.9,9.9Z"/>
          <path class="cls-12" d="M5213.2,1695.3c5.4,0,9.9-4.4,9.9-9.9s-4.4-9.9-9.9-9.9-9.9,4.4-9.9,9.9,4.4,9.9,9.9,9.9Z"/>
          <path class="cls-12" d="M5280.2,1695.3c5.4,0,9.9-4.4,9.9-9.9s-4.4-9.9-9.9-9.9-9.9,4.4-9.9,9.9,4.4,9.9,9.9,9.9Z"/>
          <path class="cls-12" d="M5347.3,1695.3c5.4,0,9.9-4.4,9.9-9.9s-4.4-9.9-9.9-9.9-9.9,4.4-9.9,9.9,4.4,9.9,9.9,9.9Z"/>
          <path class="cls-12" d="M5414.4,1695.3c5.4,0,9.9-4.4,9.9-9.9s-4.4-9.9-9.9-9.9-9.9,4.4-9.9,9.9,4.4,9.9,9.9,9.9Z"/>
          <path class="cls-12" d="M5481.4,1695.3c5.4,0,9.9-4.4,9.9-9.9s-4.4-9.9-9.9-9.9-9.9,4.4-9.9,9.9,4.4,9.9,9.9,9.9Z"/>
          <path class="cls-12" d="M5548.5,1695.3c5.4,0,9.9-4.4,9.9-9.9s-4.4-9.9-9.9-9.9-9.9,4.4-9.9,9.9,4.4,9.9,9.9,9.9Z"/>
          <path class="cls-12" d="M5146.1,1762.4c5.4,0,9.9-4.4,9.9-9.9s-4.4-9.9-9.9-9.9-9.9,4.4-9.9,9.9,4.4,9.9,9.9,9.9Z"/>
          <path class="cls-12" d="M5213.2,1762.4c5.4,0,9.9-4.4,9.9-9.9s-4.4-9.9-9.9-9.9-9.9,4.4-9.9,9.9,4.4,9.9,9.9,9.9Z"/>
          <path class="cls-12" d="M5280.2,1762.4c5.4,0,9.9-4.4,9.9-9.9s-4.4-9.9-9.9-9.9-9.9,4.4-9.9,9.9,4.4,9.9,9.9,9.9Z"/>
          <path class="cls-12" d="M5347.3,1762.4c5.4,0,9.9-4.4,9.9-9.9s-4.4-9.9-9.9-9.9-9.9,4.4-9.9,9.9,4.4,9.9,9.9,9.9Z"/>
          <path class="cls-12" d="M5414.4,1762.4c5.4,0,9.9-4.4,9.9-9.9s-4.4-9.9-9.9-9.9-9.9,4.4-9.9,9.9,4.4,9.9,9.9,9.9Z"/>
          <path class="cls-12" d="M5481.4,1762.4c5.4,0,9.9-4.4,9.9-9.9s-4.4-9.9-9.9-9.9-9.9,4.4-9.9,9.9,4.4,9.9,9.9,9.9Z"/>
          <path class="cls-12" d="M5548.5,1762.4c5.4,0,9.9-4.4,9.9-9.9s-4.4-9.9-9.9-9.9-9.9,4.4-9.9,9.9,4.4,9.9,9.9,9.9Z"/>
          <path class="cls-12" d="M5146.1,1829.5c5.4,0,9.9-4.4,9.9-9.9s-4.4-9.9-9.9-9.9-9.9,4.4-9.9,9.9,4.4,9.9,9.9,9.9Z"/>
          <path class="cls-12" d="M5213.2,1829.5c5.4,0,9.9-4.4,9.9-9.9s-4.4-9.9-9.9-9.9-9.9,4.4-9.9,9.9,4.4,9.9,9.9,9.9Z"/>
          <path class="cls-12" d="M5280.2,1829.5c5.4,0,9.9-4.4,9.9-9.9s-4.4-9.9-9.9-9.9-9.9,4.4-9.9,9.9,4.4,9.9,9.9,9.9Z"/>
          <path class="cls-12" d="M5347.3,1829.5c5.4,0,9.9-4.4,9.9-9.9s-4.4-9.9-9.9-9.9-9.9,4.4-9.9,9.9,4.4,9.9,9.9,9.9Z"/>
          <path class="cls-12" d="M5414.4,1829.5c5.4,0,9.9-4.4,9.9-9.9s-4.4-9.9-9.9-9.9-9.9,4.4-9.9,9.9,4.4,9.9,9.9,9.9Z"/>
          <path class="cls-12" d="M5481.4,1829.5c5.4,0,9.9-4.4,9.9-9.9s-4.4-9.9-9.9-9.9-9.9,4.4-9.9,9.9,4.4,9.9,9.9,9.9Z"/>
          <path class="cls-12" d="M5548.5,1829.5c5.4,0,9.9-4.4,9.9-9.9s-4.4-9.9-9.9-9.9-9.9,4.4-9.9,9.9,4.4,9.9,9.9,9.9Z"/>
          <path class="cls-12" d="M5146.1,1896.5c5.4,0,9.9-4.4,9.9-9.9s-4.4-9.9-9.9-9.9-9.9,4.4-9.9,9.9,4.4,9.9,9.9,9.9Z"/>
          <path class="cls-12" d="M5213.2,1896.5c5.4,0,9.9-4.4,9.9-9.9s-4.4-9.9-9.9-9.9-9.9,4.4-9.9,9.9,4.4,9.9,9.9,9.9Z"/>
          <path class="cls-12" d="M5280.2,1896.5c5.4,0,9.9-4.4,9.9-9.9s-4.4-9.9-9.9-9.9-9.9,4.4-9.9,9.9,4.4,9.9,9.9,9.9Z"/>
          <path class="cls-12" d="M5347.3,1896.5c5.4,0,9.9-4.4,9.9-9.9s-4.4-9.9-9.9-9.9-9.9,4.4-9.9,9.9,4.4,9.9,9.9,9.9Z"/>
          <path class="cls-12" d="M5414.4,1896.5c5.4,0,9.9-4.4,9.9-9.9s-4.4-9.9-9.9-9.9-9.9,4.4-9.9,9.9,4.4,9.9,9.9,9.9Z"/>
          <path class="cls-12" d="M5481.4,1896.5c5.4,0,9.9-4.4,9.9-9.9s-4.4-9.9-9.9-9.9-9.9,4.4-9.9,9.9,4.4,9.9,9.9,9.9Z"/>
          <path class="cls-12" d="M5548.5,1896.5c5.4,0,9.9-4.4,9.9-9.9s-4.4-9.9-9.9-9.9-9.9,4.4-9.9,9.9,4.4,9.9,9.9,9.9Z"/>
          <path class="cls-12" d="M5146.1,1963.6c5.4,0,9.9-4.4,9.9-9.9s-4.4-9.9-9.9-9.9-9.9,4.4-9.9,9.9,4.4,9.9,9.9,9.9Z"/>
          <path class="cls-12" d="M5213.2,1963.6c5.4,0,9.9-4.4,9.9-9.9s-4.4-9.9-9.9-9.9-9.9,4.4-9.9,9.9,4.4,9.9,9.9,9.9Z"/>
          <path class="cls-12" d="M5280.2,1963.6c5.4,0,9.9-4.4,9.9-9.9s-4.4-9.9-9.9-9.9-9.9,4.4-9.9,9.9,4.4,9.9,9.9,9.9Z"/>
          <path class="cls-12" d="M5347.3,1963.6c5.4,0,9.9-4.4,9.9-9.9s-4.4-9.9-9.9-9.9-9.9,4.4-9.9,9.9,4.4,9.9,9.9,9.9Z"/>
          <path class="cls-12" d="M5414.4,1963.6c5.4,0,9.9-4.4,9.9-9.9s-4.4-9.9-9.9-9.9-9.9,4.4-9.9,9.9,4.4,9.9,9.9,9.9Z"/>
          <path class="cls-12" d="M5481.4,1963.6c5.4,0,9.9-4.4,9.9-9.9s-4.4-9.9-9.9-9.9-9.9,4.4-9.9,9.9,4.4,9.9,9.9,9.9Z"/>
          <path class="cls-12" d="M5548.5,1963.6c5.4,0,9.9-4.4,9.9-9.9s-4.4-9.9-9.9-9.9-9.9,4.4-9.9,9.9,4.4,9.9,9.9,9.9Z"/>
          <path class="cls-12" d="M5146.1,2030.6c5.4,0,9.9-4.4,9.9-9.9s-4.4-9.9-9.9-9.9-9.9,4.4-9.9,9.9,4.4,9.9,9.9,9.9Z"/>
          <path class="cls-12" d="M5213.2,2030.6c5.4,0,9.9-4.4,9.9-9.9s-4.4-9.9-9.9-9.9-9.9,4.4-9.9,9.9,4.4,9.9,9.9,9.9Z"/>
          <path class="cls-12" d="M5280.2,2030.6c5.4,0,9.9-4.4,9.9-9.9s-4.4-9.9-9.9-9.9-9.9,4.4-9.9,9.9,4.4,9.9,9.9,9.9Z"/>
          <path class="cls-12" d="M5347.3,2030.6c5.4,0,9.9-4.4,9.9-9.9s-4.4-9.9-9.9-9.9-9.9,4.4-9.9,9.9,4.4,9.9,9.9,9.9Z"/>
          <path class="cls-12" d="M5414.4,2030.6c5.4,0,9.9-4.4,9.9-9.9s-4.4-9.9-9.9-9.9-9.9,4.4-9.9,9.9,4.4,9.9,9.9,9.9Z"/>
          <path class="cls-12" d="M5481.4,2030.6c5.4,0,9.9-4.4,9.9-9.9s-4.4-9.9-9.9-9.9-9.9,4.4-9.9,9.9,4.4,9.9,9.9,9.9Z"/>
          <path class="cls-12" d="M5548.5,2030.6c5.4,0,9.9-4.4,9.9-9.9s-4.4-9.9-9.9-9.9-9.9,4.4-9.9,9.9,4.4,9.9,9.9,9.9Z"/>
        </g>
      </g>
    </g>
  </g>
</svg>