<?xml version="1.0" encoding="UTF-8"?>
<svg id="Layer_2" data-name="Layer 2" xmlns="http://www.w3.org/2000/svg" viewBox="0 0 78.03 67.29">
  <defs>
    <style>
      .cls-1 {
        fill: #486582;
      }

      .cls-1, .cls-2, .cls-3, .cls-4, .cls-5, .cls-6, .cls-7, .cls-8, .cls-9, .cls-10 {
        stroke-width: 0px;
      }

      .cls-2 {
        fill: #3498db;
      }

      .cls-3 {
        fill: #66ffa7;
      }

      .cls-4 {
        fill: #2ecc71;
      }

      .cls-5 {
        fill: #95a5a6;
      }

      .cls-6 {
        fill: #ecf0f1;
      }

      .cls-7 {
        fill: #2c3e50;
      }

      .cls-8 {
        fill: #2980b9;
      }

      .cls-9 {
        fill: #34495e;
      }

      .cls-10 {
        fill: #f1c40f;
      }
    </style>
  </defs>
  <g id="Layer_1-2" data-name="Layer 1">
    <g>
      <rect class="cls-9" width="78.03" height="49.25" rx="3.23" ry="3.23"/>
      <path class="cls-2" d="M5.48,4.56h67.07c.59,0,1.08.48,1.08,1.08v37.97c0,.59-.48,1.08-1.08,1.08H5.48c-.59,0-1.08-.48-1.08-1.08V5.64c0-.59.48-1.08,1.08-1.08Z"/>
      <path class="cls-8" d="M53.49,12.56l-31.76,26.39-2.08.67,5.07,5.07h47.83c.59,0,1.08-.48,1.08-1.08v-10.91l-20.14-20.14Z"/>
      <path class="cls-7" d="M33.6,49.25v15.95h10.84v-15.95h-10.84ZM39.02,60.06c-1.57,0-2.84-1.27-2.84-2.84s1.27-2.84,2.84-2.84,2.84,1.27,2.84,2.84-1.27,2.84-2.84,2.84Z"/>
      <rect class="cls-9" x="23.9" y="65.2" width="30.23" height="2.09"/>
      <path class="cls-1" d="M63.26,46.89c0,.5-.4.9-.9.9s-.9-.4-.9-.9.4-.9.9-.9.9.4.9.9Z"/>
      <path class="cls-1" d="M66.28,46.89c0,.5-.4.9-.9.9s-.9-.4-.9-.9.4-.9.9-.9.9.4.9.9Z"/>
      <path class="cls-1" d="M69.31,46.89c0,.5-.4.9-.9.9s-.9-.4-.9-.9.4-.9.9-.9.9.4.9.9Z"/>
      <path class="cls-1" d="M72.33,46.89c0,.5-.4.9-.9.9s-.9-.4-.9-.9.4-.9.9-.9.9.4.9.9Z"/>
      <circle class="cls-4" cx="39.02" cy="46.89" r="1.52"/>
      <path class="cls-3" d="M39.74,46.89c0,.4-.33.73-.73.73s-.73-.33-.73-.73.33-.73.73-.73.73.33.73.73Z"/>
      <g>
        <path class="cls-6" d="M39.02,7.71c-10.89,0-19.71,6.77-19.71,15.11,0,4.04,2.08,7.7,5.45,10.41-.72,1.87-2.28,4.98-5.1,6.38,3.31-.28,7.52-1.86,9.53-3.71,2.9,1.28,6.25,2.03,9.83,2.03,10.89,0,19.71-6.77,19.71-15.11s-8.83-15.11-19.71-15.11Z"/>
        <path class="cls-5" d="M43.19,34.22c-.49-.54-.82-2.12-1.02-3.6,1.88-1.21,3.14-3.37,3.87-5.22.1.1.21.18.36.22.64.17,1.74-1.67,1.95-3.14.18-1.24-.54-2.26-1.45-2.01-.16-3.34-1.63-8.23-7.9-8.23s-7.74,4.89-7.9,8.23c-.9-.25-1.62.77-1.45,2.01.21,1.46,1.31,3.31,1.95,3.14.15-.04.26-.12.36-.22.73,1.85,1.99,4.01,3.87,5.22-.2,1.48-.53,3.06-1.02,3.6-.43.48-3.5.87-5.82,1.51.03.04.06.08.09.12.02.02.05.04.07.06h0c2.9,1.28,6.25,2.03,9.83,2.03s7.17-.8,10.14-2.17c-2.34-.66-5.52-1.06-5.96-1.55Z"/>
        <g>
          <path class="cls-10" d="M30.05,19.17h0c-1.33,0-2.41,1.08-2.41,2.42v2.24c0,1.33,1.08,2.41,2.41,2.41h0v.29h.35c0,3.1,2.72,5.21,7.04,5.62.1.67.77,1.18,1.58,1.18.88,0,1.6-.61,1.6-1.36s-.71-1.36-1.6-1.36c-.75,0-1.37.44-1.54,1.03-4.08-.37-6.56-2.26-6.56-5.11h.35v-7.65h-1.21v.29Z"/>
          <path class="cls-10" d="M47.98,19.17h0v-.29h-1.21v7.65h1.21v-.29h0c1.33,0,2.41-1.08,2.41-2.41v-2.24c0-1.33-1.08-2.42-2.41-2.42Z"/>
          <path class="cls-10" d="M47.35,17.86c-.03-.16-.07-.34-.11-.53-.05-.19-.12-.39-.19-.61-.18-.42-.39-.9-.73-1.36-.31-.48-.74-.94-1.23-1.38-.5-.42-1.07-.83-1.73-1.13-.16-.08-.33-.15-.49-.23-.17-.06-.34-.12-.52-.19-.34-.14-.71-.21-1.08-.3-.37-.09-.75-.12-1.12-.18-.38-.03-.76-.04-1.14-.06-.41.02-.74.03-1.12.06-.38.06-.77.09-1.14.18-.37.09-.74.16-1.08.3-.17.06-.35.13-.52.19-.17.08-.33.15-.49.23-.66.3-1.23.71-1.73,1.13-.49.44-.92.9-1.23,1.38-.33.46-.55.94-.73,1.36-.07.22-.14.42-.19.61-.04.19-.08.37-.11.53-.04.33-.05.58-.04.75,0,.17.01.26.01.26,0,0,.02-.09.04-.26.02-.17.1-.41.18-.71.06-.15.12-.31.19-.48.08-.17.17-.35.27-.54.22-.37.49-.78.84-1.17.09-.1.18-.2.27-.3.1-.09.2-.19.31-.28.2-.2.44-.37.67-.56.49-.34,1.03-.66,1.63-.91.59-.27,1.25-.42,1.91-.57.33-.07.67-.09,1-.14.34-.02.75-.03,1.06-.04.35.02.7.02,1.04.04.34.05.69.07,1.02.14.66.14,1.32.3,1.91.57.6.25,1.14.57,1.63.91.23.19.47.36.67.56.1.1.21.19.3.28.09.1.18.2.27.3.35.39.61.8.84,1.17.1.19.19.38.27.54.07.18.13.34.19.48.08.3.16.54.18.71.03.17.04.26.04.26,0,0,0-.09.01-.26.02-.17,0-.42-.04-.75Z"/>
        </g>
      </g>
    </g>
  </g>
</svg>