<?xml version="1.0" encoding="UTF-8"?>
<svg xmlns="http://www.w3.org/2000/svg" viewBox="0 0 77.62 73.13">
  <defs>
    <style>
      .cls-1 {
        opacity: .5;
      }

      .cls-1, .cls-2, .cls-3, .cls-4, .cls-5, .cls-6, .cls-7, .cls-8, .cls-9, .cls-10, .cls-11, .cls-12 {
        stroke-width: 0px;
      }

      .cls-1, .cls-6 {
        mix-blend-mode: multiply;
      }

      .cls-1, .cls-9 {
        fill: #2980b9;
      }

      .cls-13 {
        isolation: isolate;
      }

      .cls-2 {
        fill: #4e6d8c;
      }

      .cls-3 {
        fill: #bdc3c7;
      }

      .cls-4 {
        fill: #243342;
      }

      .cls-5 {
        fill: #3498db;
      }

      .cls-6 {
        opacity: .6;
      }

      .cls-6, .cls-10 {
        fill: #e74c3c;
      }

      .cls-7 {
        fill: #ecf0f1;
      }

      .cls-8 {
        fill: #f39c12;
      }

      .cls-11 {
        fill: #34495e;
      }

      .cls-12 {
        fill: #f1c40f;
      }
    </style>
  </defs>
  <g class="cls-13">
    <g id="Layer_2" data-name="Layer 2">
      <g id="Layer_1-2" data-name="Layer 1">
        <g>
          <g>
            <circle class="cls-5" cx="38.81" cy="36.57" r="26.51"/>
            <g>
              <path class="cls-9" d="M15.9,23.17c.2-.15.41-.28.62-.38.79-.38,1.74-.65,2.5-.22.76.43.84,1.83-.01,2.03-.12.58.81.83,1.28.47.47-.36.65-.97,1.05-1.41.56-.62,1.43-.8,2.2-1.11.77-.31,1.56-.95,1.5-1.77,1.32-.19,2.73,1.44,3.79.63.21-.16.36-.4.58-.55.76-.51,1.7.32,2.23,1.07.65-.98.99-2.16.98-3.33,0-.44-.06-.88-.27-1.26.7.57,1.8.54,2.48-.05.68-.59.84-1.69.37-2.45.57-.21,1.17-.43,1.78-.38.61.05,1.24.44,1.36,1.04.18.91-.79,1.58-1.57,2.07-.78.49-1.59,1.47-1.06,2.23.59.83,1.86.22,2.8-.16,2.23-.9,5.06-.06,6.95-1.56.29-.23.55-.52.64-.87.32-1.15-1.07-1.99-2.23-2.26-1.91-.44-3.9-.53-5.84-.25.27-.32.23-.85-.07-1.13-.45-.41-1.16-.21-1.73,0-.92.36-1.83.71-2.75,1.07-.33.13-.68.26-1.03.19-.86-.17-1.07-1.37-1.82-1.83-.34-.21-.76-.24-1.15-.29-.48-.06-.95-.17-1.41-.3-5.09,2.25-9.33,6.04-12.15,10.78Z"/>
              <path class="cls-9" d="M49.54,20.26s-.06.03-.07.06c0,.03,0,.06.02.08.1.16.31.22.5.2.19-.02.36-.11.52-.2.39-.22.77-.47,1.12-.75.04-.03.09-.08.09-.13,0-.04-.02-.07-.04-.09-.2-.25-.52-.38-.83-.36-.17.01-.35.07-.51.01-.32-.12-.47-.7-.81-.28-.07.09-.15.19-.22.28-.09.12-.15.31-.04.44.06.07.57.27.57.28,0,.19-.12.38-.29.46Z"/>
              <path class="cls-9" d="M55.38,22.76c.06-.05.12-.11.2-.13.16-.05.35.04.51-.01.06-.02.11-.06.18-.06.13-.01.23.13.35.18.11.06.26.03.35-.05.09-.08.13-.23.09-.35-.15.12-.35.17-.54.14-.13-.02-.25-.07-.38-.07-.06,0-.12.02-.18.02-.21,0-.41-.18-.62-.13-.21.05-.29.29-.34.5-.11-.05-.23.04-.32.12-.32.32-.42,1.11.28.95.29-.07.19-.12.15-.34-.02-.14-.11-.14-.07-.32.03-.16.23-.35.34-.45Z"/>
              <path class="cls-9" d="M60.21,41.6c.12-.09.27-.19.4-.13.14.06.17.24.16.39-.06.57-.52,1.06-.49,1.63.02.48.39.86.6,1.29.48.95.26,2.08.16,3.14-.07.84.01,1.8.51,2.43.1-.17.21-.35.31-.53-.11-.42-.23-.84-.3-1.26-.12-.75.01-1.63.65-2.05.07.62.23,1.22.46,1.8,1.71-3.51,2.66-7.44,2.66-11.6,0-4.74-1.25-9.19-3.42-13.04-.14-.05-.29-.08-.44-.08-.34.01-.69.27-.69.61-.43-.26-.89-.53-1.39-.5-.5.03-.99.52-.83.99-.82-.83-2.34-.79-3.13.06-1.08-.36-2.27-.36-3.35,0-.28.09-.59.2-.86.08-.27-.12-.31-.62-.01-.66.18-.02.35.15.53.11.31-.07.17-.55-.03-.79-.62-.74-1.42-1.56-2.37-1.4-.51.09-.93.45-1.42.61-.47.16-.98.13-1.46.27-1,.3-1.68,1.42-1.48,2.45.62.47,1.52.03,2.09-.5.57-.53,1.18-1.19,1.96-1.16-.24.45-.6.85-1.03,1.13.64.21,1.31.35,1.98.4.2.25-.21.58-.53.53-.32-.05-.62-.27-.94-.21-.35.06-.55.41-.84.61-.68.49-1.61.1-2.41-.16-.8-.26-1.96-.18-2.13.64-.54-.52-1.55-.41-1.97.21.12.3.25.6.37.9-.42.49-1.18-.43-1.66-.41-.77.03-1.35,1.14-1.06,1.83.74,1.75,3.06-1.1,4.3-.33.37.23.55.66.71,1.07.2.51.4,1.03.6,1.54.21-.9.14-1.86-.17-2.73.57.04.76.77.8,1.34.05.74.09,1.47.14,2.21.34-.45.86-.76,1.42-.84-.24.42-.47.96-.18,1.34.25.32.74.31,1.09.53.35.22.52.71.37,1.1-.15.39-.59.65-1,.58.64,1.86-.06,3.93.32,5.85.03.14.06.29.16.39.21.23.59.16.89.07.91-.28,1.82-.55,2.73-.83.57-.17,1.24-.46,1.31-1.05.07-.6-.52-1.03-1-1.39-.48-.36-.95-1.01-.61-1.51.48,1.11,1.45,2.01,2.6,2.39.29.1.59.16.85.32,1.21.77.08,1.56.59,2.42.11.19.34.28.51.42.24.2.36.54.31.85-.03.16-.1.31-.06.47.02.07.06.13.07.2.04.15-.02.3-.07.45-.16.54-.1,1.12-.04,1.67.03.29.06.58.2.84.14.26.4.46.69.44.2-.25.31-.57.29-.89,0-.14-.04-.29.01-.43.05-.15.18-.34.05-.43-.02-.01,3.2-3.43,3.55-3.7Z"/>
              <path class="cls-9" d="M22.08,45.4c.68-.8,1.27-1.69,1.74-2.63.15-.31.3-.63.54-.87.23-.23.53-.38.74-.62.64-.74.16-1.91-.53-2.6-.69-.69-1.59-1.24-1.95-2.15-.37-.95-.06-2.15-.72-2.93-.29-.34-.73-.55-.92-.95-.69-1.45-.64-1.65-2.49-1.91-1.16-.16-1.46-.21-2.26.6-1.9,1.91-3.2,4.17-2.35,6.96.46,1.5,1.47,2.83,1.61,4.38.08.88-.14,1.76-.31,2.63-.19.98-.31,1.97-.35,2.97.56,1.15,1.19,2.25,1.9,3.29.07-.3.17-.59.32-.86.35-.64.88-1.15,1.41-1.66.72-.71,1.43-1.42,2.15-2.13.49-.5.99-.99,1.44-1.53Z"/>
              <path class="cls-9" d="M14.51,27.55c.18.24.61.45.69.73.08.26-.09.54-.06.8.01.12.07.24.08.37.01.18-.07.36-.12.54-.05.18-.07.39.05.53.12.14.34.16.52.14.19-.02.38-.08.56-.03.18.04.35.23.28.41.18-.1.3-.32.27-.52-.03-.21-.19-.39-.39-.44-.21-.05-.49.02-.62-.16-.06-.09-.06-.2-.04-.3.06-.41.27-.79.58-1.07.17-.14.37-.28.41-.5.05-.32-1.07-1.49-1.36-1.19.43-.45.86-.9,1.28-1.34-.48-.26-1.06-.32-1.58-.16-.08-.11-.12-.23-.15-.35-.29.59-.55,1.19-.8,1.8.11.26.23.51.41.75Z"/>
              <path class="cls-9" d="M60.26,49.44c-.3.27.08.64.13.98.08.52-.11.91.22,1.38.23-.33.44-.66.66-1-.11-.63-.41-1.91-1.01-1.36Z"/>
              <path class="cls-9" d="M43.74,51.71c-.13.05-.27.05-.4.11-.17.09-.27.28-.34.46-.09.24-.16.49-.11.74.04.25.21.49.46.55.29.07.58-.13.76-.38.17-.24.27-.53.44-.78.35-.51.99-.79,1.3-1.33.18-.32.93-1.46.39-1.45-.6,0-.81.88-1.6.72-.1-.02-.2-.05-.29-.02-.17.06-.21.27-.27.44-.06.17-.26.34-.4.22-.05.07,0,.17.07.22.07.05.15.09.19.17.05.13-.06.26-.19.31Z"/>
              <path class="cls-9" d="M41.3,25.6c.23-.26.44-.54.61-.84.02.11.22.05.23-.06,0-.11-.09-.21-.17-.28-.1-.09-.21-.17-.34-.21-.13-.03-.29.02-.34.14l-.03.02c-.23,0-.43.2-.44.43,0,.23.19.44.41.46-.03.09-.06.19-.08.28.04.03.1.05.15.06Z"/>
              <path class="cls-9" d="M43.34,23.67c-.6,0-.5.93-.69.92.18.07.09.36-.08.44-.17.08-.38.06-.55.15-.35.17-.34.74-.02.97.31.23.78.15,1.08-.1.12-.1.23-.24.26-.4.03-.16-.03-.34-.17-.42.19-.25.38-.59.23-.87-.06-.12-.11-.19-.05-.31.5.04.49-.38-.01-.38Z"/>
              <path class="cls-9" d="M39.2,53.65c.19-.36.34-.87.75-.87.11,0,.23.05.34.03.11-.01.2-.08.28-.15.48-.39.83-.92,1.01-1.5.1-.32.27-.75.6-.68.12.03.21.12.32.17.27.12.6-.03.77-.28.17-.24.21-.55.24-.84.13-1.38.17-2.98,1.27-3.83.71-.55,1.75-.65,2.29-1.37.13-.17.23-.38.39-.52.18-.16.43-.23.65-.32.57-.23,1.07-.66,1.38-1.19-.56.05-1.14.1-1.67-.07-.53-.17-1.02-.64-1.03-1.2,0-.22.06-.44.05-.66-.02-.63-.6-1.17-.49-1.79.05-.3.26-.56.24-.86-.01-.21-.13-.4-.21-.6-.23-.6,0-1.35.54-1.71-.28-1.22-1.71-2.04-2.9-1.66-.14.04-.29.1-.41.03-.13-.07-.17-.22-.26-.34-.3-.41-1.07-.3-1.25-.77-.22-.57.72-1.26.29-1.69-.17-.17-.45-.14-.67-.23-.31-.13-.53-.5-.87-.5-.4-.01-.75.5-1.12.33-.21-.1-.27-.38-.43-.55-.24-.25-.73-.17-.88.14-.87.35-1.73.7-2.6,1.05-.2.08-.41.17-.56.32-.25.25-.33.62-.59.86-.24.23-.59.34-.86.55-.39.32-.76.78-1,1.23-.73,1.39-.35,2.63-.1,4.11.01.08.03.15.07.21.05.06.12.09.19.12.39.16.79.32,1.18.48.3.12.62.25.95.25.29,0,.58-.09.87-.09.73,0,1.41.62,1.45,1.35.01.16,0,.34.08.48.07.12.21.19.27.31.12.25-.11.51-.23.75-.26.53-.02,1.16.2,1.71.22.55.4,1.22.04,1.7-.22.3-.6.44-.82.73-.16.22-.22.51-.26.78-.28,1.6-.5,3.2-.68,4.81-.06.55-.11,1.14.11,1.65.25.58.85.99,1.48,1.02.63.02,1.26-.34,1.55-.9Z"/>
            </g>
            <path class="cls-1" d="M65.32,36.57c0-.13,0-.25,0-.38l-2.95-2.95-2.5.67-.55,4.13-1.76-1.76-2.37-2.37h-3.95l-.35,2.9-2.73-2.73-3.51-.17-1.54,2.73-2.52-2.52-.42.72-3.35-.93-.54,2.37-2.43-2.43-2.85.07-1.16,1.48-2.16-2.16-1.44,2.84-2.84-2.84-1.02,2.49-2.07-2.07-2.3.25-2.62,2.31,3.36,3.36-3.59.63,22.85,22.85c.25,0,.5.02.76.02,14.64,0,26.51-11.87,26.51-26.51Z"/>
            <g>
              <path class="cls-12" d="M20.34,38.35c0,.45-.12.86-.35,1.21-.23.35-.56.63-1,.82-.43.2-.94.29-1.53.29-.49,0-.9-.03-1.23-.1-.33-.07-.68-.19-1.03-.36v-1.77c.38.19.77.35,1.18.45.41.11.78.16,1.12.16.29,0,.51-.05.65-.15.14-.1.21-.23.21-.39,0-.1-.03-.19-.08-.26-.05-.08-.14-.15-.27-.23-.12-.08-.45-.23-.98-.47-.48-.22-.84-.43-1.08-.63-.24-.2-.42-.44-.53-.7-.12-.26-.17-.58-.17-.94,0-.68.25-1.2.74-1.58.49-.38,1.17-.57,2.03-.57.76,0,1.53.18,2.32.53l-.61,1.53c-.69-.31-1.28-.47-1.77-.47-.26,0-.44.05-.56.14-.12.09-.18.2-.18.34,0,.14.07.27.22.39.15.11.55.32,1.21.62.63.28,1.07.59,1.32.92.25.33.37.74.37,1.23Z"/>
              <path class="cls-12" d="M27.7,33.24v4.41c0,.96-.27,1.7-.81,2.23-.54.53-1.33.79-2.35.79s-1.77-.26-2.3-.77c-.54-.51-.81-1.25-.81-2.21v-4.46h1.99v4.3c0,.52.1.89.29,1.13.19.23.48.35.86.35.4,0,.7-.12.88-.35s.27-.61.27-1.14v-4.29h1.98Z"/>
              <path class="cls-12" d="M34.56,35.57c0,.82-.24,1.45-.72,1.9-.48.45-1.17.67-2.06.67h-.56v2.43h-1.98v-7.33h2.54c.93,0,1.62.2,2.09.61.46.4.7.98.7,1.72ZM31.22,36.53h.36c.3,0,.53-.08.71-.25s.26-.4.26-.69c0-.5-.27-.74-.82-.74h-.51v1.68Z"/>
              <path class="cls-12" d="M41.05,35.57c0,.82-.24,1.45-.72,1.9-.48.45-1.17.67-2.06.67h-.56v2.43h-1.98v-7.33h2.54c.93,0,1.62.2,2.09.61.46.4.7.98.7,1.72ZM37.71,36.53h.36c.3,0,.53-.08.71-.25s.26-.4.26-.69c0-.5-.27-.74-.82-.74h-.51v1.68Z"/>
              <path class="cls-12" d="M49.07,36.9c0,1.23-.3,2.17-.91,2.81-.61.64-1.49.96-2.66.96s-2.03-.32-2.64-.97c-.61-.65-.92-1.58-.92-2.82s.3-2.15.91-2.8c.61-.64,1.5-.96,2.66-.96s2.05.32,2.65.96c.6.64.9,1.58.9,2.81ZM44.03,36.9c0,1.42.49,2.13,1.48,2.13.5,0,.87-.17,1.12-.52.24-.34.36-.88.36-1.61s-.12-1.27-.37-1.62-.61-.52-1.1-.52c-.99,0-1.49.72-1.49,2.15Z"/>
              <path class="cls-12" d="M52.38,37.91v2.67h-1.98v-7.33h2.4c1.99,0,2.99.72,2.99,2.17,0,.85-.41,1.51-1.24,1.97l2.14,3.19h-2.25l-1.55-2.67h-.5ZM52.38,36.42h.37c.69,0,1.04-.31,1.04-.92,0-.5-.34-.76-1.02-.76h-.39v1.67Z"/>
              <path class="cls-12" d="M60.58,40.57h-1.98v-5.71h-1.79v-1.62h5.56v1.62h-1.78v5.71Z"/>
            </g>
          </g>
          <g>
            <g>
              <path class="cls-4" d="M8.24,24.85h0c-4.55,0-8.24,3.69-8.24,8.24v7.62c0,4.55,3.69,8.24,8.24,8.24h0v1h1.19c0,10.56,9.26,17.76,24.01,19.15.35,2.28,2.61,4.04,5.37,4.04,3.01,0,5.45-2.08,5.45-4.65s-2.44-4.65-5.45-4.65c-2.55,0-4.68,1.5-5.27,3.53-13.93-1.28-22.37-7.7-22.37-17.42h.42c.42,0,.76-.34.76-.76v-24.56c0-.42-.34-.76-.76-.76h-3.35v1Z"/>
              <path class="cls-10" d="M69.38,24.85h0v-1h-3.35c-.42,0-.76.34-.76.76v24.56c0,.42.34.76.76.76h3.35v-1h0c4.55,0,8.24-3.69,8.24-8.24v-7.62c0-4.55-3.69-8.24-8.24-8.24Z"/>
              <path class="cls-6" d="M76.69,29.3v10.75c0,5.05-7.83,5.04-7.83,0v-16.19h-2.83c-.42,0-.76.34-.76.76v24.56c0,.42.34.76.76.76h3.35v-1h0c4.55,0,8.24-3.69,8.24-8.24v-7.62c0-1.37-.34-2.65-.93-3.79Z"/>
              <path class="cls-11" d="M69.38,23.86h-3.35c-.42,0-.76.34-.76.76v24.56c0,.42.34.76.76.76h3.35v-26.09Z"/>
              <path class="cls-11" d="M67.24,20.39c-.11-.55-.23-1.15-.37-1.81-.17-.65-.42-1.34-.66-2.09-.6-1.44-1.35-3.07-2.48-4.65-1.06-1.64-2.51-3.2-4.18-4.69-1.72-1.43-3.66-2.85-5.89-3.87-.56-.26-1.12-.52-1.68-.79-.59-.21-1.17-.43-1.77-.64-1.17-.49-2.43-.72-3.68-1.03-1.25-.29-2.54-.4-3.82-.6-1.29-.1-2.58-.15-3.88-.22-1.4.07-2.51.11-3.81.21-1.31.2-2.64.32-3.9.61-1.25.31-2.51.54-3.68,1.03-.59.22-1.18.43-1.77.64-.56.26-1.13.53-1.68.79-2.23,1.02-4.18,2.43-5.89,3.87-1.67,1.5-3.12,3.06-4.19,4.69-1.14,1.58-1.88,3.21-2.48,4.65-.24.75-.49,1.43-.66,2.09-.13.66-.26,1.27-.37,1.81-.12,1.11-.18,1.98-.12,2.57.02.59.04.9.04.9,0,0,.05-.31.15-.89.06-.58.33-1.4.61-2.42.2-.5.41-1.05.65-1.64.28-.57.59-1.19.92-1.85.76-1.26,1.67-2.65,2.86-3.99.3-.33.6-.67.91-1.02.34-.32.69-.64,1.04-.97.67-.69,1.49-1.26,2.28-1.9,1.66-1.17,3.5-2.27,5.55-3.11,2-.94,4.25-1.45,6.51-1.95,1.13-.25,2.27-.31,3.41-.49,1.17-.08,2.55-.1,3.63-.15,1.19.05,2.38.07,3.56.14,1.16.17,2.35.24,3.48.49,2.26.49,4.51,1.01,6.52,1.95,2.04.84,3.89,1.94,5.55,3.11.79.64,1.6,1.21,2.28,1.9.35.33.7.65,1.04.97.31.35.61.69.91,1.02,1.19,1.34,2.09,2.73,2.86,3.99.33.66.63,1.28.92,1.85.24.6.45,1.15.65,1.65.28,1.01.55,1.83.61,2.42.1.58.15.89.15.89,0,0,.01-.31.04-.9.06-.58,0-1.44-.12-2.57Z"/>
              <path class="cls-2" d="M15.2,11.06c.91-1.26,2.08-2.52,3.58-3.86,1.99-1.67,3.79-2.85,5.63-3.7l1.69-.79,1.68-.6c.85-.35,1.72-.56,2.64-.77.31-.07.63-.15.94-.23.77-.18,1.59-.29,2.46-.4.45-.06.89-.12,1.34-.19.87-.06,1.72-.1,2.66-.15l.99-.05,1.23.06c.86.04,1.72.08,2.57.15.37.06.82.12,1.27.18.84.11,1.63.22,2.4.4.28.07.59.14.89.21.93.22,1.81.43,2.63.76l1.81.66,1.59.75c1.83.84,3.63,2.02,5.67,3.72,1.45,1.3,2.61,2.55,3.5,3.77l-.35-.39-1.11-1.04c-.49-.5-1.09-.96-1.66-1.41-.22-.17-.45-.35-.67-.53-2-1.42-3.88-2.47-5.81-3.27-2.02-.94-4.23-1.47-6.69-2-.77-.17-1.55-.26-2.31-.35-.41-.05-.83-.1-1.24-.16-.83-.06-1.58-.08-2.33-.1-.45-.01-.89-.03-1.34-.05-.52.02-1,.04-1.48.05-.76.02-1.55.05-2.26.1-.51.07-.92.12-1.34.17-.72.08-1.47.17-2.22.33-2.14.47-4.56,1.01-6.74,2.02-1.87.77-3.75,1.82-5.71,3.2-.28.22-.5.4-.72.57-.58.45-1.17.92-1.7,1.45l-1,.93-.47.52Z"/>
            </g>
            <path class="cls-3" d="M12.82,20.46c0,1.14-.92,2.06-2.06,2.06s-2.06-.92-2.06-2.06.92-2.06,2.06-2.06,2.06.92,2.06,2.06Z"/>
            <path class="cls-7" d="M10.22,21.01c-.55,0-1.01-.45-1.01-1s.45-1.01,1.01-1.01,1.01.45,1.01,1.01-.45,1-1.01,1Z"/>
            <path class="cls-3" d="M64.8,20.46c0,1.14.92,2.06,2.06,2.06s2.06-.92,2.06-2.06-.92-2.06-2.06-2.06-2.06.92-2.06,2.06Z"/>
            <path class="cls-7" d="M66.32,21.01c-.55,0-1.01-.45-1.01-1s.45-1.01,1.01-1.01,1.01.45,1.01,1.01-.45,1-1.01,1Z"/>
            <path class="cls-2" d="M66.89,24.53h.14c.53,0,.97.43.97.97v16.83c0,.53-.43.97-.97.97h-.14c-.53,0-.97-.43-.97-.97v-16.83c0-.53.43-.97.97-.97Z"/>
            <path class="cls-10" d="M8.24,24.85h0v-1h3.35c.42,0,.76.34.76.76v24.56c0,.42-.34.76-.76.76h-3.35v-1h0C3.69,48.95,0,45.26,0,40.71v-7.62C0,28.54,3.69,24.85,8.24,24.85Z"/>
            <path class="cls-6" d="M.93,29.3v10.75c0,5.05,7.83,5.04,7.83,0v-16.19h2.83c.42,0,.76.34.76.76v24.56c0,.42-.34.76-.76.76h-3.35v-1h0C3.69,48.95,0,45.26,0,40.71v-7.62c0-1.37.34-2.65.93-3.79Z"/>
            <path class="cls-11" d="M8.24,23.86h3.35c.42,0,.76.34.76.76v24.56c0,.42-.34.76-.76.76h-3.35v-26.09Z"/>
            <path class="cls-2" d="M10.59,24.53h.14c.53,0,.97.43.97.97v16.83c0,.53-.43.97-.97.97h-.14c-.53,0-.97-.43-.97-.97v-16.83c0-.53.43-.97.97-.97Z" transform="translate(21.32 67.83) rotate(-180)"/>
            <path class="cls-12" d="M44.26,68.49c0,2.57-2.44,4.65-5.45,4.65s-5.45-2.08-5.45-4.65,2.44-4.65,5.45-4.65,5.45,2.08,5.45,4.65Z"/>
            <path class="cls-8" d="M41.63,64.53c.59.69.96,1.58,1,2.55.09,2.11-1.87,3.92-3.92,3.92h-1.09c-2.2,0-3.82-1.79-3.92-3.92,0-.08.01-.15.02-.23-.23.51-.37,1.06-.37,1.64,0,2.57,2.44,4.65,5.45,4.65s5.45-2.08,5.45-4.65c0-1.68-1.06-3.14-2.63-3.96Z"/>
          </g>
        </g>
      </g>
    </g>
  </g>
</svg>