<?xml version="1.0" encoding="UTF-8"?>
<svg xmlns="http://www.w3.org/2000/svg" viewBox="0 0 74.21 46.92">
  <defs>
    <style>
      .cls-1 {
        fill: #2c3e50;
      }

      .cls-1, .cls-2, .cls-3, .cls-4, .cls-5, .cls-6, .cls-7, .cls-8, .cls-9, .cls-10 {
        stroke-width: 0px;
      }

      .cls-1, .cls-3, .cls-9 {
        mix-blend-mode: multiply;
      }

      .cls-1, .cls-9 {
        opacity: .5;
      }

      .cls-2 {
        fill: #597da1;
      }

      .cls-11 {
        isolation: isolate;
      }

      .cls-3, .cls-4 {
        fill: #e8e2c9;
      }

      .cls-5 {
        fill: #fff9de;
      }

      .cls-6 {
        fill: #e67e22;
      }

      .cls-7 {
        fill: #7f8c8d;
      }

      .cls-8, .cls-9 {
        fill: #34495e;
      }

      .cls-10 {
        fill: #f1c40f;
      }
    </style>
  </defs>
  <g class="cls-11">
    <g id="Layer_2" data-name="Layer 2">
      <g id="Layer_1-2" data-name="Layer 1">
        <g>
          <path class="cls-8" d="M35.47,9.77h32.35c3.53,0,6.39,2.86,6.39,6.39v19.4c0,3.53-2.86,6.39-6.39,6.39h-1.55c.68,2.06,1.91,4.01,3.4,4.96-2.93-.15-6.92-1.8-8.3-4.96h-25.9c-3.53,0-6.39-2.86-6.39-6.39v-19.4c0-3.53,2.86-6.39,6.39-6.39Z"/>
          <path class="cls-9" d="M72.73,12.08c.37.67.59,1.47.59,2.41v21.15c0,3.72-3.37,5.27-6.18,4.64h-33.57c-1.75,0-3.01-.74-3.8-1.82,1.06,2.08,3.21,3.51,5.7,3.51h25.9c1.38,3.15,5.36,4.81,8.3,4.96-1.48-.94-2.72-2.9-3.4-4.96h1.55c3.53,0,6.39-2.86,6.39-6.39v-19.4c0-1.56-.56-2.98-1.48-4.09Z"/>
          <path class="cls-2" d="M32.92,11.69h36.61c2.63,0,4.18,1.69,4.63,3.67-.4-3.15-3.08-5.59-6.34-5.59h-32.35c-2.12,0-3.99,1.03-5.15,2.62.7-.44,1.56-.7,2.6-.7Z"/>
          <g>
            <path class="cls-10" d="M54.19,24.59l-1.75.44c-.33-.61-.74-1.17-1.22-1.67l.96-1.53-2.05-1.49-1.16,1.38c-.62-.3-1.28-.51-1.97-.64l-.13-1.8h-2.54l-.12,1.8c-.69.13-1.36.34-1.97.64l-1.16-1.38-2.05,1.49.96,1.53c-.48.5-.89,1.06-1.22,1.67l-1.75-.44-.78,2.41,1.67.67c-.04.34-.07.68-.07,1.04s.03.7.07,1.04l-1.67.68.78,2.41,1.75-.44c.33.61.74,1.17,1.22,1.67l-.96,1.53,2.05,1.49,1.16-1.38c.62.3,1.28.51,1.97.64l.12,1.8h2.54l.13-1.8c.69-.13,1.36-.34,1.97-.64l1.16,1.38,2.05-1.49-.96-1.53c.48-.5.89-1.06,1.22-1.67l1.75.44.78-2.41-1.67-.68c.04-.34.07-.68.07-1.04s-.03-.7-.07-1.04l1.67-.67-.78-2.41ZM45.61,34.46c-3.17,0-5.75-2.57-5.75-5.75s2.57-5.75,5.75-5.75,5.75,2.57,5.75,5.75-2.57,5.75-5.75,5.75Z"/>
            <path class="cls-10" d="M45.61,23.85c-2.69,0-4.87,2.18-4.87,4.87s2.18,4.87,4.87,4.87,4.87-2.18,4.87-4.87-2.18-4.87-4.87-4.87Z"/>
            <path class="cls-10" d="M65.51,22.97l.37-1.79-1.25-.35c0-.25,0-.5-.03-.75-.03-.25-.08-.5-.13-.73l1.14-.62-.76-1.66-1.21.45c-.29-.41-.63-.78-1.01-1.1l.56-1.17-1.59-.9-.72,1.08c-.46-.16-.95-.26-1.46-.3l-.24-1.28-1.81.21.06,1.29c-.49.15-.94.35-1.36.62l-.94-.89-1.35,1.23.81,1.02c-.3.4-.55.83-.74,1.3l-1.28-.17-.37,1.79,1.25.35c0,.25,0,.5.03.75.03.25.08.5.13.73l-1.14.62.76,1.66,1.21-.45c.29.41.63.78,1.01,1.1l-.56,1.17,1.59.9.72-1.08c.46.16.96.26,1.46.3l.24,1.28,1.81-.21-.06-1.3c.49-.15.94-.35,1.36-.62l.94.89,1.35-1.23-.81-1.02c.3-.4.55-.83.74-1.3l1.28.17ZM59.04,24.89c-2.31,0-4.18-1.87-4.18-4.18s1.87-4.18,4.18-4.18,4.18,1.87,4.18,4.18-1.87,4.18-4.18,4.18Z"/>
            <path class="cls-10" d="M59.04,19.15c-.87,0-1.57.7-1.57,1.57s.7,1.57,1.57,1.57,1.57-.7,1.57-1.57-.7-1.57-1.57-1.57Z"/>
          </g>
          <path class="cls-1" d="M35.47,9.77c-3.53,0-6.39,2.86-6.39,6.39v18.16h12.68c3.53,0,6.39-2.86,6.39-6.39V9.77h-12.68Z"/>
          <path class="cls-4" d="M38.74,0H6.39C2.86,0,0,2.86,0,6.39v19.4c0,3.53,2.86,6.39,6.39,6.39h1.55c-.68,2.06-1.91,4.01-3.4,4.96,2.93-.15,6.92-1.81,8.3-4.96h25.9c3.53,0,6.39-2.86,6.39-6.39V6.39c0-3.53-2.86-6.39-6.39-6.39Z"/>
          <path class="cls-3" d="M44,2.75c.3.62.47,1.34.47,2.18v20.95c0,1.86-.84,3.17-2.03,3.94-.76.62-1.76,1-3.02,1H10.72c.05.27.08.54.08.8,0,1.27-.55,2.6-1.45,3.5-.14.14-.27.27-.41.41-.95.95-2.19,1.39-3.5,1.45-.08,0-.16,0-.24-.01-.01.04-.02.08-.03.11,2.85-.33,6.4-1.97,7.68-4.9h25.9c3.53,0,6.39-2.86,6.39-6.39V6.39c0-1.35-.42-2.61-1.14-3.64Z"/>
          <path class="cls-5" d="M1.53,27.53V6.42c0-2.06,1.03-3.45,2.43-4.17.68-.41,1.52-.65,2.52-.65h34.11c1.77,0,3.04.76,3.83,1.86-1.06-2.05-3.2-3.46-5.68-3.46H6.39C2.86,0,0,2.86,0,6.39v19.4c0,2.67,1.63,4.95,3.96,5.91-1.39-.73-2.43-2.12-2.43-4.17Z"/>
          <g>
            <rect class="cls-6" x="6.85" y="8.52" width="16.57" height="3.39"/>
            <rect class="cls-7" x="6.85" y="13.59" width="16.57" height="1.69"/>
            <rect class="cls-7" x="6.85" y="16.29" width="16.57" height="1.69"/>
            <rect class="cls-7" x="6.85" y="18.99" width="16.57" height="1.69"/>
            <rect class="cls-7" x="6.85" y="21.69" width="16.57" height="1.69"/>
            <path class="cls-7" d="M29.68,17.94h-3.3l-.51-9.46h4.32l-.51,9.46ZM25.91,21.44c0-.61.18-1.08.54-1.41.36-.34.88-.5,1.57-.5s1.19.17,1.54.5c.35.34.52.81.52,1.41s-.18,1.07-.54,1.41c-.36.34-.87.5-1.52.5s-1.18-.17-1.55-.5c-.37-.34-.56-.8-.56-1.41Z"/>
            <path class="cls-7" d="M33.83,18.03v-.85c0-.64.13-1.19.39-1.63.26-.44.73-.87,1.4-1.29.53-.33.91-.64,1.15-.91.23-.27.35-.58.35-.92,0-.28-.12-.49-.37-.66-.25-.16-.57-.24-.97-.24-.99,0-2.15.35-3.47,1.05l-1.37-2.68c1.63-.93,3.34-1.4,5.12-1.4,1.46,0,2.61.32,3.44.96.83.64,1.25,1.52,1.25,2.63,0,.79-.18,1.48-.56,2.06-.37.58-.96,1.13-1.78,1.65-.69.45-1.12.77-1.29.98-.17.21-.26.45-.26.73v.5h-3.02ZM33.41,21.48c0-.6.18-1.07.53-1.4.35-.33.87-.49,1.55-.49s1.16.17,1.51.5c.35.33.53.8.53,1.39s-.18,1.06-.55,1.39c-.36.33-.86.49-1.49.49s-1.16-.16-1.53-.49c-.37-.33-.55-.79-.55-1.39Z"/>
          </g>
        </g>
      </g>
    </g>
  </g>
</svg>