<?xml version="1.0" encoding="UTF-8"?>
<svg id="Layer_2" data-name="Layer 2" xmlns="http://www.w3.org/2000/svg" viewBox="0 0 76.16 68.81">
  <defs>
    <style>
      .cls-1 {
        fill: #1565c0;
      }

      .cls-1, .cls-2, .cls-3, .cls-4, .cls-5, .cls-6, .cls-7, .cls-8, .cls-9, .cls-10 {
        stroke-width: 0px;
      }

      .cls-2 {
        fill: #1e88e5;
      }

      .cls-3 {
        fill: #bdc3c7;
      }

      .cls-4 {
        fill: #ecf0f1;
      }

      .cls-5 {
        fill: #f39c12;
      }

      .cls-6 {
        fill: #2c3e50;
      }

      .cls-7 {
        fill: #ffcf10;
      }

      .cls-8 {
        fill: #e67e22;
      }

      .cls-9 {
        fill: #d35400;
      }

      .cls-10 {
        fill: #42a5f5;
      }
    </style>
  </defs>
  <g id="Layer_1-2" data-name="Layer 1">
    <g>
      <path class="cls-6" d="M5.6,68.68c-2.13,0-4.19-1.03-5.1-2.57-.75-1.27-.65-2.79.26-4.27.87-1.4,2.39-2.42,4.66-3.11,5.04-1.54,10.36-.91,15.51-.29.74.09,1.49.18,2.24.26,2.99-3.49,5.94-8.27,6.48-12.8.12-1,.48-4.06-.22-5.05l.82-.58c.82,1.16.65,3.68.4,5.74-.54,4.53-3.33,9.25-6.27,12.81,3.11.31,6.25.45,9.28-.04l.16.99c-3.37.55-6.83.34-10.23-.02-.64.73-1.28,1.39-1.89,1.98-4.3,4.14-10.05,6.66-15.79,6.93-.1,0-.21,0-.31,0ZM12.52,58.77c-2.31,0-4.57.24-6.79.92-2.03.62-3.37,1.5-4.11,2.69-.72,1.16-.81,2.28-.25,3.23.76,1.28,2.66,2.15,4.5,2.07,5.5-.26,11.02-2.68,15.15-6.65.44-.43.9-.9,1.37-1.4-.52-.06-1.03-.12-1.55-.18-2.85-.34-5.61-.67-8.31-.67Z"/>
      <g>
        <path class="cls-7" d="M28.26,31.48v-.25c.03-.31-.28-.54-.57-.42l-2.83,1.1c-1.6.62-4.69.99-8.39-8.5-3.7-9.49-1.17-11.31.43-11.94l2.83-1.1c.29-.11.37-.49.14-.71l-.18-.17s.35-1.21-.85-4.28c-1.25-3.21-2.29-3.77-2.29-3.77v-.19c.04-.32-.27-.55-.57-.43l-2.81,1.1c-2.47.96-5.15,6.92.88,22.43,6.04,15.51,12.04,18.09,14.52,17.12l2.81-1.1c.3-.12.37-.5.14-.72l-.14-.13s.39-1.11-.86-4.32c-1.19-3.07-2.27-3.73-2.27-3.73Z"/>
        <path class="cls-5" d="M30.14,38.02c-2.65,1.63-5.22.02-7.25-2.3-1.47-1.68-2.75-3.59-3.84-5.48-2.3-3.95-4.09-8.24-4.35-12.84,0-.07,0-.14,0-.21-.59-4.18,1.05-5.27,2.22-5.72l2.83-1.1c.29-.11.37-.49.14-.71l-.18-.17s.19-.67-.2-2.26c-.32.7-.91,1.3-1.83,1.66-1.57.61-4.68,2.74-5.75.52-.36-.74-.32-1.61-.23-2.42.19-1.69.65-3.5,2-4.53-1.39.44-2.37,1.74-2.81,3.13-.43,1.39-.41,2.88-.39,4.33.09,4.91,1.8,9.87,3.57,14.42,6.04,15.51,12.04,18.09,14.52,17.12l2.81-1.1c.3-.12.37-.5.14-.72l-.14-.13s.22-.63-.21-2.31c-.35.33-.7.6-1.04.81Z"/>
        <rect class="cls-9" x="15.02" y="1.48" width=".46" height="10.26" transform="translate(-1.36 5.98) rotate(-21.26)"/>
        <rect class="cls-9" x="26.7" y="31.48" width=".46" height="10.26" transform="translate(-11.44 12.25) rotate(-21.25)"/>
      </g>
      <g>
        <path class="cls-4" d="M53.23,0c-11.86,0-21.48,7.37-21.48,16.47,0,4.4,2.27,8.39,5.94,11.35-.78,2.03-2.49,5.43-5.56,6.95,3.6-.3,8.2-2.03,10.39-4.04,3.16,1.4,6.81,2.21,10.72,2.21,11.86,0,21.48-7.37,21.48-16.47S65.1,0,53.23,0Z"/>
        <path class="cls-3" d="M74.62,17.97l-6.45-6.45-6.44.87-1.02-1.02-3.41,3.9-3.76-3.76-4.49,4.34-3.21-3.21-3.51-.26-2.96.53,3.96,4.4-3.85,3.79,11.78,11.78c.66.05,1.32.08,1.99.08,11.21,0,20.4-6.58,21.38-14.98Z"/>
        <g>
          <path class="cls-10" d="M46.42,21.08h-6.96v-1.7l2.34-2.37c.67-.7,1.11-1.18,1.31-1.43.21-.26.35-.48.43-.66.08-.18.12-.38.12-.58,0-.25-.08-.45-.24-.59-.16-.14-.39-.22-.68-.22s-.61.09-.91.26c-.31.17-.66.43-1.05.76l-1.42-1.67c.49-.44.91-.76,1.25-.95.34-.19.7-.34,1.1-.44.4-.1.84-.15,1.33-.15.62,0,1.17.11,1.66.33.49.22.87.53,1.13.93.27.4.4.86.4,1.36,0,.38-.05.72-.14,1.04-.09.32-.24.63-.44.94-.2.31-.46.63-.78.97-.33.34-1.02.99-2.08,1.94v.07h3.63v2.14Z"/>
          <path class="cls-10" d="M54.6,19.23h-1.06v1.86h-2.56v-1.86h-3.82v-1.9l3.99-5.83h2.39v5.8h1.06v1.93ZM50.99,17.29v-1.11c0-.21,0-.49.02-.85.02-.36.03-.54.04-.56h-.07c-.15.34-.32.65-.5.94l-1.06,1.58h1.58Z"/>
          <path class="cls-10" d="M60.71,11.36l-3.57,9.85h-2.27l3.57-9.85h2.27Z"/>
          <path class="cls-10" d="M62.1,21.08l3.29-7.43h-4.15v-2.14h6.92v1.53l-3.38,8.04h-2.68Z"/>
        </g>
      </g>
      <g>
        <rect class="cls-3" x="41.71" y="39.87" width=".95" height="2.91"/>
        <path class="cls-1" d="M40.94,41.44h2.49c.72,0,1.31.59,1.31,1.31v2.68h-5.11v-2.68c0-.72.59-1.31,1.31-1.31Z"/>
        <rect class="cls-3" x="63.81" y="39.87" width=".95" height="2.91" transform="translate(128.57 82.64) rotate(180)"/>
        <path class="cls-1" d="M61.73,41.44h5.11v2.68c0,.72-.59,1.31-1.31,1.31h-2.49c-.72,0-1.31-.59-1.31-1.31v-2.68h0Z" transform="translate(128.57 86.87) rotate(180)"/>
        <path class="cls-10" d="M76.16,60.69H30.31l8.29-15.64c.8-1.52,3.46-2.61,6.16-2.61h16.96c2.69,0,5.35,1.09,6.16,2.61l8.28,15.64Z"/>
        <path class="cls-2" d="M67.87,45.05c-.63-1.19-2.39-2.1-4.42-2.45.83,1.18,9.47,16.12,1.81,16.12H31.36l-1.05,1.98h45.84l-8.28-15.64Z"/>
        <path class="cls-8" d="M47.59,46.86h-3.83c-.62,0-1.06-.28-.98-.63l.21-.89c.08-.33.62-.58,1.21-.58h3.65c.59,0,1.05.26,1.02.58l-.09.89c-.03.34-.57.63-1.19.63ZM55.06,44.76h-3.65c-.59,0-1.09.26-1.11.58l-.06.89c-.02.34.46.63,1.08.63h3.83c.62,0,1.11-.28,1.08-.63l-.06-.89c-.02-.33-.52-.58-1.11-.58ZM62.27,44.76h-3.65c-.59,0-1.05.26-1.02.58l.09.89c.03.34.57.63,1.19.63h3.83c.62,0,1.06-.28.98-.63l-.21-.89c-.08-.33-.62-.58-1.21-.58ZM47.2,49.99h-4.1c-.67,0-1.13-.32-1.04-.72l.24-1.01c.09-.37.67-.66,1.3-.66h3.89c.63,0,1.11.3,1.08.66l-.1,1.01c-.04.39-.61.72-1.28.72ZM55.18,47.6h-3.89c-.63,0-1.16.3-1.19.66l-.07,1.01c-.03.39.49.72,1.16.72h4.1c.67,0,1.18-.32,1.16-.72l-.07-1.01c-.02-.37-.56-.66-1.19-.66ZM62.86,47.6h-3.89c-.63,0-1.11.3-1.08.66l.1,1.01c.04.39.61.72,1.28.72h4.1c.67,0,1.13-.32,1.04-.72l-.24-1.01c-.09-.37-.67-.66-1.3-.66ZM46.75,53.58h-4.4c-.71,0-1.21-.37-1.1-.82l.27-1.17c.1-.42.73-.76,1.4-.76h4.17c.68,0,1.19.34,1.15.76l-.12,1.17c-.05.45-.66.82-1.38.82ZM55.32,50.83h-4.17c-.68,0-1.25.34-1.28.76l-.08,1.17c-.03.45.52.82,1.24.82h4.4c.71,0,1.27-.37,1.24-.82l-.08-1.17c-.03-.42-.6-.76-1.28-.76ZM63.54,50.83h-4.17c-.68,0-1.19.34-1.15.76l.12,1.17c.05.45.66.82,1.38.82h4.4c.71,0,1.21-.37,1.1-.82l-.27-1.17c-.1-.42-.73-.76-1.4-.76ZM46.23,57.75h-4.75c-.77,0-1.3-.43-1.17-.96l.32-1.36c.12-.49.8-.88,1.53-.88h4.48c.73,0,1.28.39,1.23.88l-.14,1.36c-.05.53-.72.96-1.49.96ZM55.48,54.55h-4.48c-.73,0-1.34.39-1.38.88l-.09,1.36c-.04.53.56.96,1.33.96h4.75c.77,0,1.37-.43,1.33-.96l-.09-1.36c-.03-.49-.65-.88-1.38-.88ZM64.32,54.55h-4.48c-.73,0-1.28.39-1.23.88l.14,1.36c.05.53.72.96,1.49.96h4.75c.77,0,1.3-.43,1.17-.96l-.32-1.36c-.12-.49-.8-.88-1.52-.88Z"/>
        <path class="cls-7" d="M47.59,46.48h-3.83c-.62,0-1.06-.28-.98-.63l.21-.89c.08-.32.62-.58,1.21-.58h3.65c.59,0,1.05.26,1.02.58l-.09.89c-.03.34-.57.63-1.19.63ZM55.06,44.38h-3.65c-.59,0-1.09.26-1.11.58l-.06.89c-.02.34.46.63,1.08.63h3.83c.62,0,1.11-.28,1.08-.63l-.06-.89c-.02-.32-.52-.58-1.11-.58ZM62.27,44.38h-3.65c-.59,0-1.05.26-1.02.58l.09.89c.03.34.57.63,1.19.63h3.83c.62,0,1.06-.28.98-.63l-.21-.89c-.08-.32-.62-.58-1.21-.58ZM47.2,49.61h-4.1c-.67,0-1.13-.32-1.04-.71l.24-1.01c.09-.37.67-.66,1.3-.66h3.89c.63,0,1.11.3,1.08.66l-.1,1.01c-.04.39-.61.71-1.28.71ZM55.18,47.21h-3.89c-.63,0-1.16.3-1.19.66l-.07,1.01c-.03.39.49.71,1.16.71h4.1c.67,0,1.18-.32,1.16-.71l-.07-1.01c-.02-.37-.56-.66-1.19-.66ZM62.86,47.21h-3.89c-.63,0-1.11.3-1.08.66l.1,1.01c.04.39.61.71,1.28.71h4.1c.67,0,1.13-.32,1.04-.71l-.24-1.01c-.09-.37-.67-.66-1.3-.66ZM46.75,53.2h-4.4c-.71,0-1.21-.37-1.1-.82l.27-1.17c.1-.42.73-.76,1.4-.76h4.17c.68,0,1.19.34,1.15.76l-.12,1.17c-.05.45-.66.82-1.38.82ZM55.32,50.44h-4.17c-.68,0-1.25.34-1.28.76l-.08,1.17c-.03.45.52.82,1.24.82h4.4c.71,0,1.27-.37,1.24-.82l-.08-1.17c-.03-.42-.6-.76-1.28-.76ZM63.54,50.44h-4.17c-.68,0-1.19.34-1.15.76l.12,1.17c.05.45.66.82,1.38.82h4.4c.71,0,1.21-.37,1.1-.82l-.27-1.17c-.1-.42-.73-.76-1.4-.76ZM46.23,57.37h-4.75c-.77,0-1.3-.43-1.17-.96l.32-1.36c.12-.49.8-.88,1.53-.88h4.48c.73,0,1.28.39,1.23.88l-.14,1.36c-.05.53-.72.96-1.49.96ZM55.48,54.17h-4.48c-.73,0-1.34.39-1.38.88l-.09,1.36c-.04.53.56.96,1.33.96h4.75c.77,0,1.37-.43,1.33-.96l-.09-1.36c-.03-.49-.65-.88-1.38-.88ZM64.32,54.17h-4.48c-.73,0-1.28.39-1.23.88l.14,1.36c.05.53.72.96,1.49.96h4.75c.77,0,1.3-.43,1.17-.96l-.32-1.36c-.12-.49-.8-.88-1.52-.88Z"/>
        <path class="cls-1" d="M30.31,60.69h45.84v4.56c0,1.1-.9,2-2,2h-41.84c-1.1,0-2-.9-2-2v-4.56h0Z"/>
        <path class="cls-6" d="M38.55,68.81h-1.94c-.86,0-1.56-.7-1.56-1.56h5.05c0,.86-.7,1.56-1.56,1.56Z"/>
        <path class="cls-6" d="M67.92,68.81h1.94c.86,0,1.56-.7,1.56-1.56h-5.05c0,.86.7,1.56,1.56,1.56Z"/>
      </g>
    </g>
  </g>
</svg>