<?xml version="1.0" encoding="UTF-8"?>
<svg id="Layer_2" data-name="Layer 2" xmlns="http://www.w3.org/2000/svg" viewBox="0 0 46.79 72.5">
  <defs>
    <style>
      .cls-1 {
        fill: #d3d9de;
      }

      .cls-1, .cls-2, .cls-3, .cls-4, .cls-5, .cls-6, .cls-7, .cls-8, .cls-9, .cls-10, .cls-11, .cls-12, .cls-13, .cls-14, .cls-15 {
        stroke-width: 0px;
      }

      .cls-2 {
        fill: #bdc3c7;
      }

      .cls-3 {
        fill: #3498db;
      }

      .cls-4 {
        fill: #2ecc71;
      }

      .cls-5 {
        fill: #95a5a6;
      }

      .cls-6 {
        fill: #4a6785;
      }

      .cls-7 {
        fill: #ecf0f1;
      }

      .cls-8 {
        fill: #f39c12;
      }

      .cls-9 {
        fill: #ffd633;
      }

      .cls-10 {
        fill: #2c3e50;
      }

      .cls-11 {
        fill: #2980b9;
      }

      .cls-12 {
        fill: #fff;
      }

      .cls-13 {
        fill: #222f3d;
      }

      .cls-14 {
        fill: #34495e;
      }

      .cls-15 {
        fill: #f1c40f;
      }
    </style>
  </defs>
  <g id="Layer_1-2" data-name="Layer 1">
    <g>
      <g>
        <rect class="cls-14" width="46.79" height="72.5" rx="4" ry="4"/>
        <circle class="cls-15" cx="23.39" cy="66.69" r="4.06"/>
        <path class="cls-12" d="M24.07,68.96h-1.35c-.88,0-1.59-.71-1.59-1.59v-1.35c0-.88.71-1.59,1.59-1.59h1.35c.88,0,1.59.71,1.59,1.59v1.35c0,.88-.71,1.59-1.59,1.59ZM22.72,65.42c-.33,0-.59.26-.59.59v1.35c0,.33.26.59.59.59h1.35c.33,0,.59-.26.59-.59v-1.35c0-.33-.26-.59-.59-.59h-1.35Z"/>
        <rect class="cls-3" x="4.06" y="3.68" width="38.67" height="56.96" rx="1" ry="1"/>
        <path class="cls-11" d="M32.26,6.64l-.3,12.65-13.02-13.02.89,3.86-1.21,2.87-5.45-5.45-.6,3.22,2.43,2.71,1.56,30.65-3.27,7.69,1.22,5.43,3.41,3.41h23.8c.55,0,1-.45,1-1V17.1l-10.46-10.46Z"/>
        <path class="cls-13" d="M33.17,2.52H13.61c-.46,0-.82-.37-.82-.82h0c0-.46.37-.82.82-.82h19.56c.46,0,.82.37.82.82h0c0,.46-.37.82-.82.82Z"/>
        <path class="cls-4" d="M36.72,1.7c0,.39-.32.71-.71.71s-.71-.32-.71-.71.32-.71.71-.71.71.32.71.71Z"/>
      </g>
      <g>
        <path class="cls-10" d="M21.54,49.98c-.57-.94-1.24-1.72-1.77-2.26-.58-.59-.92-1.38-.92-2.21v-13.9h.02v-14.2c0-.72.25-1.41.7-1.97.85-1.04,2.21-2.93,2.21-4.65,0-2.4-3.17-4.8-3.17-4.8l-.94.38.87,3.78s-.22,1.17-2.05,1.5c-1.79.32-2.56-.64-2.56-.64l-.76-3.48-1.08.18s-1.64,3.64-.5,5.53c.57.94,1.24,1.72,1.77,2.26.58.59.92,1.38.92,2.21v13.9h-.02v14.2c0,.72-.25,1.41-.7,1.97-.85,1.04-2.21,2.93-2.21,4.65,0,2.4,3.17,4.8,3.17,4.8l.94-.38-.87-3.78s.22-1.17,2.05-1.5c1.79-.32,2.56.64,2.56.64l.76,3.48,1.08-.18s1.64-3.64.5-5.53Z"/>
        <path class="cls-6" d="M16.56,14.68c-.86,0-1.56.7-1.56,1.56v30.75c0,.86.7,1.56,1.56,1.56s1.56-.7,1.56-1.56v-30.75c0-.86-.7-1.56-1.56-1.56Z"/>
        <path class="cls-6" d="M19.78,10.39l.05-.26-.89-3.86c-.07-.06-.29-.23-.33-.27l-.94.38.87,3.78s-.22,1.17-2.05,1.5c-1.79.32-2.56-.64-2.56-.64l-.76-3.48-1.11.24s-.05.12-.09.22l.78,3.58.19.23c.11.14,1.01,1.18,2.83,1.18.29,0,.61-.03.95-.09,2.12-.38,2.93-1.76,3.07-2.52Z"/>
        <path class="cls-6" d="M13.34,52.84l-.05.26.89,3.86c.07.06.29.23.33.27l.94-.38-.87-3.78s.22-1.17,2.05-1.5c1.79-.32,2.56.64,2.56.64l.76,3.48,1.11-.24s.05-.12.09-.22l-.78-3.58-.19-.23c-.11-.14-1.01-1.18-2.83-1.18-.29,0-.61.03-.95.09-2.12.38-2.93,1.76-3.07,2.52Z"/>
      </g>
      <g>
        <rect class="cls-14" x="27.5" y="27.66" width="6.89" height="1.42"/>
        <path class="cls-15" d="M35.6,31.43v-2.35h-9.31v2.35h.01c.66,0,1.2.54,1.2,1.2h0c0,.66-.54,1.2-1.2,1.2h-.01v20.06c0,1.89,1.53,3.42,3.41,3.42h2.48c1.89,0,3.42-1.53,3.42-3.42v-20.06h-.01c-.66,0-1.2-.54-1.2-1.2h0c0-.66.54-1.2,1.2-1.2h.01Z"/>
        <path class="cls-8" d="M35.59,31.43h.01v-2.35h-3.18c.07.26.11.53.11.84v1.51c-.4,0-.72.54-.72,1.21s.32,1.2.72,1.21v20.77c0,1.34-.68,2.23-1.6,2.69h1.25c1.89,0,3.42-1.53,3.42-3.42v-20.06h-.01c-.66,0-1.2-.54-1.2-1.2h0c0-.66.54-1.2,1.2-1.2Z"/>
        <polygon class="cls-1" points="32.26 6.64 29.63 6.64 28.78 10.14 29.63 11.83 32.26 11.83 33.12 10.14 32.26 6.64"/>
        <path class="cls-2" d="M32.92,9.31v.08c0,1.1-.9,1.92-1.97,1.97-1.06.05-1.97-.94-1.97-1.97v-.06l-.2.81.85,1.7v15.82h2.63v-15.82l.85-1.7-.2-.83Z"/>
        <path class="cls-5" d="M32.92,9.31v.08c0,.89-.58,1.58-1.36,1.85v16.42h.71v-15.82l.85-1.7-.2-.83Z"/>
        <path class="cls-7" d="M30.53,12.39h0c-.16,0-.29.13-.29.29v14.04c0,.16.13.29.29.29h0c.16,0,.29-.13.29-.29v-14.04c0-.16-.13-.29-.29-.29Z"/>
        <path class="cls-9" d="M29.2,34.02h.31c.32,0,.58.26.58.58v21.8c0,.32-.26.58-.58.58h-.31c-.32,0-.58-.26-.58-.58v-21.8c0-.32.26-.58.58-.58Z"/>
      </g>
    </g>
  </g>
</svg>